<?xml version="1.0" encoding="utf-8" standalone="no"?>
<!DOCTYPE svg PUBLIC "-//W3C//DTD SVG 1.1//EN"
  "http://www.w3.org/Graphics/SVG/1.1/DTD/svg11.dtd">
<svg xmlns:xlink="http://www.w3.org/1999/xlink" width="460.8pt" height="345.6pt" viewBox="0 0 460.8 345.6" xmlns="http://www.w3.org/2000/svg" version="1.1">
 <metadata>
  <rdf:RDF xmlns:dc="http://purl.org/dc/elements/1.1/" xmlns:cc="http://creativecommons.org/ns#" xmlns:rdf="http://www.w3.org/1999/02/22-rdf-syntax-ns#">
   <cc:Work>
    <dc:type rdf:resource="http://purl.org/dc/dcmitype/StillImage"/>
    <dc:date>2023-08-10T12:14:18.083952</dc:date>
    <dc:format>image/svg+xml</dc:format>
    <dc:creator>
     <cc:Agent>
      <dc:title>Matplotlib v3.7.2, https://matplotlib.org/</dc:title>
     </cc:Agent>
    </dc:creator>
   </cc:Work>
  </rdf:RDF>
 </metadata>
 <defs>
  <style type="text/css">*{stroke-linejoin: round; stroke-linecap: butt}</style>
 </defs>
 <g id="figure_1">
  <g id="patch_1">
   <path d="M 0 345.6 
L 460.8 345.6 
L 460.8 0 
L 0 0 
z
" style="fill: #ffffff"/>
  </g>
  <g id="axes_1">
   <g id="patch_2">
    <path d="M 47.81 303.64 
L 450 303.64 
L 450 10.8 
L 47.81 10.8 
z
" style="fill: #ffffff"/>
   </g>
   <g id="matplotlib.axis_1">
    <g id="xtick_1">
     <g id="line2d_1">
      <defs>
       <path id="m4df7d395ba" d="M 0 0 
L 0 3.5 
" style="stroke: #000000; stroke-width: 0.8"/>
      </defs>
      <g>
       <use xlink:href="#m4df7d395ba" x="66.091364" y="303.64" style="stroke: #000000; stroke-width: 0.8"/>
      </g>
     </g>
     <g id="text_1">
      <!-- 0 -->
      <g transform="translate(62.910114 318.238437) scale(0.1 -0.1)">
       <defs>
        <path id="DejaVuSans-30" d="M 2034 4250 
Q 1547 4250 1301 3770 
Q 1056 3291 1056 2328 
Q 1056 1369 1301 889 
Q 1547 409 2034 409 
Q 2525 409 2770 889 
Q 3016 1369 3016 2328 
Q 3016 3291 2770 3770 
Q 2525 4250 2034 4250 
z
M 2034 4750 
Q 2819 4750 3233 4129 
Q 3647 3509 3647 2328 
Q 3647 1150 3233 529 
Q 2819 -91 2034 -91 
Q 1250 -91 836 529 
Q 422 1150 422 2328 
Q 422 3509 836 4129 
Q 1250 4750 2034 4750 
z
" transform="scale(0.015625)"/>
       </defs>
       <use xlink:href="#DejaVuSans-30"/>
      </g>
     </g>
    </g>
    <g id="xtick_2">
     <g id="line2d_2">
      <g>
       <use xlink:href="#m4df7d395ba" x="139.216818" y="303.64" style="stroke: #000000; stroke-width: 0.8"/>
      </g>
     </g>
     <g id="text_2">
      <!-- 2 -->
      <g transform="translate(136.035568 318.238437) scale(0.1 -0.1)">
       <defs>
        <path id="DejaVuSans-32" d="M 1228 531 
L 3431 531 
L 3431 0 
L 469 0 
L 469 531 
Q 828 903 1448 1529 
Q 2069 2156 2228 2338 
Q 2531 2678 2651 2914 
Q 2772 3150 2772 3378 
Q 2772 3750 2511 3984 
Q 2250 4219 1831 4219 
Q 1534 4219 1204 4116 
Q 875 4013 500 3803 
L 500 4441 
Q 881 4594 1212 4672 
Q 1544 4750 1819 4750 
Q 2544 4750 2975 4387 
Q 3406 4025 3406 3419 
Q 3406 3131 3298 2873 
Q 3191 2616 2906 2266 
Q 2828 2175 2409 1742 
Q 1991 1309 1228 531 
z
" transform="scale(0.015625)"/>
       </defs>
       <use xlink:href="#DejaVuSans-32"/>
      </g>
     </g>
    </g>
    <g id="xtick_3">
     <g id="line2d_3">
      <g>
       <use xlink:href="#m4df7d395ba" x="212.342273" y="303.64" style="stroke: #000000; stroke-width: 0.8"/>
      </g>
     </g>
     <g id="text_3">
      <!-- 4 -->
      <g transform="translate(209.161023 318.238437) scale(0.1 -0.1)">
       <defs>
        <path id="DejaVuSans-34" d="M 2419 4116 
L 825 1625 
L 2419 1625 
L 2419 4116 
z
M 2253 4666 
L 3047 4666 
L 3047 1625 
L 3713 1625 
L 3713 1100 
L 3047 1100 
L 3047 0 
L 2419 0 
L 2419 1100 
L 313 1100 
L 313 1709 
L 2253 4666 
z
" transform="scale(0.015625)"/>
       </defs>
       <use xlink:href="#DejaVuSans-34"/>
      </g>
     </g>
    </g>
    <g id="xtick_4">
     <g id="line2d_4">
      <g>
       <use xlink:href="#m4df7d395ba" x="285.467727" y="303.64" style="stroke: #000000; stroke-width: 0.8"/>
      </g>
     </g>
     <g id="text_4">
      <!-- 6 -->
      <g transform="translate(282.286477 318.238437) scale(0.1 -0.1)">
       <defs>
        <path id="DejaVuSans-36" d="M 2113 2584 
Q 1688 2584 1439 2293 
Q 1191 2003 1191 1497 
Q 1191 994 1439 701 
Q 1688 409 2113 409 
Q 2538 409 2786 701 
Q 3034 994 3034 1497 
Q 3034 2003 2786 2293 
Q 2538 2584 2113 2584 
z
M 3366 4563 
L 3366 3988 
Q 3128 4100 2886 4159 
Q 2644 4219 2406 4219 
Q 1781 4219 1451 3797 
Q 1122 3375 1075 2522 
Q 1259 2794 1537 2939 
Q 1816 3084 2150 3084 
Q 2853 3084 3261 2657 
Q 3669 2231 3669 1497 
Q 3669 778 3244 343 
Q 2819 -91 2113 -91 
Q 1303 -91 875 529 
Q 447 1150 447 2328 
Q 447 3434 972 4092 
Q 1497 4750 2381 4750 
Q 2619 4750 2861 4703 
Q 3103 4656 3366 4563 
z
" transform="scale(0.015625)"/>
       </defs>
       <use xlink:href="#DejaVuSans-36"/>
      </g>
     </g>
    </g>
    <g id="xtick_5">
     <g id="line2d_5">
      <g>
       <use xlink:href="#m4df7d395ba" x="358.593182" y="303.64" style="stroke: #000000; stroke-width: 0.8"/>
      </g>
     </g>
     <g id="text_5">
      <!-- 8 -->
      <g transform="translate(355.411932 318.238437) scale(0.1 -0.1)">
       <defs>
        <path id="DejaVuSans-38" d="M 2034 2216 
Q 1584 2216 1326 1975 
Q 1069 1734 1069 1313 
Q 1069 891 1326 650 
Q 1584 409 2034 409 
Q 2484 409 2743 651 
Q 3003 894 3003 1313 
Q 3003 1734 2745 1975 
Q 2488 2216 2034 2216 
z
M 1403 2484 
Q 997 2584 770 2862 
Q 544 3141 544 3541 
Q 544 4100 942 4425 
Q 1341 4750 2034 4750 
Q 2731 4750 3128 4425 
Q 3525 4100 3525 3541 
Q 3525 3141 3298 2862 
Q 3072 2584 2669 2484 
Q 3125 2378 3379 2068 
Q 3634 1759 3634 1313 
Q 3634 634 3220 271 
Q 2806 -91 2034 -91 
Q 1263 -91 848 271 
Q 434 634 434 1313 
Q 434 1759 690 2068 
Q 947 2378 1403 2484 
z
M 1172 3481 
Q 1172 3119 1398 2916 
Q 1625 2713 2034 2713 
Q 2441 2713 2670 2916 
Q 2900 3119 2900 3481 
Q 2900 3844 2670 4047 
Q 2441 4250 2034 4250 
Q 1625 4250 1398 4047 
Q 1172 3844 1172 3481 
z
" transform="scale(0.015625)"/>
       </defs>
       <use xlink:href="#DejaVuSans-38"/>
      </g>
     </g>
    </g>
    <g id="xtick_6">
     <g id="line2d_6">
      <g>
       <use xlink:href="#m4df7d395ba" x="431.718636" y="303.64" style="stroke: #000000; stroke-width: 0.8"/>
      </g>
     </g>
     <g id="text_6">
      <!-- 10 -->
      <g transform="translate(425.356136 318.238437) scale(0.1 -0.1)">
       <defs>
        <path id="DejaVuSans-31" d="M 794 531 
L 1825 531 
L 1825 4091 
L 703 3866 
L 703 4441 
L 1819 4666 
L 2450 4666 
L 2450 531 
L 3481 531 
L 3481 0 
L 794 0 
L 794 531 
z
" transform="scale(0.015625)"/>
       </defs>
       <use xlink:href="#DejaVuSans-31"/>
       <use xlink:href="#DejaVuSans-30" x="63.623047"/>
      </g>
     </g>
    </g>
    <g id="text_7">
     <!-- Time -->
     <g transform="translate(236.671406 331.916562) scale(0.1 -0.1)">
      <defs>
       <path id="DejaVuSans-54" d="M -19 4666 
L 3928 4666 
L 3928 4134 
L 2272 4134 
L 2272 0 
L 1638 0 
L 1638 4134 
L -19 4134 
L -19 4666 
z
" transform="scale(0.015625)"/>
       <path id="DejaVuSans-69" d="M 603 3500 
L 1178 3500 
L 1178 0 
L 603 0 
L 603 3500 
z
M 603 4863 
L 1178 4863 
L 1178 4134 
L 603 4134 
L 603 4863 
z
" transform="scale(0.015625)"/>
       <path id="DejaVuSans-6d" d="M 3328 2828 
Q 3544 3216 3844 3400 
Q 4144 3584 4550 3584 
Q 5097 3584 5394 3201 
Q 5691 2819 5691 2113 
L 5691 0 
L 5113 0 
L 5113 2094 
Q 5113 2597 4934 2840 
Q 4756 3084 4391 3084 
Q 3944 3084 3684 2787 
Q 3425 2491 3425 1978 
L 3425 0 
L 2847 0 
L 2847 2094 
Q 2847 2600 2669 2842 
Q 2491 3084 2119 3084 
Q 1678 3084 1418 2786 
Q 1159 2488 1159 1978 
L 1159 0 
L 581 0 
L 581 3500 
L 1159 3500 
L 1159 2956 
Q 1356 3278 1631 3431 
Q 1906 3584 2284 3584 
Q 2666 3584 2933 3390 
Q 3200 3197 3328 2828 
z
" transform="scale(0.015625)"/>
       <path id="DejaVuSans-65" d="M 3597 1894 
L 3597 1613 
L 953 1613 
Q 991 1019 1311 708 
Q 1631 397 2203 397 
Q 2534 397 2845 478 
Q 3156 559 3463 722 
L 3463 178 
Q 3153 47 2828 -22 
Q 2503 -91 2169 -91 
Q 1331 -91 842 396 
Q 353 884 353 1716 
Q 353 2575 817 3079 
Q 1281 3584 2069 3584 
Q 2775 3584 3186 3129 
Q 3597 2675 3597 1894 
z
M 3022 2063 
Q 3016 2534 2758 2815 
Q 2500 3097 2075 3097 
Q 1594 3097 1305 2825 
Q 1016 2553 972 2059 
L 3022 2063 
z
" transform="scale(0.015625)"/>
      </defs>
      <use xlink:href="#DejaVuSans-54"/>
      <use xlink:href="#DejaVuSans-69" x="57.958984"/>
      <use xlink:href="#DejaVuSans-6d" x="85.742188"/>
      <use xlink:href="#DejaVuSans-65" x="183.154297"/>
     </g>
    </g>
   </g>
   <g id="matplotlib.axis_2">
    <g id="ytick_1">
     <g id="line2d_7">
      <defs>
       <path id="mb92c8efe8b" d="M 0 0 
L -3.5 0 
" style="stroke: #000000; stroke-width: 0.8"/>
      </defs>
      <g>
       <use xlink:href="#mb92c8efe8b" x="47.81" y="290.329091" style="stroke: #000000; stroke-width: 0.8"/>
      </g>
     </g>
     <g id="text_8">
      <!-- 0.0 -->
      <g transform="translate(24.906875 294.12831) scale(0.1 -0.1)">
       <defs>
        <path id="DejaVuSans-2e" d="M 684 794 
L 1344 794 
L 1344 0 
L 684 0 
L 684 794 
z
" transform="scale(0.015625)"/>
       </defs>
       <use xlink:href="#DejaVuSans-30"/>
       <use xlink:href="#DejaVuSans-2e" x="63.623047"/>
       <use xlink:href="#DejaVuSans-30" x="95.410156"/>
      </g>
     </g>
    </g>
    <g id="ytick_2">
     <g id="line2d_8">
      <g>
       <use xlink:href="#mb92c8efe8b" x="47.81" y="237.085455" style="stroke: #000000; stroke-width: 0.8"/>
      </g>
     </g>
     <g id="text_9">
      <!-- 0.2 -->
      <g transform="translate(24.906875 240.884673) scale(0.1 -0.1)">
       <use xlink:href="#DejaVuSans-30"/>
       <use xlink:href="#DejaVuSans-2e" x="63.623047"/>
       <use xlink:href="#DejaVuSans-32" x="95.410156"/>
      </g>
     </g>
    </g>
    <g id="ytick_3">
     <g id="line2d_9">
      <g>
       <use xlink:href="#mb92c8efe8b" x="47.81" y="183.841818" style="stroke: #000000; stroke-width: 0.8"/>
      </g>
     </g>
     <g id="text_10">
      <!-- 0.4 -->
      <g transform="translate(24.906875 187.641037) scale(0.1 -0.1)">
       <use xlink:href="#DejaVuSans-30"/>
       <use xlink:href="#DejaVuSans-2e" x="63.623047"/>
       <use xlink:href="#DejaVuSans-34" x="95.410156"/>
      </g>
     </g>
    </g>
    <g id="ytick_4">
     <g id="line2d_10">
      <g>
       <use xlink:href="#mb92c8efe8b" x="47.81" y="130.598182" style="stroke: #000000; stroke-width: 0.8"/>
      </g>
     </g>
     <g id="text_11">
      <!-- 0.6 -->
      <g transform="translate(24.906875 134.397401) scale(0.1 -0.1)">
       <use xlink:href="#DejaVuSans-30"/>
       <use xlink:href="#DejaVuSans-2e" x="63.623047"/>
       <use xlink:href="#DejaVuSans-36" x="95.410156"/>
      </g>
     </g>
    </g>
    <g id="ytick_5">
     <g id="line2d_11">
      <g>
       <use xlink:href="#mb92c8efe8b" x="47.81" y="77.354545" style="stroke: #000000; stroke-width: 0.8"/>
      </g>
     </g>
     <g id="text_12">
      <!-- 0.8 -->
      <g transform="translate(24.906875 81.153764) scale(0.1 -0.1)">
       <use xlink:href="#DejaVuSans-30"/>
       <use xlink:href="#DejaVuSans-2e" x="63.623047"/>
       <use xlink:href="#DejaVuSans-38" x="95.410156"/>
      </g>
     </g>
    </g>
    <g id="ytick_6">
     <g id="line2d_12">
      <g>
       <use xlink:href="#mb92c8efe8b" x="47.81" y="24.110909" style="stroke: #000000; stroke-width: 0.8"/>
      </g>
     </g>
     <g id="text_13">
      <!-- 1.0 -->
      <g transform="translate(24.906875 27.910128) scale(0.1 -0.1)">
       <use xlink:href="#DejaVuSans-31"/>
       <use xlink:href="#DejaVuSans-2e" x="63.623047"/>
       <use xlink:href="#DejaVuSans-30" x="95.410156"/>
      </g>
     </g>
    </g>
    <g id="text_14">
     <!-- Probability -->
     <g transform="translate(18.827187 183.648906) rotate(-90) scale(0.1 -0.1)">
      <defs>
       <path id="DejaVuSans-50" d="M 1259 4147 
L 1259 2394 
L 2053 2394 
Q 2494 2394 2734 2622 
Q 2975 2850 2975 3272 
Q 2975 3691 2734 3919 
Q 2494 4147 2053 4147 
L 1259 4147 
z
M 628 4666 
L 2053 4666 
Q 2838 4666 3239 4311 
Q 3641 3956 3641 3272 
Q 3641 2581 3239 2228 
Q 2838 1875 2053 1875 
L 1259 1875 
L 1259 0 
L 628 0 
L 628 4666 
z
" transform="scale(0.015625)"/>
       <path id="DejaVuSans-72" d="M 2631 2963 
Q 2534 3019 2420 3045 
Q 2306 3072 2169 3072 
Q 1681 3072 1420 2755 
Q 1159 2438 1159 1844 
L 1159 0 
L 581 0 
L 581 3500 
L 1159 3500 
L 1159 2956 
Q 1341 3275 1631 3429 
Q 1922 3584 2338 3584 
Q 2397 3584 2469 3576 
Q 2541 3569 2628 3553 
L 2631 2963 
z
" transform="scale(0.015625)"/>
       <path id="DejaVuSans-6f" d="M 1959 3097 
Q 1497 3097 1228 2736 
Q 959 2375 959 1747 
Q 959 1119 1226 758 
Q 1494 397 1959 397 
Q 2419 397 2687 759 
Q 2956 1122 2956 1747 
Q 2956 2369 2687 2733 
Q 2419 3097 1959 3097 
z
M 1959 3584 
Q 2709 3584 3137 3096 
Q 3566 2609 3566 1747 
Q 3566 888 3137 398 
Q 2709 -91 1959 -91 
Q 1206 -91 779 398 
Q 353 888 353 1747 
Q 353 2609 779 3096 
Q 1206 3584 1959 3584 
z
" transform="scale(0.015625)"/>
       <path id="DejaVuSans-62" d="M 3116 1747 
Q 3116 2381 2855 2742 
Q 2594 3103 2138 3103 
Q 1681 3103 1420 2742 
Q 1159 2381 1159 1747 
Q 1159 1113 1420 752 
Q 1681 391 2138 391 
Q 2594 391 2855 752 
Q 3116 1113 3116 1747 
z
M 1159 2969 
Q 1341 3281 1617 3432 
Q 1894 3584 2278 3584 
Q 2916 3584 3314 3078 
Q 3713 2572 3713 1747 
Q 3713 922 3314 415 
Q 2916 -91 2278 -91 
Q 1894 -91 1617 61 
Q 1341 213 1159 525 
L 1159 0 
L 581 0 
L 581 4863 
L 1159 4863 
L 1159 2969 
z
" transform="scale(0.015625)"/>
       <path id="DejaVuSans-61" d="M 2194 1759 
Q 1497 1759 1228 1600 
Q 959 1441 959 1056 
Q 959 750 1161 570 
Q 1363 391 1709 391 
Q 2188 391 2477 730 
Q 2766 1069 2766 1631 
L 2766 1759 
L 2194 1759 
z
M 3341 1997 
L 3341 0 
L 2766 0 
L 2766 531 
Q 2569 213 2275 61 
Q 1981 -91 1556 -91 
Q 1019 -91 701 211 
Q 384 513 384 1019 
Q 384 1609 779 1909 
Q 1175 2209 1959 2209 
L 2766 2209 
L 2766 2266 
Q 2766 2663 2505 2880 
Q 2244 3097 1772 3097 
Q 1472 3097 1187 3025 
Q 903 2953 641 2809 
L 641 3341 
Q 956 3463 1253 3523 
Q 1550 3584 1831 3584 
Q 2591 3584 2966 3190 
Q 3341 2797 3341 1997 
z
" transform="scale(0.015625)"/>
       <path id="DejaVuSans-6c" d="M 603 4863 
L 1178 4863 
L 1178 0 
L 603 0 
L 603 4863 
z
" transform="scale(0.015625)"/>
       <path id="DejaVuSans-74" d="M 1172 4494 
L 1172 3500 
L 2356 3500 
L 2356 3053 
L 1172 3053 
L 1172 1153 
Q 1172 725 1289 603 
Q 1406 481 1766 481 
L 2356 481 
L 2356 0 
L 1766 0 
Q 1100 0 847 248 
Q 594 497 594 1153 
L 594 3053 
L 172 3053 
L 172 3500 
L 594 3500 
L 594 4494 
L 1172 4494 
z
" transform="scale(0.015625)"/>
       <path id="DejaVuSans-79" d="M 2059 -325 
Q 1816 -950 1584 -1140 
Q 1353 -1331 966 -1331 
L 506 -1331 
L 506 -850 
L 844 -850 
Q 1081 -850 1212 -737 
Q 1344 -625 1503 -206 
L 1606 56 
L 191 3500 
L 800 3500 
L 1894 763 
L 2988 3500 
L 3597 3500 
L 2059 -325 
z
" transform="scale(0.015625)"/>
      </defs>
      <use xlink:href="#DejaVuSans-50"/>
      <use xlink:href="#DejaVuSans-72" x="58.552734"/>
      <use xlink:href="#DejaVuSans-6f" x="97.416016"/>
      <use xlink:href="#DejaVuSans-62" x="158.597656"/>
      <use xlink:href="#DejaVuSans-61" x="222.074219"/>
      <use xlink:href="#DejaVuSans-62" x="283.353516"/>
      <use xlink:href="#DejaVuSans-69" x="346.830078"/>
      <use xlink:href="#DejaVuSans-6c" x="374.613281"/>
      <use xlink:href="#DejaVuSans-69" x="402.396484"/>
      <use xlink:href="#DejaVuSans-74" x="430.179688"/>
      <use xlink:href="#DejaVuSans-79" x="469.388672"/>
     </g>
    </g>
   </g>
   <g id="line2d_13">
    <path d="M 66.091364 290.329091 
L 66.456991 287.694669 
L 66.822618 279.96773 
L 67.188245 267.547051 
L 67.9195 230.96647 
L 69.016382 158.2268 
L 70.113264 85.168552 
L 70.844518 48.050784 
L 71.210145 35.283433 
L 71.575773 27.171601 
L 71.9414 24.127289 
L 72.307027 26.380253 
L 72.672655 33.952168 
L 73.038282 46.637824 
L 73.769536 85.359879 
L 74.866418 163.908527 
L 75.9633 239.895369 
L 76.694555 274.574095 
L 77.060182 284.818808 
L 77.425809 289.821047 
L 77.791436 289.48748 
L 78.157064 283.943606 
L 78.522691 273.511123 
L 79.253945 240.079035 
L 80.350827 169.407396 
L 81.813336 73.373823 
L 82.544591 40.311451 
L 82.910218 30.108047 
L 83.275845 24.813119 
L 83.641473 24.739422 
L 84.0071 30.002215 
L 84.372727 40.496989 
L 85.103982 75.598615 
L 86.200864 151.879598 
L 87.297745 230.206066 
L 88.029 268.536155 
L 88.394627 280.979928 
L 88.760255 288.29445 
L 89.125882 290.285928 
L 89.491509 286.986718 
L 89.857136 278.636121 
L 90.222764 265.654377 
L 90.588391 248.613276 
L 90.954018 290.329091 
L 114.719791 290.329091 
L 115.085418 287.719454 
L 115.451045 280.015892 
L 115.816673 267.616298 
L 116.547927 231.068522 
L 117.644809 158.348642 
L 118.741691 85.271614 
L 119.472945 48.121638 
L 119.838573 35.333458 
L 120.2042 27.1984 
L 120.569827 24.129331 
L 120.935455 26.35692 
L 121.301082 33.903876 
L 121.666709 46.56611 
L 122.397964 85.250295 
L 123.494845 163.777717 
L 124.591727 239.793498 
L 125.322982 274.513377 
L 125.688609 284.782386 
L 126.054236 289.809918 
L 126.419864 289.501555 
L 126.785491 283.981806 
L 127.151118 273.571502 
L 127.882373 240.175151 
L 128.979255 169.528755 
L 130.441764 73.469316 
L 131.173018 40.370909 
L 131.538645 30.145215 
L 131.904273 24.826098 
L 132.2699 24.727171 
L 132.635527 29.964689 
L 133.001155 40.435239 
L 133.732409 75.495977 
L 134.829291 151.748735 
L 135.926173 230.097152 
L 136.657427 268.465422 
L 137.023055 280.93272 
L 137.388682 288.272233 
L 137.754309 290.289084 
L 138.119936 287.014586 
L 138.485564 278.687112 
L 138.851191 265.72611 
L 139.582445 228.30982 
L 141.044955 129.610261 
L 142.141836 62.643062 
L 142.873091 34.028224 
L 143.238718 26.519124 
L 143.604345 24.116108 
L 143.969973 27.024678 
L 144.3356 35.239514 
L 144.701227 48.526764 
L 145.432482 88.214845 
L 146.894991 194.357374 
L 147.626245 242.49921 
L 148.3575 276.103888 
L 148.723127 285.7184 
L 149.088755 290.066677 
L 149.454382 289.083147 
L 149.820009 282.91873 
L 150.185636 271.917359 
L 150.916891 237.57312 
L 151.648145 191.561593 
L 152.013773 290.329091 
L 226.967364 290.329091 
L 227.332991 290.015325 
L 227.698618 285.59602 
L 228.064245 276.201913 
L 228.7955 244.456633 
L 229.892382 175.0157 
L 231.354891 77.86639 
L 232.086145 43.168535 
L 232.451773 31.945134 
L 232.8174 25.537647 
L 233.183027 24.298651 
L 233.548655 28.388985 
L 233.914282 37.753976 
L 234.279909 52.107894 
L 235.011164 93.476519 
L 237.570555 265.149868 
L 237.936182 278.672226 
L 238.301809 287.139424 
L 238.667436 290.306296 
L 239.033064 288.156815 
L 239.398691 280.886829 
L 239.764318 268.87923 
L 240.495573 232.943529 
L 241.592455 160.600411 
L 242.689336 87.187601 
L 243.420591 49.448182 
L 243.786218 36.276672 
L 244.151845 27.714327 
L 244.517473 24.18862 
L 244.8831 25.947316 
L 245.248727 33.032255 
L 245.614355 45.25976 
L 246.345609 83.237723 
L 247.442491 161.359469 
L 248.539373 237.895683 
L 249.270627 273.371124 
L 249.636255 284.08792 
L 250.001882 289.582508 
L 250.367509 289.740457 
L 250.733136 284.667859 
L 251.098764 274.669377 
L 251.830018 241.938938 
L 252.9269 171.769769 
L 254.389409 75.246072 
L 255.120664 41.487541 
L 255.486291 30.8521 
L 255.851918 25.087185 
L 256.217545 24.522467 
L 256.583173 29.292513 
L 256.9488 39.313873 
L 257.680055 73.613307 
L 258.776936 149.331624 
L 259.873818 228.071151 
L 260.605073 267.139115 
L 260.9707 280.039299 
L 261.336327 287.839986 
L 261.701955 290.325851 
L 262.067582 287.508993 
L 262.433209 279.610583 
L 262.798836 267.035335 
L 263.530091 230.214772 
L 264.626973 157.331374 
L 265.723855 84.41278 
L 266.455109 47.532769 
L 266.820736 34.91918 
L 267.186364 290.329091 
L 282.908336 290.315534 
L 283.273964 287.308157 
L 283.639591 279.230952 
L 284.005218 266.494762 
L 284.736473 229.425101 
L 285.833355 156.394942 
L 286.198982 290.329091 
L 404.662218 290.329091 
L 405.027845 289.560549 
L 405.393473 284.144277 
L 405.7591 273.829143 
L 406.490355 240.586278 
L 407.587236 170.048781 
L 409.049745 73.879245 
L 409.781 40.626824 
L 410.146627 30.305781 
L 410.512255 24.883058 
L 410.877882 24.676026 
L 411.243509 29.805203 
L 411.609136 40.171804 
L 412.340391 75.056913 
L 413.437273 151.188013 
L 414.534155 229.629464 
L 415.265409 268.161069 
L 415.631036 280.729054 
L 415.996664 288.175656 
L 416.362291 290.301254 
L 416.727918 287.132724 
L 417.093545 278.904465 
L 417.459173 266.032536 
L 418.190427 228.753389 
L 419.652936 130.121772 
L 420.749818 63.015395 
L 421.481073 34.231615 
L 421.8467 26.622075 
L 422.212327 24.112421 
L 422.577955 26.9122 
L 422.943582 35.020582 
L 423.309209 48.208492 
L 424.040464 87.73793 
L 425.502973 193.818798 
L 426.234227 242.070961 
L 426.965482 275.855214 
L 427.331109 285.574624 
L 427.696736 290.031489 
L 428.062364 289.155659 
L 428.427991 283.093861 
L 428.793618 272.18636 
L 429.524873 237.992031 
L 430.621755 166.790654 
L 431.718636 92.560174 
L 431.718636 92.560174 
" clip-path="url(#p0f391f7e8e)" style="fill: none; stroke: #1f77b4; stroke-width: 1.5; stroke-linecap: square"/>
   </g>
   <g id="line2d_14">
    <path d="M 66.091364 290.329091 
L 90.588391 290.329091 
L 90.954018 24.110909 
L 114.719791 24.110909 
L 115.085418 290.329091 
L 151.648145 290.329091 
L 152.013773 24.110909 
L 226.967364 24.110909 
L 227.332991 290.329091 
L 266.820736 290.329091 
L 267.186364 24.110909 
L 282.542709 24.110909 
L 282.908336 290.329091 
L 285.833355 290.329091 
L 286.198982 24.110909 
L 404.662218 24.110909 
L 405.027845 290.329091 
L 431.718636 290.329091 
L 431.718636 290.329091 
" clip-path="url(#p0f391f7e8e)" style="fill: none; stroke: #ff7f0e; stroke-width: 1.5; stroke-linecap: square"/>
   </g>
   <g id="line2d_15">
    <path d="M 66.091364 24.110909 
L 66.456991 26.745331 
L 66.822618 34.47227 
L 67.188245 46.892949 
L 67.9195 83.47353 
L 69.016382 156.2132 
L 70.113264 229.271448 
L 70.844518 266.389216 
L 71.210145 279.156567 
L 71.575773 287.268399 
L 71.9414 290.312711 
L 72.307027 288.059747 
L 72.672655 280.487832 
L 73.038282 267.802176 
L 73.769536 229.080121 
L 74.866418 150.531473 
L 75.9633 74.544631 
L 76.694555 39.865905 
L 77.060182 29.621192 
L 77.425809 24.618953 
L 77.791436 24.95252 
L 78.157064 30.496394 
L 78.522691 40.928877 
L 79.253945 74.360965 
L 80.350827 145.032604 
L 81.813336 241.066177 
L 82.544591 274.128549 
L 82.910218 284.331953 
L 83.275845 289.626881 
L 83.641473 289.700578 
L 84.0071 284.437785 
L 84.372727 273.943011 
L 85.103982 238.841385 
L 86.200864 162.560402 
L 87.297745 84.233934 
L 88.029 45.903845 
L 88.394627 33.460072 
L 88.760255 26.14555 
L 89.125882 24.154072 
L 89.491509 27.453282 
L 89.857136 35.803879 
L 90.222764 48.785623 
L 90.588391 65.826724 
L 90.954018 290.329091 
L 114.719791 290.329091 
L 115.085418 26.720546 
L 115.451045 34.424108 
L 115.816673 46.823702 
L 116.547927 83.371478 
L 117.644809 156.091358 
L 118.741691 229.168386 
L 119.472945 266.318362 
L 119.838573 279.106542 
L 120.2042 287.2416 
L 120.569827 290.310669 
L 120.935455 288.08308 
L 121.301082 280.536124 
L 121.666709 267.87389 
L 122.397964 229.189705 
L 123.494845 150.662283 
L 124.591727 74.646502 
L 125.322982 39.926623 
L 125.688609 29.657614 
L 126.054236 24.630082 
L 126.419864 24.938445 
L 126.785491 30.458194 
L 127.151118 40.868498 
L 127.882373 74.264849 
L 128.979255 144.911245 
L 130.441764 240.970684 
L 131.173018 274.069091 
L 131.538645 284.294785 
L 131.904273 289.613902 
L 132.2699 289.712829 
L 132.635527 284.475311 
L 133.001155 274.004761 
L 133.732409 238.944023 
L 134.829291 162.691265 
L 135.926173 84.342848 
L 136.657427 45.974578 
L 137.023055 33.50728 
L 137.388682 26.167767 
L 137.754309 24.150916 
L 138.119936 27.425414 
L 138.485564 35.752888 
L 138.851191 48.71389 
L 139.582445 86.13018 
L 141.044955 184.829739 
L 142.141836 251.796938 
L 142.873091 280.411776 
L 143.238718 287.920876 
L 143.604345 290.323892 
L 143.969973 287.415322 
L 144.3356 279.200486 
L 144.701227 265.913236 
L 145.432482 226.225155 
L 146.894991 120.082626 
L 147.626245 71.94079 
L 148.3575 38.336112 
L 148.723127 28.7216 
L 149.088755 24.373323 
L 149.454382 25.356853 
L 149.820009 31.52127 
L 150.185636 42.522641 
L 150.916891 76.86688 
L 151.648145 122.878407 
L 152.013773 290.329091 
L 226.967364 290.329091 
L 227.332991 24.424675 
L 227.698618 28.84398 
L 228.064245 38.238087 
L 228.7955 69.983367 
L 229.892382 139.4243 
L 231.354891 236.57361 
L 232.086145 271.271465 
L 232.451773 282.494866 
L 232.8174 288.902353 
L 233.183027 290.141349 
L 233.548655 286.051015 
L 233.914282 276.686024 
L 234.279909 262.332106 
L 235.011164 220.963481 
L 237.570555 49.290132 
L 237.936182 35.767774 
L 238.301809 27.300576 
L 238.667436 24.133704 
L 239.033064 26.283185 
L 239.398691 33.553171 
L 239.764318 45.56077 
L 240.495573 81.496471 
L 241.592455 153.839589 
L 242.689336 227.252399 
L 243.420591 264.991818 
L 243.786218 278.163328 
L 244.151845 286.725673 
L 244.517473 290.25138 
L 244.8831 288.492684 
L 245.248727 281.407745 
L 245.614355 269.18024 
L 246.345609 231.202277 
L 247.442491 153.080531 
L 248.539373 76.544317 
L 249.270627 41.068876 
L 249.636255 30.35208 
L 250.001882 24.857492 
L 250.367509 24.699543 
L 250.733136 29.772141 
L 251.098764 39.770623 
L 251.830018 72.501062 
L 252.9269 142.670231 
L 254.389409 239.193928 
L 255.120664 272.952459 
L 255.486291 283.5879 
L 255.851918 289.352815 
L 256.217545 289.917533 
L 256.583173 285.147487 
L 256.9488 275.126127 
L 257.680055 240.826693 
L 258.776936 165.108376 
L 259.873818 86.368849 
L 260.605073 47.300885 
L 260.9707 34.400701 
L 261.336327 26.600014 
L 261.701955 24.114149 
L 262.067582 26.931007 
L 262.433209 34.829417 
L 262.798836 47.404665 
L 263.530091 84.225228 
L 264.626973 157.108626 
L 265.723855 230.02722 
L 266.455109 266.907231 
L 267.186364 290.329091 
L 282.542709 290.329091 
L 282.908336 24.124466 
L 283.273964 27.131843 
L 283.639591 35.209048 
L 284.005218 47.945238 
L 284.736473 85.014899 
L 285.833355 158.045058 
L 286.198982 290.329091 
L 404.662218 290.329091 
L 405.027845 24.879451 
L 405.393473 30.295723 
L 405.7591 40.610857 
L 406.490355 73.853722 
L 407.587236 144.391219 
L 409.049745 240.560755 
L 409.781 273.813176 
L 410.146627 284.134219 
L 410.512255 289.556942 
L 410.877882 289.763974 
L 411.243509 284.634797 
L 411.609136 274.268196 
L 412.340391 239.383087 
L 413.437273 163.251987 
L 414.534155 84.810536 
L 415.265409 46.278931 
L 415.631036 33.710946 
L 415.996664 26.264344 
L 416.362291 24.138746 
L 416.727918 27.307276 
L 417.093545 35.535535 
L 417.459173 48.407464 
L 418.190427 85.686611 
L 419.652936 184.318228 
L 420.749818 251.424605 
L 421.481073 280.208385 
L 421.8467 287.817925 
L 422.212327 290.327579 
L 422.577955 287.5278 
L 422.943582 279.419418 
L 423.309209 266.231508 
L 424.040464 226.70207 
L 425.502973 120.621202 
L 426.234227 72.369039 
L 426.965482 38.584786 
L 427.331109 28.865376 
L 427.696736 24.408511 
L 428.062364 25.284341 
L 428.427991 31.346139 
L 428.793618 42.25364 
L 429.524873 76.447969 
L 430.621755 147.649346 
L 431.718636 221.879826 
L 431.718636 221.879826 
" clip-path="url(#p0f391f7e8e)" style="fill: none; stroke: #2ca02c; stroke-width: 1.5; stroke-linecap: square"/>
   </g>
   <g id="patch_3">
    <path d="M 47.81 303.64 
L 47.81 10.8 
" style="fill: none; stroke: #000000; stroke-width: 0.8; stroke-linejoin: miter; stroke-linecap: square"/>
   </g>
   <g id="patch_4">
    <path d="M 450 303.64 
L 450 10.8 
" style="fill: none; stroke: #000000; stroke-width: 0.8; stroke-linejoin: miter; stroke-linecap: square"/>
   </g>
   <g id="patch_5">
    <path d="M 47.81 303.64 
L 450 303.64 
" style="fill: none; stroke: #000000; stroke-width: 0.8; stroke-linejoin: miter; stroke-linecap: square"/>
   </g>
   <g id="patch_6">
    <path d="M 47.81 10.8 
L 450 10.8 
" style="fill: none; stroke: #000000; stroke-width: 0.8; stroke-linejoin: miter; stroke-linecap: square"/>
   </g>
   <g id="legend_1">
    <g id="patch_7">
     <path d="M 54.81 181.37 
L 100.51 181.37 
Q 102.51 181.37 102.51 179.37 
L 102.51 135.07 
Q 102.51 133.07 100.51 133.07 
L 54.81 133.07 
Q 52.81 133.07 52.81 135.07 
L 52.81 179.37 
Q 52.81 181.37 54.81 181.37 
z
" style="fill: #ffffff; opacity: 0.8; stroke: #cccccc; stroke-linejoin: miter"/>
    </g>
    <g id="line2d_16">
     <path d="M 56.81 141.27 
L 66.81 141.27 
L 76.81 141.27 
" style="fill: none; stroke: #1f77b4; stroke-width: 1.5; stroke-linecap: square"/>
    </g>
    <g id="text_15">
     <!-- $|3\rangle$ -->
     <g transform="translate(84.81 144.77) scale(0.1 -0.1)">
      <defs>
       <path id="DejaVuSans-7c" d="M 1344 4891 
L 1344 -1509 
L 813 -1509 
L 813 4891 
L 1344 4891 
z
" transform="scale(0.015625)"/>
       <path id="DejaVuSans-33" d="M 2597 2516 
Q 3050 2419 3304 2112 
Q 3559 1806 3559 1356 
Q 3559 666 3084 287 
Q 2609 -91 1734 -91 
Q 1441 -91 1130 -33 
Q 819 25 488 141 
L 488 750 
Q 750 597 1062 519 
Q 1375 441 1716 441 
Q 2309 441 2620 675 
Q 2931 909 2931 1356 
Q 2931 1769 2642 2001 
Q 2353 2234 1838 2234 
L 1294 2234 
L 1294 2753 
L 1863 2753 
Q 2328 2753 2575 2939 
Q 2822 3125 2822 3475 
Q 2822 3834 2567 4026 
Q 2313 4219 1838 4219 
Q 1578 4219 1281 4162 
Q 984 4106 628 3988 
L 628 4550 
Q 988 4650 1302 4700 
Q 1616 4750 1894 4750 
Q 2613 4750 3031 4423 
Q 3450 4097 3450 3541 
Q 3450 3153 3228 2886 
Q 3006 2619 2597 2516 
z
" transform="scale(0.015625)"/>
       <path id="DejaVuSans-27e9" d="M 1925 2006 
L 1044 -844 
L 513 -844 
L 1394 2006 
L 513 4856 
L 1044 4856 
L 1925 2006 
z
" transform="scale(0.015625)"/>
      </defs>
      <use xlink:href="#DejaVuSans-7c" transform="translate(0 0.578125)"/>
      <use xlink:href="#DejaVuSans-33" transform="translate(33.691406 0.578125)"/>
      <use xlink:href="#DejaVuSans-27e9" transform="translate(97.314453 0.578125)"/>
     </g>
    </g>
    <g id="line2d_17">
     <path d="M 56.81 156.37 
L 66.81 156.37 
L 76.81 156.37 
" style="fill: none; stroke: #ff7f0e; stroke-width: 1.5; stroke-linecap: square"/>
    </g>
    <g id="text_16">
     <!-- $|2\rangle$ -->
     <g transform="translate(84.81 159.87) scale(0.1 -0.1)">
      <use xlink:href="#DejaVuSans-7c" transform="translate(0 0.578125)"/>
      <use xlink:href="#DejaVuSans-32" transform="translate(33.691406 0.578125)"/>
      <use xlink:href="#DejaVuSans-27e9" transform="translate(97.314453 0.578125)"/>
     </g>
    </g>
    <g id="line2d_18">
     <path d="M 56.81 171.47 
L 66.81 171.47 
L 76.81 171.47 
" style="fill: none; stroke: #2ca02c; stroke-width: 1.5; stroke-linecap: square"/>
    </g>
    <g id="text_17">
     <!-- $|1\rangle$ -->
     <g transform="translate(84.81 174.97) scale(0.1 -0.1)">
      <use xlink:href="#DejaVuSans-7c" transform="translate(0 0.578125)"/>
      <use xlink:href="#DejaVuSans-31" transform="translate(33.691406 0.578125)"/>
      <use xlink:href="#DejaVuSans-27e9" transform="translate(97.314453 0.578125)"/>
     </g>
    </g>
   </g>
  </g>
 </g>
 <defs>
  <clipPath id="p0f391f7e8e">
   <rect x="47.81" y="10.8" width="402.19" height="292.84"/>
  </clipPath>
 </defs>
</svg>
