<?xml version="1.0" encoding="utf-8" standalone="no"?>
<!DOCTYPE svg PUBLIC "-//W3C//DTD SVG 1.1//EN"
  "http://www.w3.org/Graphics/SVG/1.1/DTD/svg11.dtd">
<svg xmlns:xlink="http://www.w3.org/1999/xlink" width="460.8pt" height="345.6pt" viewBox="0 0 460.8 345.6" xmlns="http://www.w3.org/2000/svg" version="1.1">
 <metadata>
  <rdf:RDF xmlns:dc="http://purl.org/dc/elements/1.1/" xmlns:cc="http://creativecommons.org/ns#" xmlns:rdf="http://www.w3.org/1999/02/22-rdf-syntax-ns#">
   <cc:Work>
    <dc:type rdf:resource="http://purl.org/dc/dcmitype/StillImage"/>
    <dc:date>2023-08-10T12:16:07.844265</dc:date>
    <dc:format>image/svg+xml</dc:format>
    <dc:creator>
     <cc:Agent>
      <dc:title>Matplotlib v3.7.2, https://matplotlib.org/</dc:title>
     </cc:Agent>
    </dc:creator>
   </cc:Work>
  </rdf:RDF>
 </metadata>
 <defs>
  <style type="text/css">*{stroke-linejoin: round; stroke-linecap: butt}</style>
 </defs>
 <g id="figure_1">
  <g id="patch_1">
   <path d="M 0 345.6 
L 460.8 345.6 
L 460.8 0 
L 0 0 
z
" style="fill: #ffffff"/>
  </g>
  <g id="axes_1">
   <g id="patch_2">
    <path d="M 47.81 303.64 
L 450 303.64 
L 450 10.8 
L 47.81 10.8 
z
" style="fill: #ffffff"/>
   </g>
   <g id="matplotlib.axis_1">
    <g id="xtick_1">
     <g id="line2d_1">
      <defs>
       <path id="m26d1133ab3" d="M 0 0 
L 0 3.5 
" style="stroke: #000000; stroke-width: 0.8"/>
      </defs>
      <g>
       <use xlink:href="#m26d1133ab3" x="66.091364" y="303.64" style="stroke: #000000; stroke-width: 0.8"/>
      </g>
     </g>
     <g id="text_1">
      <!-- 0 -->
      <g transform="translate(62.910114 318.238437) scale(0.1 -0.1)">
       <defs>
        <path id="DejaVuSans-30" d="M 2034 4250 
Q 1547 4250 1301 3770 
Q 1056 3291 1056 2328 
Q 1056 1369 1301 889 
Q 1547 409 2034 409 
Q 2525 409 2770 889 
Q 3016 1369 3016 2328 
Q 3016 3291 2770 3770 
Q 2525 4250 2034 4250 
z
M 2034 4750 
Q 2819 4750 3233 4129 
Q 3647 3509 3647 2328 
Q 3647 1150 3233 529 
Q 2819 -91 2034 -91 
Q 1250 -91 836 529 
Q 422 1150 422 2328 
Q 422 3509 836 4129 
Q 1250 4750 2034 4750 
z
" transform="scale(0.015625)"/>
       </defs>
       <use xlink:href="#DejaVuSans-30"/>
      </g>
     </g>
    </g>
    <g id="xtick_2">
     <g id="line2d_2">
      <g>
       <use xlink:href="#m26d1133ab3" x="139.216818" y="303.64" style="stroke: #000000; stroke-width: 0.8"/>
      </g>
     </g>
     <g id="text_2">
      <!-- 10 -->
      <g transform="translate(132.854318 318.238437) scale(0.1 -0.1)">
       <defs>
        <path id="DejaVuSans-31" d="M 794 531 
L 1825 531 
L 1825 4091 
L 703 3866 
L 703 4441 
L 1819 4666 
L 2450 4666 
L 2450 531 
L 3481 531 
L 3481 0 
L 794 0 
L 794 531 
z
" transform="scale(0.015625)"/>
       </defs>
       <use xlink:href="#DejaVuSans-31"/>
       <use xlink:href="#DejaVuSans-30" x="63.623047"/>
      </g>
     </g>
    </g>
    <g id="xtick_3">
     <g id="line2d_3">
      <g>
       <use xlink:href="#m26d1133ab3" x="212.342273" y="303.64" style="stroke: #000000; stroke-width: 0.8"/>
      </g>
     </g>
     <g id="text_3">
      <!-- 20 -->
      <g transform="translate(205.979773 318.238437) scale(0.1 -0.1)">
       <defs>
        <path id="DejaVuSans-32" d="M 1228 531 
L 3431 531 
L 3431 0 
L 469 0 
L 469 531 
Q 828 903 1448 1529 
Q 2069 2156 2228 2338 
Q 2531 2678 2651 2914 
Q 2772 3150 2772 3378 
Q 2772 3750 2511 3984 
Q 2250 4219 1831 4219 
Q 1534 4219 1204 4116 
Q 875 4013 500 3803 
L 500 4441 
Q 881 4594 1212 4672 
Q 1544 4750 1819 4750 
Q 2544 4750 2975 4387 
Q 3406 4025 3406 3419 
Q 3406 3131 3298 2873 
Q 3191 2616 2906 2266 
Q 2828 2175 2409 1742 
Q 1991 1309 1228 531 
z
" transform="scale(0.015625)"/>
       </defs>
       <use xlink:href="#DejaVuSans-32"/>
       <use xlink:href="#DejaVuSans-30" x="63.623047"/>
      </g>
     </g>
    </g>
    <g id="xtick_4">
     <g id="line2d_4">
      <g>
       <use xlink:href="#m26d1133ab3" x="285.467727" y="303.64" style="stroke: #000000; stroke-width: 0.8"/>
      </g>
     </g>
     <g id="text_4">
      <!-- 30 -->
      <g transform="translate(279.105227 318.238437) scale(0.1 -0.1)">
       <defs>
        <path id="DejaVuSans-33" d="M 2597 2516 
Q 3050 2419 3304 2112 
Q 3559 1806 3559 1356 
Q 3559 666 3084 287 
Q 2609 -91 1734 -91 
Q 1441 -91 1130 -33 
Q 819 25 488 141 
L 488 750 
Q 750 597 1062 519 
Q 1375 441 1716 441 
Q 2309 441 2620 675 
Q 2931 909 2931 1356 
Q 2931 1769 2642 2001 
Q 2353 2234 1838 2234 
L 1294 2234 
L 1294 2753 
L 1863 2753 
Q 2328 2753 2575 2939 
Q 2822 3125 2822 3475 
Q 2822 3834 2567 4026 
Q 2313 4219 1838 4219 
Q 1578 4219 1281 4162 
Q 984 4106 628 3988 
L 628 4550 
Q 988 4650 1302 4700 
Q 1616 4750 1894 4750 
Q 2613 4750 3031 4423 
Q 3450 4097 3450 3541 
Q 3450 3153 3228 2886 
Q 3006 2619 2597 2516 
z
" transform="scale(0.015625)"/>
       </defs>
       <use xlink:href="#DejaVuSans-33"/>
       <use xlink:href="#DejaVuSans-30" x="63.623047"/>
      </g>
     </g>
    </g>
    <g id="xtick_5">
     <g id="line2d_5">
      <g>
       <use xlink:href="#m26d1133ab3" x="358.593182" y="303.64" style="stroke: #000000; stroke-width: 0.8"/>
      </g>
     </g>
     <g id="text_5">
      <!-- 40 -->
      <g transform="translate(352.230682 318.238437) scale(0.1 -0.1)">
       <defs>
        <path id="DejaVuSans-34" d="M 2419 4116 
L 825 1625 
L 2419 1625 
L 2419 4116 
z
M 2253 4666 
L 3047 4666 
L 3047 1625 
L 3713 1625 
L 3713 1100 
L 3047 1100 
L 3047 0 
L 2419 0 
L 2419 1100 
L 313 1100 
L 313 1709 
L 2253 4666 
z
" transform="scale(0.015625)"/>
       </defs>
       <use xlink:href="#DejaVuSans-34"/>
       <use xlink:href="#DejaVuSans-30" x="63.623047"/>
      </g>
     </g>
    </g>
    <g id="xtick_6">
     <g id="line2d_6">
      <g>
       <use xlink:href="#m26d1133ab3" x="431.718636" y="303.64" style="stroke: #000000; stroke-width: 0.8"/>
      </g>
     </g>
     <g id="text_6">
      <!-- 50 -->
      <g transform="translate(425.356136 318.238437) scale(0.1 -0.1)">
       <defs>
        <path id="DejaVuSans-35" d="M 691 4666 
L 3169 4666 
L 3169 4134 
L 1269 4134 
L 1269 2991 
Q 1406 3038 1543 3061 
Q 1681 3084 1819 3084 
Q 2600 3084 3056 2656 
Q 3513 2228 3513 1497 
Q 3513 744 3044 326 
Q 2575 -91 1722 -91 
Q 1428 -91 1123 -41 
Q 819 9 494 109 
L 494 744 
Q 775 591 1075 516 
Q 1375 441 1709 441 
Q 2250 441 2565 725 
Q 2881 1009 2881 1497 
Q 2881 1984 2565 2268 
Q 2250 2553 1709 2553 
Q 1456 2553 1204 2497 
Q 953 2441 691 2322 
L 691 4666 
z
" transform="scale(0.015625)"/>
       </defs>
       <use xlink:href="#DejaVuSans-35"/>
       <use xlink:href="#DejaVuSans-30" x="63.623047"/>
      </g>
     </g>
    </g>
    <g id="text_7">
     <!-- Time -->
     <g transform="translate(236.671406 331.916562) scale(0.1 -0.1)">
      <defs>
       <path id="DejaVuSans-54" d="M -19 4666 
L 3928 4666 
L 3928 4134 
L 2272 4134 
L 2272 0 
L 1638 0 
L 1638 4134 
L -19 4134 
L -19 4666 
z
" transform="scale(0.015625)"/>
       <path id="DejaVuSans-69" d="M 603 3500 
L 1178 3500 
L 1178 0 
L 603 0 
L 603 3500 
z
M 603 4863 
L 1178 4863 
L 1178 4134 
L 603 4134 
L 603 4863 
z
" transform="scale(0.015625)"/>
       <path id="DejaVuSans-6d" d="M 3328 2828 
Q 3544 3216 3844 3400 
Q 4144 3584 4550 3584 
Q 5097 3584 5394 3201 
Q 5691 2819 5691 2113 
L 5691 0 
L 5113 0 
L 5113 2094 
Q 5113 2597 4934 2840 
Q 4756 3084 4391 3084 
Q 3944 3084 3684 2787 
Q 3425 2491 3425 1978 
L 3425 0 
L 2847 0 
L 2847 2094 
Q 2847 2600 2669 2842 
Q 2491 3084 2119 3084 
Q 1678 3084 1418 2786 
Q 1159 2488 1159 1978 
L 1159 0 
L 581 0 
L 581 3500 
L 1159 3500 
L 1159 2956 
Q 1356 3278 1631 3431 
Q 1906 3584 2284 3584 
Q 2666 3584 2933 3390 
Q 3200 3197 3328 2828 
z
" transform="scale(0.015625)"/>
       <path id="DejaVuSans-65" d="M 3597 1894 
L 3597 1613 
L 953 1613 
Q 991 1019 1311 708 
Q 1631 397 2203 397 
Q 2534 397 2845 478 
Q 3156 559 3463 722 
L 3463 178 
Q 3153 47 2828 -22 
Q 2503 -91 2169 -91 
Q 1331 -91 842 396 
Q 353 884 353 1716 
Q 353 2575 817 3079 
Q 1281 3584 2069 3584 
Q 2775 3584 3186 3129 
Q 3597 2675 3597 1894 
z
M 3022 2063 
Q 3016 2534 2758 2815 
Q 2500 3097 2075 3097 
Q 1594 3097 1305 2825 
Q 1016 2553 972 2059 
L 3022 2063 
z
" transform="scale(0.015625)"/>
      </defs>
      <use xlink:href="#DejaVuSans-54"/>
      <use xlink:href="#DejaVuSans-69" x="57.958984"/>
      <use xlink:href="#DejaVuSans-6d" x="85.742188"/>
      <use xlink:href="#DejaVuSans-65" x="183.154297"/>
     </g>
    </g>
   </g>
   <g id="matplotlib.axis_2">
    <g id="ytick_1">
     <g id="line2d_7">
      <defs>
       <path id="m55f37d3713" d="M 0 0 
L -3.5 0 
" style="stroke: #000000; stroke-width: 0.8"/>
      </defs>
      <g>
       <use xlink:href="#m55f37d3713" x="47.81" y="290.329091" style="stroke: #000000; stroke-width: 0.8"/>
      </g>
     </g>
     <g id="text_8">
      <!-- 0.0 -->
      <g transform="translate(24.906875 294.12831) scale(0.1 -0.1)">
       <defs>
        <path id="DejaVuSans-2e" d="M 684 794 
L 1344 794 
L 1344 0 
L 684 0 
L 684 794 
z
" transform="scale(0.015625)"/>
       </defs>
       <use xlink:href="#DejaVuSans-30"/>
       <use xlink:href="#DejaVuSans-2e" x="63.623047"/>
       <use xlink:href="#DejaVuSans-30" x="95.410156"/>
      </g>
     </g>
    </g>
    <g id="ytick_2">
     <g id="line2d_8">
      <g>
       <use xlink:href="#m55f37d3713" x="47.81" y="236.162213" style="stroke: #000000; stroke-width: 0.8"/>
      </g>
     </g>
     <g id="text_9">
      <!-- 0.2 -->
      <g transform="translate(24.906875 239.961431) scale(0.1 -0.1)">
       <use xlink:href="#DejaVuSans-30"/>
       <use xlink:href="#DejaVuSans-2e" x="63.623047"/>
       <use xlink:href="#DejaVuSans-32" x="95.410156"/>
      </g>
     </g>
    </g>
    <g id="ytick_3">
     <g id="line2d_9">
      <g>
       <use xlink:href="#m55f37d3713" x="47.81" y="181.995335" style="stroke: #000000; stroke-width: 0.8"/>
      </g>
     </g>
     <g id="text_10">
      <!-- 0.4 -->
      <g transform="translate(24.906875 185.794553) scale(0.1 -0.1)">
       <use xlink:href="#DejaVuSans-30"/>
       <use xlink:href="#DejaVuSans-2e" x="63.623047"/>
       <use xlink:href="#DejaVuSans-34" x="95.410156"/>
      </g>
     </g>
    </g>
    <g id="ytick_4">
     <g id="line2d_10">
      <g>
       <use xlink:href="#m55f37d3713" x="47.81" y="127.828456" style="stroke: #000000; stroke-width: 0.8"/>
      </g>
     </g>
     <g id="text_11">
      <!-- 0.6 -->
      <g transform="translate(24.906875 131.627675) scale(0.1 -0.1)">
       <defs>
        <path id="DejaVuSans-36" d="M 2113 2584 
Q 1688 2584 1439 2293 
Q 1191 2003 1191 1497 
Q 1191 994 1439 701 
Q 1688 409 2113 409 
Q 2538 409 2786 701 
Q 3034 994 3034 1497 
Q 3034 2003 2786 2293 
Q 2538 2584 2113 2584 
z
M 3366 4563 
L 3366 3988 
Q 3128 4100 2886 4159 
Q 2644 4219 2406 4219 
Q 1781 4219 1451 3797 
Q 1122 3375 1075 2522 
Q 1259 2794 1537 2939 
Q 1816 3084 2150 3084 
Q 2853 3084 3261 2657 
Q 3669 2231 3669 1497 
Q 3669 778 3244 343 
Q 2819 -91 2113 -91 
Q 1303 -91 875 529 
Q 447 1150 447 2328 
Q 447 3434 972 4092 
Q 1497 4750 2381 4750 
Q 2619 4750 2861 4703 
Q 3103 4656 3366 4563 
z
" transform="scale(0.015625)"/>
       </defs>
       <use xlink:href="#DejaVuSans-30"/>
       <use xlink:href="#DejaVuSans-2e" x="63.623047"/>
       <use xlink:href="#DejaVuSans-36" x="95.410156"/>
      </g>
     </g>
    </g>
    <g id="ytick_5">
     <g id="line2d_11">
      <g>
       <use xlink:href="#m55f37d3713" x="47.81" y="73.661578" style="stroke: #000000; stroke-width: 0.8"/>
      </g>
     </g>
     <g id="text_12">
      <!-- 0.8 -->
      <g transform="translate(24.906875 77.460797) scale(0.1 -0.1)">
       <defs>
        <path id="DejaVuSans-38" d="M 2034 2216 
Q 1584 2216 1326 1975 
Q 1069 1734 1069 1313 
Q 1069 891 1326 650 
Q 1584 409 2034 409 
Q 2484 409 2743 651 
Q 3003 894 3003 1313 
Q 3003 1734 2745 1975 
Q 2488 2216 2034 2216 
z
M 1403 2484 
Q 997 2584 770 2862 
Q 544 3141 544 3541 
Q 544 4100 942 4425 
Q 1341 4750 2034 4750 
Q 2731 4750 3128 4425 
Q 3525 4100 3525 3541 
Q 3525 3141 3298 2862 
Q 3072 2584 2669 2484 
Q 3125 2378 3379 2068 
Q 3634 1759 3634 1313 
Q 3634 634 3220 271 
Q 2806 -91 2034 -91 
Q 1263 -91 848 271 
Q 434 634 434 1313 
Q 434 1759 690 2068 
Q 947 2378 1403 2484 
z
M 1172 3481 
Q 1172 3119 1398 2916 
Q 1625 2713 2034 2713 
Q 2441 2713 2670 2916 
Q 2900 3119 2900 3481 
Q 2900 3844 2670 4047 
Q 2441 4250 2034 4250 
Q 1625 4250 1398 4047 
Q 1172 3844 1172 3481 
z
" transform="scale(0.015625)"/>
       </defs>
       <use xlink:href="#DejaVuSans-30"/>
       <use xlink:href="#DejaVuSans-2e" x="63.623047"/>
       <use xlink:href="#DejaVuSans-38" x="95.410156"/>
      </g>
     </g>
    </g>
    <g id="ytick_6">
     <g id="line2d_12">
      <g>
       <use xlink:href="#m55f37d3713" x="47.81" y="19.4947" style="stroke: #000000; stroke-width: 0.8"/>
      </g>
     </g>
     <g id="text_13">
      <!-- 1.0 -->
      <g transform="translate(24.906875 23.293919) scale(0.1 -0.1)">
       <use xlink:href="#DejaVuSans-31"/>
       <use xlink:href="#DejaVuSans-2e" x="63.623047"/>
       <use xlink:href="#DejaVuSans-30" x="95.410156"/>
      </g>
     </g>
    </g>
    <g id="text_14">
     <!-- Spin excitation -->
     <g transform="translate(18.827188 194.316094) rotate(-90) scale(0.1 -0.1)">
      <defs>
       <path id="DejaVuSans-53" d="M 3425 4513 
L 3425 3897 
Q 3066 4069 2747 4153 
Q 2428 4238 2131 4238 
Q 1616 4238 1336 4038 
Q 1056 3838 1056 3469 
Q 1056 3159 1242 3001 
Q 1428 2844 1947 2747 
L 2328 2669 
Q 3034 2534 3370 2195 
Q 3706 1856 3706 1288 
Q 3706 609 3251 259 
Q 2797 -91 1919 -91 
Q 1588 -91 1214 -16 
Q 841 59 441 206 
L 441 856 
Q 825 641 1194 531 
Q 1563 422 1919 422 
Q 2459 422 2753 634 
Q 3047 847 3047 1241 
Q 3047 1584 2836 1778 
Q 2625 1972 2144 2069 
L 1759 2144 
Q 1053 2284 737 2584 
Q 422 2884 422 3419 
Q 422 4038 858 4394 
Q 1294 4750 2059 4750 
Q 2388 4750 2728 4690 
Q 3069 4631 3425 4513 
z
" transform="scale(0.015625)"/>
       <path id="DejaVuSans-70" d="M 1159 525 
L 1159 -1331 
L 581 -1331 
L 581 3500 
L 1159 3500 
L 1159 2969 
Q 1341 3281 1617 3432 
Q 1894 3584 2278 3584 
Q 2916 3584 3314 3078 
Q 3713 2572 3713 1747 
Q 3713 922 3314 415 
Q 2916 -91 2278 -91 
Q 1894 -91 1617 61 
Q 1341 213 1159 525 
z
M 3116 1747 
Q 3116 2381 2855 2742 
Q 2594 3103 2138 3103 
Q 1681 3103 1420 2742 
Q 1159 2381 1159 1747 
Q 1159 1113 1420 752 
Q 1681 391 2138 391 
Q 2594 391 2855 752 
Q 3116 1113 3116 1747 
z
" transform="scale(0.015625)"/>
       <path id="DejaVuSans-6e" d="M 3513 2113 
L 3513 0 
L 2938 0 
L 2938 2094 
Q 2938 2591 2744 2837 
Q 2550 3084 2163 3084 
Q 1697 3084 1428 2787 
Q 1159 2491 1159 1978 
L 1159 0 
L 581 0 
L 581 3500 
L 1159 3500 
L 1159 2956 
Q 1366 3272 1645 3428 
Q 1925 3584 2291 3584 
Q 2894 3584 3203 3211 
Q 3513 2838 3513 2113 
z
" transform="scale(0.015625)"/>
       <path id="DejaVuSans-20" transform="scale(0.015625)"/>
       <path id="DejaVuSans-78" d="M 3513 3500 
L 2247 1797 
L 3578 0 
L 2900 0 
L 1881 1375 
L 863 0 
L 184 0 
L 1544 1831 
L 300 3500 
L 978 3500 
L 1906 2253 
L 2834 3500 
L 3513 3500 
z
" transform="scale(0.015625)"/>
       <path id="DejaVuSans-63" d="M 3122 3366 
L 3122 2828 
Q 2878 2963 2633 3030 
Q 2388 3097 2138 3097 
Q 1578 3097 1268 2742 
Q 959 2388 959 1747 
Q 959 1106 1268 751 
Q 1578 397 2138 397 
Q 2388 397 2633 464 
Q 2878 531 3122 666 
L 3122 134 
Q 2881 22 2623 -34 
Q 2366 -91 2075 -91 
Q 1284 -91 818 406 
Q 353 903 353 1747 
Q 353 2603 823 3093 
Q 1294 3584 2113 3584 
Q 2378 3584 2631 3529 
Q 2884 3475 3122 3366 
z
" transform="scale(0.015625)"/>
       <path id="DejaVuSans-74" d="M 1172 4494 
L 1172 3500 
L 2356 3500 
L 2356 3053 
L 1172 3053 
L 1172 1153 
Q 1172 725 1289 603 
Q 1406 481 1766 481 
L 2356 481 
L 2356 0 
L 1766 0 
Q 1100 0 847 248 
Q 594 497 594 1153 
L 594 3053 
L 172 3053 
L 172 3500 
L 594 3500 
L 594 4494 
L 1172 4494 
z
" transform="scale(0.015625)"/>
       <path id="DejaVuSans-61" d="M 2194 1759 
Q 1497 1759 1228 1600 
Q 959 1441 959 1056 
Q 959 750 1161 570 
Q 1363 391 1709 391 
Q 2188 391 2477 730 
Q 2766 1069 2766 1631 
L 2766 1759 
L 2194 1759 
z
M 3341 1997 
L 3341 0 
L 2766 0 
L 2766 531 
Q 2569 213 2275 61 
Q 1981 -91 1556 -91 
Q 1019 -91 701 211 
Q 384 513 384 1019 
Q 384 1609 779 1909 
Q 1175 2209 1959 2209 
L 2766 2209 
L 2766 2266 
Q 2766 2663 2505 2880 
Q 2244 3097 1772 3097 
Q 1472 3097 1187 3025 
Q 903 2953 641 2809 
L 641 3341 
Q 956 3463 1253 3523 
Q 1550 3584 1831 3584 
Q 2591 3584 2966 3190 
Q 3341 2797 3341 1997 
z
" transform="scale(0.015625)"/>
       <path id="DejaVuSans-6f" d="M 1959 3097 
Q 1497 3097 1228 2736 
Q 959 2375 959 1747 
Q 959 1119 1226 758 
Q 1494 397 1959 397 
Q 2419 397 2687 759 
Q 2956 1122 2956 1747 
Q 2956 2369 2687 2733 
Q 2419 3097 1959 3097 
z
M 1959 3584 
Q 2709 3584 3137 3096 
Q 3566 2609 3566 1747 
Q 3566 888 3137 398 
Q 2709 -91 1959 -91 
Q 1206 -91 779 398 
Q 353 888 353 1747 
Q 353 2609 779 3096 
Q 1206 3584 1959 3584 
z
" transform="scale(0.015625)"/>
      </defs>
      <use xlink:href="#DejaVuSans-53"/>
      <use xlink:href="#DejaVuSans-70" x="63.476562"/>
      <use xlink:href="#DejaVuSans-69" x="126.953125"/>
      <use xlink:href="#DejaVuSans-6e" x="154.736328"/>
      <use xlink:href="#DejaVuSans-20" x="218.115234"/>
      <use xlink:href="#DejaVuSans-65" x="249.902344"/>
      <use xlink:href="#DejaVuSans-78" x="309.675781"/>
      <use xlink:href="#DejaVuSans-63" x="367.105469"/>
      <use xlink:href="#DejaVuSans-69" x="422.085938"/>
      <use xlink:href="#DejaVuSans-74" x="449.869141"/>
      <use xlink:href="#DejaVuSans-61" x="489.078125"/>
      <use xlink:href="#DejaVuSans-74" x="550.357422"/>
      <use xlink:href="#DejaVuSans-69" x="589.566406"/>
      <use xlink:href="#DejaVuSans-6f" x="617.349609"/>
      <use xlink:href="#DejaVuSans-6e" x="678.53125"/>
     </g>
    </g>
   </g>
   <g id="line2d_13">
    <path d="M 66.091364 290.329091 
L 66.164489 289.355289 
L 66.31074 281.651016 
L 66.603242 245.370444 
L 67.188245 125.312005 
L 67.700124 39.629312 
L 67.9195 25.215963 
L 67.992625 24.110909 
L 68.065751 24.889754 
L 68.212002 31.986733 
L 68.504504 66.079261 
L 69.089507 178.566737 
L 69.601385 258.187716 
L 69.820762 271.680598 
L 69.893887 272.807487 
L 69.967013 272.229404 
L 70.113264 266.087083 
L 70.405765 236.066105 
L 70.990769 137.480945 
L 71.502647 68.437083 
L 71.722024 56.73082 
L 71.795149 55.704054 
L 71.868275 56.121193 
L 72.014525 61.153212 
L 72.233902 78.179234 
L 72.672655 135.019503 
L 73.330784 217.353574 
L 73.623285 232.082009 
L 73.696411 232.912316 
L 73.769536 232.598384 
L 73.915787 228.665742 
L 74.208289 209.311471 
L 75.524547 98.146551 
L 75.597673 97.557778 
L 75.670798 97.817588 
L 75.817049 100.769937 
L 76.109551 115.013308 
L 77.352684 193.082281 
L 77.498935 194.397186 
L 77.57206 194.16483 
L 77.718311 192.026425 
L 78.010813 182.10631 
L 79.18082 131.138282 
L 79.400196 129.435251 
L 79.473322 129.645213 
L 79.619573 131.141008 
L 79.912075 137.68957 
L 81.082082 169.453038 
L 81.301458 170.334088 
L 81.447709 169.751766 
L 81.667085 167.388369 
L 82.105838 159.350356 
L 82.690842 149.032274 
L 82.983344 146.528398 
L 83.129595 146.136274 
L 83.20272 146.149339 
L 83.348971 146.562264 
L 83.641473 148.660023 
L 84.81148 159.279164 
L 85.030856 159.624751 
L 85.177107 159.482604 
L 85.396484 158.801291 
L 85.835236 156.420559 
L 86.42024 153.384232 
L 86.712742 152.652581 
L 86.932118 152.533672 
L 87.151495 152.743359 
L 87.517122 153.601675 
L 88.321502 155.706497 
L 88.614004 156.017238 
L 88.906505 156.013467 
L 89.272133 155.673567 
L 90.295889 154.477684 
L 90.661516 154.400049 
L 91.100269 154.557171 
L 92.270276 155.122649 
L 92.85528 155.084836 
L 94.46404 154.827429 
L 97.754685 154.900819 
L 114.646665 154.913683 
L 251.683767 155.034339 
L 252.853775 154.989027 
L 255.266915 154.767406 
L 256.510047 155.037206 
L 257.533804 155.17618 
L 258.338184 155.048522 
L 260.312571 154.56386 
L 260.9707 154.726197 
L 262.871962 155.417667 
L 263.456965 155.258438 
L 264.261345 154.742717 
L 265.065725 154.287263 
L 265.577604 154.252315 
L 266.089482 154.481091 
L 266.820736 155.13188 
L 267.625116 155.766014 
L 268.063869 155.835961 
L 268.502622 155.636884 
L 269.0145 155.109633 
L 270.184507 153.781597 
L 270.550135 153.690613 
L 270.915762 153.854355 
L 271.354515 154.365958 
L 272.890149 156.521814 
L 273.182651 156.50246 
L 273.475153 156.260902 
L 273.913905 155.53093 
L 275.230164 152.925111 
L 275.522665 152.811727 
L 275.815167 152.991063 
L 276.180795 153.613557 
L 276.765798 155.245638 
L 277.497053 157.204811 
L 277.86268 157.618169 
L 278.082056 157.591443 
L 278.301433 157.345569 
L 278.66706 156.48292 
L 279.252064 154.326998 
L 279.910193 152.057638 
L 280.27582 151.494554 
L 280.495196 151.511625 
L 280.714573 151.813034 
L 281.007075 152.633135 
L 281.518953 154.911915 
L 282.323333 158.542999 
L 282.615835 159.171893 
L 282.835211 159.250559 
L 283.054587 158.965334 
L 283.347089 158.037192 
L 283.785842 155.715756 
L 284.736473 150.289614 
L 285.028975 149.580093 
L 285.175225 149.513244 
L 285.321476 149.651612 
L 285.540853 150.243146 
L 285.90648 152.150712 
L 287.368989 161.479768 
L 287.51524 161.585438 
L 287.661491 161.433755 
L 287.880867 160.723781 
L 288.246495 158.381014 
L 289.709004 146.900822 
L 289.855255 146.792605 
L 290.001505 147.004875 
L 290.220882 147.920885 
L 290.586509 150.868757 
L 291.975893 164.500347 
L 292.122144 164.739247 
L 292.268395 164.586308 
L 292.487771 163.61839 
L 292.780273 161.055431 
L 293.292151 154.186513 
L 294.023405 144.889604 
L 294.315907 143.302047 
L 294.462158 143.188757 
L 294.608409 143.556719 
L 294.827785 144.997867 
L 295.193413 149.475635 
L 296.509671 168.417479 
L 296.729047 168.817601 
L 296.875298 168.361895 
L 297.094675 166.60889 
L 297.460302 161.208006 
L 298.703435 139.401084 
L 298.922811 138.579744 
L 298.995936 138.646975 
L 299.142187 139.302795 
L 299.361564 141.552445 
L 299.727191 148.179536 
L 300.897198 172.692455 
L 301.116575 173.90465 
L 301.1897 173.908404 
L 301.335951 173.299042 
L 301.555327 170.876744 
L 301.920955 163.367724 
L 303.164087 133.836855 
L 303.383464 133.013121 
L 303.529715 133.659452 
L 303.749091 136.399202 
L 304.114718 145.044387 
L 305.357851 179.087026 
L 305.577227 179.949556 
L 305.723478 179.133608 
L 305.942855 175.861611 
L 306.308482 165.738142 
L 307.478489 128.116165 
L 307.697865 126.526445 
L 307.770991 126.63063 
L 307.917242 127.805691 
L 308.136618 131.900772 
L 308.502245 143.92388 
L 309.599127 184.550861 
L 309.818504 186.780457 
L 309.891629 186.804973 
L 310.03788 185.749449 
L 310.257256 181.481364 
L 310.622884 168.303682 
L 311.719765 122.156208 
L 311.939142 119.448343 
L 312.012267 119.35708 
L 312.158518 120.425062 
L 312.377895 125.072215 
L 312.743522 139.710692 
L 313.840404 191.231378 
L 314.05978 194.16925 
L 314.132905 194.235095 
L 314.279156 192.962807 
L 314.498533 187.647745 
L 314.86416 171.14725 
L 315.961042 114.606465 
L 316.180418 111.787399 
L 316.253544 111.872359 
L 316.399795 113.604133 
L 316.619171 119.956391 
L 316.984798 138.791199 
L 318.008555 197.813958 
L 318.227931 201.718268 
L 318.301056 201.898679 
L 318.447307 200.532109 
L 318.666684 194.286838 
L 319.032311 174.481047 
L 320.129193 107.101718 
L 320.348569 104.161584 
L 320.421695 104.429606 
L 320.567945 106.851944 
L 320.787322 114.972498 
L 321.152949 138.112016 
L 322.10358 203.638016 
L 322.322956 208.914284 
L 322.396082 209.345486 
L 322.469207 209.090515 
L 322.615458 206.528662 
L 322.834835 197.807559 
L 323.200462 172.859038 
L 324.151093 102.724381 
L 324.370469 97.340883 
L 324.443595 96.986636 
L 324.51672 97.374025 
L 324.662971 100.35903 
L 324.882347 110.059365 
L 325.3211 143.707166 
L 326.12548 207.875497 
L 326.417982 215.98626 
L 326.491107 216.087965 
L 326.637358 213.910628 
L 326.856735 204.928944 
L 327.222362 177.54361 
L 328.172993 97.576339 
L 328.392369 91.181175 
L 328.465495 90.689048 
L 328.53862 91.04219 
L 328.684871 94.268167 
L 328.904247 105.055037 
L 329.343 142.746221 
L 330.14738 213.617638 
L 330.366756 221.040996 
L 330.439882 221.795902 
L 330.513007 221.659343 
L 330.659258 218.718613 
L 330.878635 207.974892 
L 331.244262 176.68576 
L 332.121767 94.611281 
L 332.414269 85.751659 
L 332.487395 85.821462 
L 332.633645 88.759637 
L 332.853022 99.812969 
L 333.218649 132.269771 
L 334.096155 217.202316 
L 334.315531 225.250017 
L 334.388656 226.050355 
L 334.461782 225.876295 
L 334.608033 222.618031 
L 334.827409 210.852727 
L 335.193036 176.895577 
L 336.070542 90.322231 
L 336.289918 82.797047 
L 336.363044 82.252435 
L 336.436169 82.717291 
L 336.58242 86.643576 
L 336.801796 99.543254 
L 337.240549 143.75474 
L 337.971804 218.011871 
L 338.264305 228.452663 
L 338.337431 228.539368 
L 338.483682 225.61438 
L 338.703058 213.873594 
L 339.068685 178.87752 
L 339.946191 88.77705 
L 340.165567 81.128914 
L 340.238693 80.645617 
L 340.311818 81.221153 
L 340.458069 85.505231 
L 340.750571 105.479958 
L 341.262449 163.135453 
L 341.847453 220.186955 
L 342.066829 228.574103 
L 342.139955 229.284843 
L 342.21308 228.92221 
L 342.359331 225.010762 
L 342.578707 211.705106 
L 343.01746 165.776074 
L 343.675589 95.099178 
L 343.968091 81.695844 
L 344.041216 80.934234 
L 344.114342 81.25409 
L 344.260593 85.103899 
L 344.479969 98.369048 
L 344.918722 144.284252 
L 345.576851 214.523206 
L 345.869353 227.476069 
L 345.942478 228.110759 
L 346.015604 227.662437 
L 346.161855 223.560965 
L 346.381231 209.973247 
L 346.819984 163.879455 
L 347.478113 95.121074 
L 347.770615 83.332751 
L 347.84374 82.998034 
L 347.989991 85.547833 
L 348.209367 97.002026 
L 348.574995 131.919502 
L 349.379375 215.206036 
L 349.671876 225.138019 
L 349.745002 225.010723 
L 349.891253 221.591149 
L 350.110629 209.075525 
L 350.549382 165.035591 
L 351.207511 98.406468 
L 351.500013 86.983134 
L 351.573138 86.669295 
L 351.719389 89.167831 
L 351.938765 100.298812 
L 352.304393 133.996919 
L 353.108773 212.52061 
L 353.328149 220.264433 
L 353.401275 220.847954 
L 353.4744 220.408291 
L 353.620651 216.51189 
L 353.913153 197.870845 
L 354.571282 129.543163 
L 355.010035 96.651543 
L 355.229411 91.645083 
L 355.302536 91.947959 
L 355.448787 95.489741 
L 355.668164 107.574502 
L 356.106916 148.536636 
L 356.765045 207.12197 
L 356.984422 214.683142 
L 357.057547 215.333365 
L 357.130673 215.023874 
L 357.276924 211.573026 
L 357.4963 199.880968 
L 357.935053 160.481439 
L 358.520056 108.860271 
L 358.812558 98.039057 
L 358.885684 97.56026 
L 358.958809 98.002613 
L 359.10506 101.593911 
L 359.397562 118.418797 
L 360.640695 208.847192 
L 360.71382 209.044022 
L 360.860071 206.819344 
L 361.079447 197.364116 
L 361.445075 169.449407 
L 362.176329 111.632991 
L 362.395705 104.772949 
L 362.468831 104.110722 
L 362.541956 104.283745 
L 362.688207 107.094937 
L 362.907584 116.975553 
L 363.346336 150.520638 
L 363.93134 193.787198 
L 364.223842 202.199468 
L 364.296967 202.380127 
L 364.443218 200.396301 
L 364.662595 191.957454 
L 365.101347 161.307289 
L 365.759476 116.750234 
L 365.978853 111.208548 
L 366.051978 110.812345 
L 366.125104 111.156169 
L 366.271355 114.011988 
L 366.563856 127.379589 
L 367.733864 195.176541 
L 367.806989 195.669364 
L 367.880115 195.470592 
L 368.026365 193.040061 
L 368.245742 184.762605 
L 368.684495 157.265127 
L 369.269498 123.196151 
L 369.488875 117.964562 
L 369.562 117.47363 
L 369.635125 117.625282 
L 369.781376 119.818416 
L 370.000753 127.414059 
L 370.439505 152.761576 
L 371.024509 184.058468 
L 371.243885 188.772542 
L 371.317011 189.183255 
L 371.390136 189.0002 
L 371.536387 186.892182 
L 371.828889 176.5246 
L 372.998896 124.009984 
L 373.072022 123.738599 
L 373.145147 124.012521 
L 373.291398 126.151451 
L 373.5839 135.984984 
L 374.680782 182.452238 
L 374.827033 183.133925 
L 374.973284 181.836074 
L 375.19266 176.480474 
L 375.631413 157.533394 
L 376.216416 133.527594 
L 376.435793 129.839189 
L 376.508918 129.497839 
L 376.582044 129.611081 
L 376.728295 131.170142 
L 376.947671 136.521382 
L 377.459549 157.33067 
L 377.971427 174.93835 
L 378.190804 177.630053 
L 378.263929 177.713317 
L 378.41018 176.660625 
L 378.629556 172.280391 
L 379.068309 156.824499 
L 379.653313 137.562982 
L 379.872689 134.774693 
L 379.945815 134.574292 
L 380.01894 134.744375 
L 380.165191 136.16314 
L 380.457693 142.73914 
L 381.481449 172.142273 
L 381.6277 172.982955 
L 381.700825 172.90496 
L 381.847076 171.775489 
L 382.066453 167.891068 
L 382.578331 152.917616 
L 383.090209 140.635298 
L 383.309585 138.972462 
L 383.382711 139.008102 
L 383.528962 139.95038 
L 383.748338 143.329507 
L 384.260216 156.559346 
L 384.772095 167.472714 
L 384.991471 168.954746 
L 385.064596 168.924727 
L 385.210847 168.091385 
L 385.430224 165.09896 
L 385.942102 153.413909 
L 386.380855 144.731816 
L 386.600231 142.814436 
L 386.673356 142.631454 
L 386.746482 142.681612 
L 386.892733 143.462979 
L 387.185235 147.393325 
L 388.208991 165.205388 
L 388.355242 165.64707 
L 388.428367 165.56058 
L 388.574618 164.792992 
L 388.86712 161.21704 
L 389.890876 145.896653 
L 390.037127 145.621318 
L 390.183378 146.057099 
L 390.402755 147.920965 
L 390.841507 154.434096 
L 391.353385 161.499898 
L 391.645887 162.954183 
L 391.719013 162.931248 
L 391.865264 162.427675 
L 392.08464 160.649573 
L 392.596518 153.845348 
L 393.035271 149.004792 
L 393.254647 148.059942 
L 393.327773 148.013994 
L 393.474024 148.324378 
L 393.6934 149.706396 
L 394.132153 154.570775 
L 394.644031 159.808955 
L 394.863407 160.755772 
L 395.009658 160.808175 
L 395.155909 160.401779 
L 395.448411 158.419341 
L 396.399042 150.191749 
L 396.618418 149.885494 
L 396.764669 150.179704 
L 396.984045 151.284383 
L 397.495924 155.583381 
L 397.934676 158.621648 
L 398.154053 159.190293 
L 398.300304 159.139905 
L 398.51968 158.454139 
L 398.885307 156.124463 
L 399.543436 151.833705 
L 399.762813 151.328345 
L 399.909064 151.357441 
L 400.12844 151.923007 
L 400.494067 153.88544 
L 401.152196 157.523495 
L 401.371573 157.951919 
L 401.517824 157.926592 
L 401.7372 157.445788 
L 402.102827 155.782862 
L 402.760956 152.725019 
L 402.980333 152.376442 
L 403.126584 152.407344 
L 403.34596 152.826407 
L 403.711587 154.240898 
L 404.369716 156.785689 
L 404.589093 157.056981 
L 404.735344 157.015934 
L 404.95472 156.643947 
L 405.320347 155.440289 
L 405.905351 153.490568 
L 406.197853 153.155565 
L 406.417229 153.290446 
L 406.709731 153.908442 
L 407.660362 156.334152 
L 407.879738 156.369841 
L 408.099115 156.137886 
L 408.464742 155.325302 
L 409.122871 153.858449 
L 409.415373 153.710498 
L 409.634749 153.865527 
L 410.000376 154.50499 
L 410.731631 155.836229 
L 411.024133 155.916567 
L 411.316635 155.672357 
L 411.901638 154.683644 
L 412.340391 154.16363 
L 412.632893 154.140406 
L 412.925395 154.37551 
L 414.022276 155.577248 
L 414.314778 155.495872 
L 414.753531 155.05804 
L 415.41166 154.422283 
L 415.704162 154.38776 
L 416.069789 154.590468 
L 417.093545 155.370983 
L 417.459173 155.300948 
L 418.044176 154.877331 
L 418.556055 154.59783 
L 418.921682 154.611559 
L 419.506685 154.921073 
L 420.091689 155.178976 
L 420.530442 155.137744 
L 421.992951 154.722402 
L 423.674836 155.07609 
L 425.06422 154.80099 
L 426.892356 154.939887 
L 427.916113 154.838406 
L 430.183002 154.939672 
L 431.279884 154.872372 
L 431.718636 154.899983 
L 431.718636 154.899983 
" clip-path="url(#pff21490578)" style="fill: none; stroke: #1f77b4; stroke-width: 1.5; stroke-linecap: square"/>
   </g>
   <g id="patch_3">
    <path d="M 47.81 303.64 
L 47.81 10.8 
" style="fill: none; stroke: #000000; stroke-width: 0.8; stroke-linejoin: miter; stroke-linecap: square"/>
   </g>
   <g id="patch_4">
    <path d="M 450 303.64 
L 450 10.8 
" style="fill: none; stroke: #000000; stroke-width: 0.8; stroke-linejoin: miter; stroke-linecap: square"/>
   </g>
   <g id="patch_5">
    <path d="M 47.81 303.64 
L 450 303.64 
" style="fill: none; stroke: #000000; stroke-width: 0.8; stroke-linejoin: miter; stroke-linecap: square"/>
   </g>
   <g id="patch_6">
    <path d="M 47.81 10.8 
L 450 10.8 
" style="fill: none; stroke: #000000; stroke-width: 0.8; stroke-linejoin: miter; stroke-linecap: square"/>
   </g>
  </g>
 </g>
 <defs>
  <clipPath id="pff21490578">
   <rect x="47.81" y="10.8" width="402.19" height="292.84"/>
  </clipPath>
 </defs>
</svg>
