<?xml version="1.0" encoding="utf-8" standalone="no"?>
<!DOCTYPE svg PUBLIC "-//W3C//DTD SVG 1.1//EN"
  "http://www.w3.org/Graphics/SVG/1.1/DTD/svg11.dtd">
<svg xmlns:xlink="http://www.w3.org/1999/xlink" width="720pt" height="360pt" viewBox="0 0 720 360" xmlns="http://www.w3.org/2000/svg" version="1.1">
 <metadata>
  <rdf:RDF xmlns:dc="http://purl.org/dc/elements/1.1/" xmlns:cc="http://creativecommons.org/ns#" xmlns:rdf="http://www.w3.org/1999/02/22-rdf-syntax-ns#">
   <cc:Work>
    <dc:type rdf:resource="http://purl.org/dc/dcmitype/StillImage"/>
    <dc:date>2023-08-10T13:50:09.955568</dc:date>
    <dc:format>image/svg+xml</dc:format>
    <dc:creator>
     <cc:Agent>
      <dc:title>Matplotlib v3.7.2, https://matplotlib.org/</dc:title>
     </cc:Agent>
    </dc:creator>
   </cc:Work>
  </rdf:RDF>
 </metadata>
 <defs>
  <style type="text/css">*{stroke-linejoin: round; stroke-linecap: butt}</style>
 </defs>
 <g id="figure_1">
  <g id="patch_1">
   <path d="M 0 360 
L 720 360 
L 720 0 
L 0 0 
z
" style="fill: #ffffff"/>
  </g>
  <g id="axes_1">
   <g id="patch_2">
    <path d="M 54.2 142.177685 
L 353.16 142.177685 
L 353.16 11.348521 
L 54.2 11.348521 
z
" style="fill: #ffffff"/>
   </g>
   <g id="matplotlib.axis_1">
    <g id="xtick_1">
     <g id="line2d_1">
      <defs>
       <path id="m3da328c463" d="M 0 0 
L 0 3.5 
" style="stroke: #000000; stroke-width: 0.8"/>
      </defs>
      <g>
       <use xlink:href="#m3da328c463" x="67.789091" y="142.177685" style="stroke: #000000; stroke-width: 0.8"/>
      </g>
     </g>
     <g id="text_1">
      <!-- 0 -->
      <g transform="translate(64.607841 156.776123) scale(0.1 -0.1)">
       <defs>
        <path id="DejaVuSans-30" d="M 2034 4250 
Q 1547 4250 1301 3770 
Q 1056 3291 1056 2328 
Q 1056 1369 1301 889 
Q 1547 409 2034 409 
Q 2525 409 2770 889 
Q 3016 1369 3016 2328 
Q 3016 3291 2770 3770 
Q 2525 4250 2034 4250 
z
M 2034 4750 
Q 2819 4750 3233 4129 
Q 3647 3509 3647 2328 
Q 3647 1150 3233 529 
Q 2819 -91 2034 -91 
Q 1250 -91 836 529 
Q 422 1150 422 2328 
Q 422 3509 836 4129 
Q 1250 4750 2034 4750 
z
" transform="scale(0.015625)"/>
       </defs>
       <use xlink:href="#DejaVuSans-30"/>
      </g>
     </g>
    </g>
    <g id="xtick_2">
     <g id="line2d_2">
      <g>
       <use xlink:href="#m3da328c463" x="113.086061" y="142.177685" style="stroke: #000000; stroke-width: 0.8"/>
      </g>
     </g>
     <g id="text_2">
      <!-- 100 -->
      <g transform="translate(103.542311 156.776123) scale(0.1 -0.1)">
       <defs>
        <path id="DejaVuSans-31" d="M 794 531 
L 1825 531 
L 1825 4091 
L 703 3866 
L 703 4441 
L 1819 4666 
L 2450 4666 
L 2450 531 
L 3481 531 
L 3481 0 
L 794 0 
L 794 531 
z
" transform="scale(0.015625)"/>
       </defs>
       <use xlink:href="#DejaVuSans-31"/>
       <use xlink:href="#DejaVuSans-30" x="63.623047"/>
       <use xlink:href="#DejaVuSans-30" x="127.246094"/>
      </g>
     </g>
    </g>
    <g id="xtick_3">
     <g id="line2d_3">
      <g>
       <use xlink:href="#m3da328c463" x="158.38303" y="142.177685" style="stroke: #000000; stroke-width: 0.8"/>
      </g>
     </g>
     <g id="text_3">
      <!-- 200 -->
      <g transform="translate(148.83928 156.776123) scale(0.1 -0.1)">
       <defs>
        <path id="DejaVuSans-32" d="M 1228 531 
L 3431 531 
L 3431 0 
L 469 0 
L 469 531 
Q 828 903 1448 1529 
Q 2069 2156 2228 2338 
Q 2531 2678 2651 2914 
Q 2772 3150 2772 3378 
Q 2772 3750 2511 3984 
Q 2250 4219 1831 4219 
Q 1534 4219 1204 4116 
Q 875 4013 500 3803 
L 500 4441 
Q 881 4594 1212 4672 
Q 1544 4750 1819 4750 
Q 2544 4750 2975 4387 
Q 3406 4025 3406 3419 
Q 3406 3131 3298 2873 
Q 3191 2616 2906 2266 
Q 2828 2175 2409 1742 
Q 1991 1309 1228 531 
z
" transform="scale(0.015625)"/>
       </defs>
       <use xlink:href="#DejaVuSans-32"/>
       <use xlink:href="#DejaVuSans-30" x="63.623047"/>
       <use xlink:href="#DejaVuSans-30" x="127.246094"/>
      </g>
     </g>
    </g>
    <g id="xtick_4">
     <g id="line2d_4">
      <g>
       <use xlink:href="#m3da328c463" x="203.68" y="142.177685" style="stroke: #000000; stroke-width: 0.8"/>
      </g>
     </g>
     <g id="text_4">
      <!-- 300 -->
      <g transform="translate(194.13625 156.776123) scale(0.1 -0.1)">
       <defs>
        <path id="DejaVuSans-33" d="M 2597 2516 
Q 3050 2419 3304 2112 
Q 3559 1806 3559 1356 
Q 3559 666 3084 287 
Q 2609 -91 1734 -91 
Q 1441 -91 1130 -33 
Q 819 25 488 141 
L 488 750 
Q 750 597 1062 519 
Q 1375 441 1716 441 
Q 2309 441 2620 675 
Q 2931 909 2931 1356 
Q 2931 1769 2642 2001 
Q 2353 2234 1838 2234 
L 1294 2234 
L 1294 2753 
L 1863 2753 
Q 2328 2753 2575 2939 
Q 2822 3125 2822 3475 
Q 2822 3834 2567 4026 
Q 2313 4219 1838 4219 
Q 1578 4219 1281 4162 
Q 984 4106 628 3988 
L 628 4550 
Q 988 4650 1302 4700 
Q 1616 4750 1894 4750 
Q 2613 4750 3031 4423 
Q 3450 4097 3450 3541 
Q 3450 3153 3228 2886 
Q 3006 2619 2597 2516 
z
" transform="scale(0.015625)"/>
       </defs>
       <use xlink:href="#DejaVuSans-33"/>
       <use xlink:href="#DejaVuSans-30" x="63.623047"/>
       <use xlink:href="#DejaVuSans-30" x="127.246094"/>
      </g>
     </g>
    </g>
    <g id="xtick_5">
     <g id="line2d_5">
      <g>
       <use xlink:href="#m3da328c463" x="248.97697" y="142.177685" style="stroke: #000000; stroke-width: 0.8"/>
      </g>
     </g>
     <g id="text_5">
      <!-- 400 -->
      <g transform="translate(239.43322 156.776123) scale(0.1 -0.1)">
       <defs>
        <path id="DejaVuSans-34" d="M 2419 4116 
L 825 1625 
L 2419 1625 
L 2419 4116 
z
M 2253 4666 
L 3047 4666 
L 3047 1625 
L 3713 1625 
L 3713 1100 
L 3047 1100 
L 3047 0 
L 2419 0 
L 2419 1100 
L 313 1100 
L 313 1709 
L 2253 4666 
z
" transform="scale(0.015625)"/>
       </defs>
       <use xlink:href="#DejaVuSans-34"/>
       <use xlink:href="#DejaVuSans-30" x="63.623047"/>
       <use xlink:href="#DejaVuSans-30" x="127.246094"/>
      </g>
     </g>
    </g>
    <g id="xtick_6">
     <g id="line2d_6">
      <g>
       <use xlink:href="#m3da328c463" x="294.273939" y="142.177685" style="stroke: #000000; stroke-width: 0.8"/>
      </g>
     </g>
     <g id="text_6">
      <!-- 500 -->
      <g transform="translate(284.730189 156.776123) scale(0.1 -0.1)">
       <defs>
        <path id="DejaVuSans-35" d="M 691 4666 
L 3169 4666 
L 3169 4134 
L 1269 4134 
L 1269 2991 
Q 1406 3038 1543 3061 
Q 1681 3084 1819 3084 
Q 2600 3084 3056 2656 
Q 3513 2228 3513 1497 
Q 3513 744 3044 326 
Q 2575 -91 1722 -91 
Q 1428 -91 1123 -41 
Q 819 9 494 109 
L 494 744 
Q 775 591 1075 516 
Q 1375 441 1709 441 
Q 2250 441 2565 725 
Q 2881 1009 2881 1497 
Q 2881 1984 2565 2268 
Q 2250 2553 1709 2553 
Q 1456 2553 1204 2497 
Q 953 2441 691 2322 
L 691 4666 
z
" transform="scale(0.015625)"/>
       </defs>
       <use xlink:href="#DejaVuSans-35"/>
       <use xlink:href="#DejaVuSans-30" x="63.623047"/>
       <use xlink:href="#DejaVuSans-30" x="127.246094"/>
      </g>
     </g>
    </g>
    <g id="xtick_7">
     <g id="line2d_7">
      <g>
       <use xlink:href="#m3da328c463" x="339.570909" y="142.177685" style="stroke: #000000; stroke-width: 0.8"/>
      </g>
     </g>
     <g id="text_7">
      <!-- 600 -->
      <g transform="translate(330.027159 156.776123) scale(0.1 -0.1)">
       <defs>
        <path id="DejaVuSans-36" d="M 2113 2584 
Q 1688 2584 1439 2293 
Q 1191 2003 1191 1497 
Q 1191 994 1439 701 
Q 1688 409 2113 409 
Q 2538 409 2786 701 
Q 3034 994 3034 1497 
Q 3034 2003 2786 2293 
Q 2538 2584 2113 2584 
z
M 3366 4563 
L 3366 3988 
Q 3128 4100 2886 4159 
Q 2644 4219 2406 4219 
Q 1781 4219 1451 3797 
Q 1122 3375 1075 2522 
Q 1259 2794 1537 2939 
Q 1816 3084 2150 3084 
Q 2853 3084 3261 2657 
Q 3669 2231 3669 1497 
Q 3669 778 3244 343 
Q 2819 -91 2113 -91 
Q 1303 -91 875 529 
Q 447 1150 447 2328 
Q 447 3434 972 4092 
Q 1497 4750 2381 4750 
Q 2619 4750 2861 4703 
Q 3103 4656 3366 4563 
z
" transform="scale(0.015625)"/>
       </defs>
       <use xlink:href="#DejaVuSans-36"/>
       <use xlink:href="#DejaVuSans-30" x="63.623047"/>
       <use xlink:href="#DejaVuSans-30" x="127.246094"/>
      </g>
     </g>
    </g>
    <g id="text_8">
     <!-- $t$ -->
     <g transform="translate(201.68 170.454248) scale(0.1 -0.1)">
      <defs>
       <path id="DejaVuSans-Oblique-74" d="M 2706 3500 
L 2619 3053 
L 1472 3053 
L 1100 1153 
Q 1081 1047 1072 975 
Q 1063 903 1063 863 
Q 1063 663 1183 572 
Q 1303 481 1569 481 
L 2150 481 
L 2053 0 
L 1503 0 
Q 991 0 739 200 
Q 488 400 488 806 
Q 488 878 497 964 
Q 506 1050 525 1153 
L 897 3053 
L 409 3053 
L 500 3500 
L 978 3500 
L 1172 4494 
L 1747 4494 
L 1556 3500 
L 2706 3500 
z
" transform="scale(0.015625)"/>
      </defs>
      <use xlink:href="#DejaVuSans-Oblique-74" transform="translate(0 0.78125)"/>
     </g>
    </g>
   </g>
   <g id="matplotlib.axis_2">
    <g id="ytick_1">
     <g id="line2d_8">
      <defs>
       <path id="m04244e83c5" d="M 0 0 
L -3.5 0 
" style="stroke: #000000; stroke-width: 0.8"/>
      </defs>
      <g>
       <use xlink:href="#m04244e83c5" x="54.2" y="137.241484" style="stroke: #000000; stroke-width: 0.8"/>
      </g>
     </g>
     <g id="text_9">
      <!-- 0 -->
      <g transform="translate(40.8375 141.040703) scale(0.1 -0.1)">
       <use xlink:href="#DejaVuSans-30"/>
      </g>
     </g>
    </g>
    <g id="ytick_2">
     <g id="line2d_9">
      <g>
       <use xlink:href="#m04244e83c5" x="54.2" y="101.512115" style="stroke: #000000; stroke-width: 0.8"/>
      </g>
     </g>
     <g id="text_10">
      <!-- 50 -->
      <g transform="translate(34.475 105.311334) scale(0.1 -0.1)">
       <use xlink:href="#DejaVuSans-35"/>
       <use xlink:href="#DejaVuSans-30" x="63.623047"/>
      </g>
     </g>
    </g>
    <g id="ytick_3">
     <g id="line2d_10">
      <g>
       <use xlink:href="#m04244e83c5" x="54.2" y="65.782746" style="stroke: #000000; stroke-width: 0.8"/>
      </g>
     </g>
     <g id="text_11">
      <!-- 100 -->
      <g transform="translate(28.1125 69.581964) scale(0.1 -0.1)">
       <use xlink:href="#DejaVuSans-31"/>
       <use xlink:href="#DejaVuSans-30" x="63.623047"/>
       <use xlink:href="#DejaVuSans-30" x="127.246094"/>
      </g>
     </g>
    </g>
    <g id="ytick_4">
     <g id="line2d_11">
      <g>
       <use xlink:href="#m04244e83c5" x="54.2" y="30.053376" style="stroke: #000000; stroke-width: 0.8"/>
      </g>
     </g>
     <g id="text_12">
      <!-- 150 -->
      <g transform="translate(28.1125 33.852595) scale(0.1 -0.1)">
       <use xlink:href="#DejaVuSans-31"/>
       <use xlink:href="#DejaVuSans-35" x="63.623047"/>
       <use xlink:href="#DejaVuSans-30" x="127.246094"/>
      </g>
     </g>
    </g>
    <g id="text_13">
     <!-- $x$ -->
     <g transform="translate(22.032813 79.763103) rotate(-90) scale(0.1 -0.1)">
      <defs>
       <path id="DejaVuSans-Oblique-78" d="M 3841 3500 
L 2234 1784 
L 3219 0 
L 2559 0 
L 1819 1388 
L 531 0 
L -166 0 
L 1556 1844 
L 641 3500 
L 1300 3500 
L 1972 2234 
L 3144 3500 
L 3841 3500 
z
" transform="scale(0.015625)"/>
      </defs>
      <use xlink:href="#DejaVuSans-Oblique-78" transform="translate(0 0.3125)"/>
     </g>
    </g>
   </g>
   <g id="line2d_12">
    <path d="M 67.789091 136.230905 
L 71.231661 125.199608 
L 74.08537 116.815333 
L 76.848485 109.327705 
L 79.792788 101.992869 
L 82.918279 94.857446 
L 85.862582 88.67959 
L 89.259855 82.135493 
L 92.838315 75.838204 
L 96.144994 70.512445 
L 99.859345 65.00803 
L 102.758352 61.05442 
L 105.702655 57.29995 
L 110.096461 52.173251 
L 113.267248 48.774984 
L 117.796945 44.369929 
L 122.100158 40.635788 
L 124.229115 38.947073 
L 128.079358 36.068506 
L 129.98183 34.785749 
L 136.595188 30.708484 
L 145.790473 26.180479 
L 148.553588 25.053018 
L 150.682545 24.153397 
L 155.484024 22.45008 
L 157.114715 21.904195 
L 162.369164 20.422454 
L 164.271636 19.80139 
L 166.083515 19.474415 
L 170.160242 18.80658 
L 172.108012 18.174506 
L 174.055782 17.608526 
L 175.73177 17.373005 
L 177.951321 17.296285 
L 180.306764 17.42513 
L 182.163939 17.74165 
L 184.111709 18.322112 
L 186.104776 18.86014 
L 187.735467 19.053308 
L 189.592642 19.044547 
L 191.359224 18.820928 
L 193.171103 18.35467 
L 195.75303 17.681996 
L 197.383721 17.527718 
L 199.105006 17.589044 
L 200.780994 17.867488 
L 205.808958 18.930351 
L 207.484945 18.885059 
L 209.160933 18.615905 
L 214.007709 17.631433 
L 215.6384 17.678233 
L 217.314388 17.94982 
L 221.798788 18.846587 
L 223.429479 18.815785 
L 225.105467 18.559188 
L 229.635164 17.697231 
L 231.265855 17.743123 
L 232.987139 18.021543 
L 236.927976 18.780753 
L 238.558667 18.775203 
L 240.234655 18.544806 
L 244.854945 17.739101 
L 246.485636 17.806776 
L 248.297515 18.116459 
L 251.558897 18.723009 
L 253.189588 18.747726 
L 254.865576 18.549508 
L 259.802945 17.771752 
L 261.433636 17.873271 
L 263.426703 18.237723 
L 265.963333 18.679052 
L 267.594024 18.721382 
L 269.315309 18.537103 
L 274.343273 17.801608 
L 276.019261 17.922268 
L 278.284109 18.341517 
L 280.458364 18.668513 
L 282.134352 18.683338 
L 283.900933 18.4694 
L 288.158848 17.830613 
L 289.834836 17.896537 
L 291.827903 18.214029 
L 294.591018 18.646034 
L 296.267006 18.661549 
L 298.078885 18.447018 
L 302.200909 17.852274 
L 303.922194 17.91765 
L 306.005855 18.243244 
L 308.633079 18.630057 
L 310.354364 18.637781 
L 312.211539 18.4128 
L 316.016485 17.874642 
L 317.73777 17.921596 
L 319.776133 18.217127 
L 322.629842 18.620437 
L 324.351127 18.615024 
L 326.2536 18.378366 
L 329.741467 17.895448 
L 331.462752 17.925829 
L 333.501115 18.201494 
L 336.490715 18.609291 
L 338.257297 18.59387 
L 339.570909 18.446566 
L 339.570909 18.446566 
" clip-path="url(#p956752426f)" style="fill: none; stroke: #1f77b4; stroke-width: 1.5; stroke-linecap: square"/>
   </g>
   <g id="patch_3">
    <path d="M 54.2 142.177685 
L 54.2 11.348521 
" style="fill: none; stroke: #000000; stroke-width: 0.8; stroke-linejoin: miter; stroke-linecap: square"/>
   </g>
   <g id="patch_4">
    <path d="M 353.16 142.177685 
L 353.16 11.348521 
" style="fill: none; stroke: #000000; stroke-width: 0.8; stroke-linejoin: miter; stroke-linecap: square"/>
   </g>
   <g id="patch_5">
    <path d="M 54.2 142.177685 
L 353.16 142.177685 
" style="fill: none; stroke: #000000; stroke-width: 0.8; stroke-linejoin: miter; stroke-linecap: square"/>
   </g>
   <g id="patch_6">
    <path d="M 54.2 11.348521 
L 353.16 11.348521 
" style="fill: none; stroke: #000000; stroke-width: 0.8; stroke-linejoin: miter; stroke-linecap: square"/>
   </g>
  </g>
  <g id="axes_2">
   <g id="patch_7">
    <path d="M 410.24 142.177685 
L 709.2 142.177685 
L 709.2 11.348521 
L 410.24 11.348521 
z
" style="fill: #ffffff"/>
   </g>
   <g id="matplotlib.axis_3">
    <g id="xtick_8">
     <g id="line2d_13">
      <g>
       <use xlink:href="#m3da328c463" x="423.829091" y="142.177685" style="stroke: #000000; stroke-width: 0.8"/>
      </g>
     </g>
     <g id="text_14">
      <!-- 0 -->
      <g transform="translate(420.647841 156.776123) scale(0.1 -0.1)">
       <use xlink:href="#DejaVuSans-30"/>
      </g>
     </g>
    </g>
    <g id="xtick_9">
     <g id="line2d_14">
      <g>
       <use xlink:href="#m3da328c463" x="469.126061" y="142.177685" style="stroke: #000000; stroke-width: 0.8"/>
      </g>
     </g>
     <g id="text_15">
      <!-- 100 -->
      <g transform="translate(459.582311 156.776123) scale(0.1 -0.1)">
       <use xlink:href="#DejaVuSans-31"/>
       <use xlink:href="#DejaVuSans-30" x="63.623047"/>
       <use xlink:href="#DejaVuSans-30" x="127.246094"/>
      </g>
     </g>
    </g>
    <g id="xtick_10">
     <g id="line2d_15">
      <g>
       <use xlink:href="#m3da328c463" x="514.42303" y="142.177685" style="stroke: #000000; stroke-width: 0.8"/>
      </g>
     </g>
     <g id="text_16">
      <!-- 200 -->
      <g transform="translate(504.87928 156.776123) scale(0.1 -0.1)">
       <use xlink:href="#DejaVuSans-32"/>
       <use xlink:href="#DejaVuSans-30" x="63.623047"/>
       <use xlink:href="#DejaVuSans-30" x="127.246094"/>
      </g>
     </g>
    </g>
    <g id="xtick_11">
     <g id="line2d_16">
      <g>
       <use xlink:href="#m3da328c463" x="559.72" y="142.177685" style="stroke: #000000; stroke-width: 0.8"/>
      </g>
     </g>
     <g id="text_17">
      <!-- 300 -->
      <g transform="translate(550.17625 156.776123) scale(0.1 -0.1)">
       <use xlink:href="#DejaVuSans-33"/>
       <use xlink:href="#DejaVuSans-30" x="63.623047"/>
       <use xlink:href="#DejaVuSans-30" x="127.246094"/>
      </g>
     </g>
    </g>
    <g id="xtick_12">
     <g id="line2d_17">
      <g>
       <use xlink:href="#m3da328c463" x="605.01697" y="142.177685" style="stroke: #000000; stroke-width: 0.8"/>
      </g>
     </g>
     <g id="text_18">
      <!-- 400 -->
      <g transform="translate(595.47322 156.776123) scale(0.1 -0.1)">
       <use xlink:href="#DejaVuSans-34"/>
       <use xlink:href="#DejaVuSans-30" x="63.623047"/>
       <use xlink:href="#DejaVuSans-30" x="127.246094"/>
      </g>
     </g>
    </g>
    <g id="xtick_13">
     <g id="line2d_18">
      <g>
       <use xlink:href="#m3da328c463" x="650.313939" y="142.177685" style="stroke: #000000; stroke-width: 0.8"/>
      </g>
     </g>
     <g id="text_19">
      <!-- 500 -->
      <g transform="translate(640.770189 156.776123) scale(0.1 -0.1)">
       <use xlink:href="#DejaVuSans-35"/>
       <use xlink:href="#DejaVuSans-30" x="63.623047"/>
       <use xlink:href="#DejaVuSans-30" x="127.246094"/>
      </g>
     </g>
    </g>
    <g id="xtick_14">
     <g id="line2d_19">
      <g>
       <use xlink:href="#m3da328c463" x="695.610909" y="142.177685" style="stroke: #000000; stroke-width: 0.8"/>
      </g>
     </g>
     <g id="text_20">
      <!-- 600 -->
      <g transform="translate(686.067159 156.776123) scale(0.1 -0.1)">
       <use xlink:href="#DejaVuSans-36"/>
       <use xlink:href="#DejaVuSans-30" x="63.623047"/>
       <use xlink:href="#DejaVuSans-30" x="127.246094"/>
      </g>
     </g>
    </g>
    <g id="text_21">
     <!-- $t$ -->
     <g transform="translate(557.72 170.454248) scale(0.1 -0.1)">
      <use xlink:href="#DejaVuSans-Oblique-74" transform="translate(0 0.78125)"/>
     </g>
    </g>
   </g>
   <g id="matplotlib.axis_4">
    <g id="ytick_5">
     <g id="line2d_20">
      <g>
       <use xlink:href="#m04244e83c5" x="410.24" y="136.230905" style="stroke: #000000; stroke-width: 0.8"/>
      </g>
     </g>
     <g id="text_22">
      <!-- 0 -->
      <g transform="translate(396.8775 140.030124) scale(0.1 -0.1)">
       <use xlink:href="#DejaVuSans-30"/>
      </g>
     </g>
    </g>
    <g id="ytick_6">
     <g id="line2d_21">
      <g>
       <use xlink:href="#m04244e83c5" x="410.24" y="111.962874" style="stroke: #000000; stroke-width: 0.8"/>
      </g>
     </g>
     <g id="text_23">
      <!-- 10 -->
      <g transform="translate(390.515 115.762093) scale(0.1 -0.1)">
       <use xlink:href="#DejaVuSans-31"/>
       <use xlink:href="#DejaVuSans-30" x="63.623047"/>
      </g>
     </g>
    </g>
    <g id="ytick_7">
     <g id="line2d_22">
      <g>
       <use xlink:href="#m04244e83c5" x="410.24" y="87.694843" style="stroke: #000000; stroke-width: 0.8"/>
      </g>
     </g>
     <g id="text_24">
      <!-- 20 -->
      <g transform="translate(390.515 91.494062) scale(0.1 -0.1)">
       <use xlink:href="#DejaVuSans-32"/>
       <use xlink:href="#DejaVuSans-30" x="63.623047"/>
      </g>
     </g>
    </g>
    <g id="ytick_8">
     <g id="line2d_23">
      <g>
       <use xlink:href="#m04244e83c5" x="410.24" y="63.426813" style="stroke: #000000; stroke-width: 0.8"/>
      </g>
     </g>
     <g id="text_25">
      <!-- 30 -->
      <g transform="translate(390.515 67.226031) scale(0.1 -0.1)">
       <use xlink:href="#DejaVuSans-33"/>
       <use xlink:href="#DejaVuSans-30" x="63.623047"/>
      </g>
     </g>
    </g>
    <g id="ytick_9">
     <g id="line2d_24">
      <g>
       <use xlink:href="#m04244e83c5" x="410.24" y="39.158782" style="stroke: #000000; stroke-width: 0.8"/>
      </g>
     </g>
     <g id="text_26">
      <!-- 40 -->
      <g transform="translate(390.515 42.958) scale(0.1 -0.1)">
       <use xlink:href="#DejaVuSans-34"/>
       <use xlink:href="#DejaVuSans-30" x="63.623047"/>
      </g>
     </g>
    </g>
    <g id="ytick_10">
     <g id="line2d_25">
      <g>
       <use xlink:href="#m04244e83c5" x="410.24" y="14.890751" style="stroke: #000000; stroke-width: 0.8"/>
      </g>
     </g>
     <g id="text_27">
      <!-- 50 -->
      <g transform="translate(390.515 18.689969) scale(0.1 -0.1)">
       <use xlink:href="#DejaVuSans-35"/>
       <use xlink:href="#DejaVuSans-30" x="63.623047"/>
      </g>
     </g>
    </g>
    <g id="text_28">
     <!-- $E$ -->
     <g transform="translate(384.435312 79.963103) rotate(-90) scale(0.1 -0.1)">
      <defs>
       <path id="DejaVuSans-Oblique-45" d="M 1081 4666 
L 4031 4666 
L 3928 4134 
L 1606 4134 
L 1338 2753 
L 3566 2753 
L 3463 2222 
L 1234 2222 
L 909 531 
L 3284 531 
L 3181 0 
L 172 0 
L 1081 4666 
z
" transform="scale(0.015625)"/>
      </defs>
      <use xlink:href="#DejaVuSans-Oblique-45" transform="translate(0 0.09375)"/>
     </g>
    </g>
   </g>
   <g id="line2d_26">
    <path d="M 423.829091 17.317554 
L 424.327358 17.393124 
L 424.463248 17.95506 
L 424.825624 20.002572 
L 424.961515 20.071483 
L 425.097406 20.905295 
L 425.550376 25.030393 
L 425.64097 25.067801 
L 425.731564 25.407055 
L 425.958048 27.823142 
L 426.184533 29.283566 
L 426.365721 29.377479 
L 426.501612 30.137039 
L 426.909285 33.170947 
L 427.090473 33.256001 
L 427.226364 34.057981 
L 427.634036 37.232227 
L 427.815224 37.292867 
L 427.951115 38.026862 
L 428.404085 41.367692 
L 428.539976 41.368732 
L 428.63057 41.646086 
L 428.857055 43.723002 
L 429.128836 45.408054 
L 429.355321 45.510723 
L 429.491212 46.341013 
L 429.898885 49.39937 
L 430.12537 49.451126 
L 430.261261 50.178548 
L 430.71423 53.354869 
L 430.895418 53.320583 
L 431.031309 53.847047 
L 431.529576 57.22915 
L 431.574873 57.211722 
L 431.710764 57.169791 
L 431.801358 57.405627 
L 431.982545 58.768129 
L 432.299624 60.972258 
L 432.435515 60.974539 
L 432.571406 60.963691 
L 432.707297 61.514319 
L 433.205564 64.719004 
L 433.250861 64.702101 
L 433.432048 64.636258 
L 433.567939 65.150236 
L 434.066206 68.316362 
L 434.111503 68.308889 
L 434.292691 68.187257 
L 434.337988 68.244015 
L 434.473879 68.826463 
L 434.972145 71.811456 
L 435.243927 71.702446 
L 435.379818 72.240948 
L 435.923382 75.1837 
L 436.149867 75.018816 
L 436.195164 75.086944 
L 436.331055 75.667012 
L 436.829321 78.456814 
L 436.965212 78.340047 
L 437.101103 78.250046 
L 437.191697 78.41497 
L 437.372885 79.414901 
L 437.735261 81.539334 
L 437.871152 81.570953 
L 438.097636 81.37548 
L 438.233527 81.727657 
L 438.822388 84.632952 
L 438.867685 84.603413 
L 439.139467 84.402314 
L 439.275358 84.824799 
L 439.864218 87.539167 
L 440.181297 87.278161 
L 440.226594 87.356188 
L 440.407782 88.144168 
L 440.860752 90.327921 
L 440.996642 90.261273 
L 441.223127 90.017311 
L 441.359018 90.270928 
L 441.6308 91.758135 
L 441.947879 93.005623 
L 442.08377 92.948614 
L 442.355552 92.681462 
L 442.491442 92.985984 
L 442.853818 94.937942 
L 443.080303 95.579625 
L 443.216194 95.508555 
L 443.487976 95.213731 
L 443.623867 95.468332 
L 443.895648 96.820972 
L 444.212727 98.017481 
L 444.348618 98.004321 
L 444.665697 97.644388 
L 444.710994 97.683247 
L 444.846885 98.03116 
L 445.481042 100.401597 
L 445.526339 100.378414 
L 445.934012 100.014769 
L 446.1152 100.529938 
L 446.704061 102.655798 
L 446.839952 102.54074 
L 447.15703 102.206148 
L 447.292921 102.447759 
L 447.61 103.822051 
L 447.927079 104.789723 
L 448.06297 104.768101 
L 448.470642 104.345336 
L 448.606533 104.601045 
L 448.968909 106.116149 
L 449.240691 106.848186 
L 449.376582 106.838163 
L 449.829552 106.39443 
L 450.010739 106.804385 
L 450.690194 108.842962 
L 450.871382 108.636831 
L 451.143164 108.305403 
L 451.279055 108.419891 
L 451.505539 109.095502 
L 452.003806 110.698083 
L 452.139697 110.71367 
L 452.366182 110.393113 
L 452.592667 110.167434 
L 452.728558 110.291391 
L 452.955042 110.94046 
L 453.453309 112.491691 
L 453.634497 112.497736 
L 454.178061 112.004928 
L 454.359248 112.384353 
L 455.084 114.266735 
L 455.265188 114.088978 
L 455.627564 113.650643 
L 455.763455 113.751108 
L 455.989939 114.301664 
L 456.5788 115.904868 
L 456.759988 115.85873 
L 457.303552 115.304107 
L 457.484739 115.580642 
L 457.937709 116.976984 
L 458.209491 117.486201 
L 458.390679 117.455477 
L 459.024836 116.902839 
L 459.251321 117.343079 
L 459.930776 119.01498 
L 460.111964 118.96257 
L 460.746121 118.370835 
L 460.972606 118.744378 
L 461.787952 120.480137 
L 461.969139 120.330313 
L 462.467406 119.757014 
L 462.648594 119.884681 
L 462.920376 120.460603 
L 463.509236 121.831239 
L 463.690424 121.857334 
L 463.916909 121.602885 
L 464.324582 121.127178 
L 464.50577 121.193459 
L 464.732255 121.562409 
L 465.5476 123.21108 
L 465.728788 123.119125 
L 466.453539 122.463468 
L 466.680024 122.750992 
L 467.178291 123.960247 
L 467.49537 124.458478 
L 467.676558 124.468469 
L 467.948339 124.171243 
L 468.401309 123.685872 
L 468.627794 123.7802 
L 468.899576 124.229003 
L 469.669624 125.701307 
L 469.896109 125.640966 
L 470.303782 125.116775 
L 470.620861 124.881232 
L 470.847345 124.988189 
L 471.119127 125.419427 
L 471.889176 126.856917 
L 472.115661 126.843015 
L 472.432739 126.494507 
L 472.885709 126.039527 
L 473.112194 126.077452 
L 473.383976 126.4093 
L 474.380509 128.001126 
L 474.606994 127.890768 
L 475.512933 127.139518 
L 475.784715 127.373825 
L 476.192388 128.129571 
L 476.690655 128.965107 
L 476.962436 129.064414 
L 477.234218 128.893009 
L 478.049564 128.173939 
L 478.321345 128.297117 
L 478.638424 128.740512 
L 479.45377 130.03075 
L 479.725552 130.070281 
L 480.04263 129.844639 
L 480.812679 129.178466 
L 481.084461 129.240975 
L 481.401539 129.592023 
L 482.44337 131.031428 
L 482.715152 131.012278 
L 483.077527 130.73663 
L 483.802279 130.135506 
L 484.119358 130.172839 
L 484.436436 130.475416 
L 485.659455 131.94862 
L 485.976533 131.882501 
L 486.4748 131.4804 
L 487.108958 131.020057 
L 487.426036 131.046241 
L 487.743115 131.303706 
L 489.147321 132.789176 
L 489.509697 132.70412 
L 490.053261 132.299173 
L 490.732715 131.836897 
L 491.095091 131.863617 
L 491.457467 132.144821 
L 492.861673 133.535306 
L 493.269345 133.512008 
L 493.767612 133.240726 
L 494.854739 132.554123 
L 495.217115 132.618694 
L 495.624788 132.937057 
L 496.9384 134.159806 
L 497.39137 134.227219 
L 497.889636 134.081746 
L 498.614388 133.606594 
L 499.339139 133.210666 
L 499.746812 133.238677 
L 500.199782 133.526595 
L 501.739879 134.751622 
L 502.283442 134.816989 
L 502.872303 134.67188 
L 503.642352 134.23049 
L 504.502994 133.773337 
L 504.955964 133.781353 
L 505.45423 134.046733 
L 507.175515 135.228219 
L 507.85497 135.321004 
L 508.579721 135.20202 
L 509.395067 134.830649 
L 510.663382 134.223149 
L 511.161648 134.26847 
L 511.750509 134.586208 
L 513.245309 135.518173 
L 514.105952 135.713685 
L 515.057188 135.701912 
L 516.008424 135.471377 
L 517.095552 134.952554 
L 518.001491 134.603888 
L 518.545055 134.635697 
L 519.179212 134.924289 
L 520.809903 135.787061 
L 521.851733 136.000921 
L 523.346533 136.056429 
L 524.841333 135.904709 
L 525.928461 135.581512 
L 527.921527 134.878646 
L 528.510388 134.991699 
L 529.416327 135.438449 
L 530.548752 135.926328 
L 531.681176 136.143861 
L 533.493055 136.229924 
L 536.029685 136.138956 
L 537.388594 135.89289 
L 538.656909 135.422622 
L 539.744036 135.080749 
L 540.378194 135.115707 
L 541.148242 135.402419 
L 542.733636 136.032104 
L 543.911358 136.207443 
L 545.451455 136.201131 
L 546.855661 135.984282 
L 548.169273 135.541903 
L 549.301697 135.216142 
L 549.981152 135.255361 
L 550.841794 135.557729 
L 552.336594 136.083652 
L 553.514315 136.2258 
L 554.873224 136.16248 
L 556.141539 135.883925 
L 558.315794 135.310738 
L 559.040545 135.432474 
L 561.984848 136.221735 
L 563.253164 136.174659 
L 564.521479 135.903448 
L 566.559842 135.395389 
L 567.329891 135.502388 
L 570.410085 136.230117 
L 571.633103 136.1394 
L 572.992012 135.801387 
L 574.441515 135.469274 
L 575.256861 135.543856 
L 576.751661 136.000082 
L 577.929382 136.211452 
L 579.107103 136.195819 
L 580.375418 135.954586 
L 582.368485 135.52437 
L 583.229127 135.635621 
L 586.037539 136.229835 
L 587.260558 136.138337 
L 588.800655 135.769258 
L 589.978376 135.575004 
L 590.839018 135.670608 
L 593.783321 136.230755 
L 595.006339 136.110982 
L 598.041236 135.652503 
L 599.218958 135.92826 
L 600.668461 136.207566 
L 601.846182 136.200246 
L 603.205091 135.956728 
L 604.926376 135.656143 
L 605.877612 135.761118 
L 608.550133 136.230776 
L 609.773152 136.129096 
L 612.808048 135.721657 
L 614.121661 136.001063 
L 615.525867 136.220591 
L 616.748885 136.177521 
L 618.379576 135.864305 
L 619.602594 135.71916 
L 620.599127 135.837075 
L 622.999867 136.229635 
L 624.268182 136.140245 
L 627.303079 135.777548 
L 628.797879 136.069232 
L 630.156788 136.229163 
L 631.425103 136.145891 
L 634.46 135.800338 
L 636.045394 136.095629 
L 637.404303 136.230796 
L 638.717915 136.123941 
L 641.390436 135.804438 
L 642.704048 136.017596 
L 644.289442 136.226771 
L 645.557758 136.161846 
L 648.728545 135.849146 
L 652.3976 136.187758 
L 656.066655 135.90644 
L 658.82977 136.227498 
L 660.233976 136.076377 
L 662.272339 135.846931 
L 663.495358 135.989805 
L 665.488424 136.230238 
L 666.847333 136.136838 
L 669.474558 135.872296 
L 670.969358 136.084605 
L 672.509455 136.230801 
L 673.913661 136.124557 
L 676.359697 135.882363 
L 677.8092 136.073328 
L 679.439891 136.230776 
L 680.844097 136.127958 
L 683.290133 135.895424 
L 684.784933 136.087547 
L 686.415624 136.230888 
L 687.865127 136.115769 
L 690.129976 135.904428 
L 691.579479 136.076595 
L 693.300764 136.2309 
L 694.750267 136.119618 
L 695.610909 135.997788 
L 695.610909 135.997788 
" clip-path="url(#p306d4339e1)" style="fill: none; stroke: #1f77b4; stroke-width: 1.5; stroke-linecap: square"/>
   </g>
   <g id="patch_8">
    <path d="M 410.24 142.177685 
L 410.24 11.348521 
" style="fill: none; stroke: #000000; stroke-width: 0.8; stroke-linejoin: miter; stroke-linecap: square"/>
   </g>
   <g id="patch_9">
    <path d="M 709.2 142.177685 
L 709.2 11.348521 
" style="fill: none; stroke: #000000; stroke-width: 0.8; stroke-linejoin: miter; stroke-linecap: square"/>
   </g>
   <g id="patch_10">
    <path d="M 410.24 142.177685 
L 709.2 142.177685 
" style="fill: none; stroke: #000000; stroke-width: 0.8; stroke-linejoin: miter; stroke-linecap: square"/>
   </g>
   <g id="patch_11">
    <path d="M 410.24 11.348521 
L 709.2 11.348521 
" style="fill: none; stroke: #000000; stroke-width: 0.8; stroke-linejoin: miter; stroke-linecap: square"/>
   </g>
  </g>
  <g id="axes_3">
   <g id="patch_12">
    <path d="M 54.2 318.04 
L 353.16 318.04 
L 353.16 187.210836 
L 54.2 187.210836 
z
" style="fill: #ffffff"/>
   </g>
   <g id="matplotlib.axis_5">
    <g id="xtick_15">
     <g id="line2d_27">
      <g>
       <use xlink:href="#m3da328c463" x="67.789091" y="318.04" style="stroke: #000000; stroke-width: 0.8"/>
      </g>
     </g>
     <g id="text_29">
      <!-- 0 -->
      <g transform="translate(64.607841 332.638438) scale(0.1 -0.1)">
       <use xlink:href="#DejaVuSans-30"/>
      </g>
     </g>
    </g>
    <g id="xtick_16">
     <g id="line2d_28">
      <g>
       <use xlink:href="#m3da328c463" x="113.086061" y="318.04" style="stroke: #000000; stroke-width: 0.8"/>
      </g>
     </g>
     <g id="text_30">
      <!-- 100 -->
      <g transform="translate(103.542311 332.638438) scale(0.1 -0.1)">
       <use xlink:href="#DejaVuSans-31"/>
       <use xlink:href="#DejaVuSans-30" x="63.623047"/>
       <use xlink:href="#DejaVuSans-30" x="127.246094"/>
      </g>
     </g>
    </g>
    <g id="xtick_17">
     <g id="line2d_29">
      <g>
       <use xlink:href="#m3da328c463" x="158.38303" y="318.04" style="stroke: #000000; stroke-width: 0.8"/>
      </g>
     </g>
     <g id="text_31">
      <!-- 200 -->
      <g transform="translate(148.83928 332.638438) scale(0.1 -0.1)">
       <use xlink:href="#DejaVuSans-32"/>
       <use xlink:href="#DejaVuSans-30" x="63.623047"/>
       <use xlink:href="#DejaVuSans-30" x="127.246094"/>
      </g>
     </g>
    </g>
    <g id="xtick_18">
     <g id="line2d_30">
      <g>
       <use xlink:href="#m3da328c463" x="203.68" y="318.04" style="stroke: #000000; stroke-width: 0.8"/>
      </g>
     </g>
     <g id="text_32">
      <!-- 300 -->
      <g transform="translate(194.13625 332.638438) scale(0.1 -0.1)">
       <use xlink:href="#DejaVuSans-33"/>
       <use xlink:href="#DejaVuSans-30" x="63.623047"/>
       <use xlink:href="#DejaVuSans-30" x="127.246094"/>
      </g>
     </g>
    </g>
    <g id="xtick_19">
     <g id="line2d_31">
      <g>
       <use xlink:href="#m3da328c463" x="248.97697" y="318.04" style="stroke: #000000; stroke-width: 0.8"/>
      </g>
     </g>
     <g id="text_33">
      <!-- 400 -->
      <g transform="translate(239.43322 332.638438) scale(0.1 -0.1)">
       <use xlink:href="#DejaVuSans-34"/>
       <use xlink:href="#DejaVuSans-30" x="63.623047"/>
       <use xlink:href="#DejaVuSans-30" x="127.246094"/>
      </g>
     </g>
    </g>
    <g id="xtick_20">
     <g id="line2d_32">
      <g>
       <use xlink:href="#m3da328c463" x="294.273939" y="318.04" style="stroke: #000000; stroke-width: 0.8"/>
      </g>
     </g>
     <g id="text_34">
      <!-- 500 -->
      <g transform="translate(284.730189 332.638438) scale(0.1 -0.1)">
       <use xlink:href="#DejaVuSans-35"/>
       <use xlink:href="#DejaVuSans-30" x="63.623047"/>
       <use xlink:href="#DejaVuSans-30" x="127.246094"/>
      </g>
     </g>
    </g>
    <g id="xtick_21">
     <g id="line2d_33">
      <g>
       <use xlink:href="#m3da328c463" x="339.570909" y="318.04" style="stroke: #000000; stroke-width: 0.8"/>
      </g>
     </g>
     <g id="text_35">
      <!-- 600 -->
      <g transform="translate(330.027159 332.638438) scale(0.1 -0.1)">
       <use xlink:href="#DejaVuSans-36"/>
       <use xlink:href="#DejaVuSans-30" x="63.623047"/>
       <use xlink:href="#DejaVuSans-30" x="127.246094"/>
      </g>
     </g>
    </g>
    <g id="text_36">
     <!-- $t$ -->
     <g transform="translate(201.68 346.316563) scale(0.1 -0.1)">
      <use xlink:href="#DejaVuSans-Oblique-74" transform="translate(0 0.78125)"/>
     </g>
    </g>
   </g>
   <g id="matplotlib.axis_6">
    <g id="ytick_11">
     <g id="line2d_34">
      <g>
       <use xlink:href="#m04244e83c5" x="54.2" y="312.09322" style="stroke: #000000; stroke-width: 0.8"/>
      </g>
     </g>
     <g id="text_37">
      <!-- 0.00 -->
      <g transform="translate(24.934375 315.892439) scale(0.1 -0.1)">
       <defs>
        <path id="DejaVuSans-2e" d="M 684 794 
L 1344 794 
L 1344 0 
L 684 0 
L 684 794 
z
" transform="scale(0.015625)"/>
       </defs>
       <use xlink:href="#DejaVuSans-30"/>
       <use xlink:href="#DejaVuSans-2e" x="63.623047"/>
       <use xlink:href="#DejaVuSans-30" x="95.410156"/>
       <use xlink:href="#DejaVuSans-30" x="159.033203"/>
      </g>
     </g>
    </g>
    <g id="ytick_12">
     <g id="line2d_35">
      <g>
       <use xlink:href="#m04244e83c5" x="54.2" y="286.330157" style="stroke: #000000; stroke-width: 0.8"/>
      </g>
     </g>
     <g id="text_38">
      <!-- 0.25 -->
      <g transform="translate(24.934375 290.129376) scale(0.1 -0.1)">
       <use xlink:href="#DejaVuSans-30"/>
       <use xlink:href="#DejaVuSans-2e" x="63.623047"/>
       <use xlink:href="#DejaVuSans-32" x="95.410156"/>
       <use xlink:href="#DejaVuSans-35" x="159.033203"/>
      </g>
     </g>
    </g>
    <g id="ytick_13">
     <g id="line2d_36">
      <g>
       <use xlink:href="#m04244e83c5" x="54.2" y="260.567095" style="stroke: #000000; stroke-width: 0.8"/>
      </g>
     </g>
     <g id="text_39">
      <!-- 0.50 -->
      <g transform="translate(24.934375 264.366313) scale(0.1 -0.1)">
       <use xlink:href="#DejaVuSans-30"/>
       <use xlink:href="#DejaVuSans-2e" x="63.623047"/>
       <use xlink:href="#DejaVuSans-35" x="95.410156"/>
       <use xlink:href="#DejaVuSans-30" x="159.033203"/>
      </g>
     </g>
    </g>
    <g id="ytick_14">
     <g id="line2d_37">
      <g>
       <use xlink:href="#m04244e83c5" x="54.2" y="234.804032" style="stroke: #000000; stroke-width: 0.8"/>
      </g>
     </g>
     <g id="text_40">
      <!-- 0.75 -->
      <g transform="translate(24.934375 238.603251) scale(0.1 -0.1)">
       <defs>
        <path id="DejaVuSans-37" d="M 525 4666 
L 3525 4666 
L 3525 4397 
L 1831 0 
L 1172 0 
L 2766 4134 
L 525 4134 
L 525 4666 
z
" transform="scale(0.015625)"/>
       </defs>
       <use xlink:href="#DejaVuSans-30"/>
       <use xlink:href="#DejaVuSans-2e" x="63.623047"/>
       <use xlink:href="#DejaVuSans-37" x="95.410156"/>
       <use xlink:href="#DejaVuSans-35" x="159.033203"/>
      </g>
     </g>
    </g>
    <g id="ytick_15">
     <g id="line2d_38">
      <g>
       <use xlink:href="#m04244e83c5" x="54.2" y="209.04097" style="stroke: #000000; stroke-width: 0.8"/>
      </g>
     </g>
     <g id="text_41">
      <!-- 1.00 -->
      <g transform="translate(24.934375 212.840188) scale(0.1 -0.1)">
       <use xlink:href="#DejaVuSans-31"/>
       <use xlink:href="#DejaVuSans-2e" x="63.623047"/>
       <use xlink:href="#DejaVuSans-30" x="95.410156"/>
       <use xlink:href="#DejaVuSans-30" x="159.033203"/>
      </g>
     </g>
    </g>
    <g id="text_42">
     <!-- $n$ -->
     <g transform="translate(18.854688 255.825418) rotate(-90) scale(0.1 -0.1)">
      <defs>
       <path id="DejaVuSans-Oblique-6e" d="M 3566 2113 
L 3156 0 
L 2578 0 
L 2988 2091 
Q 3016 2238 3031 2350 
Q 3047 2463 3047 2528 
Q 3047 2791 2881 2937 
Q 2716 3084 2419 3084 
Q 1956 3084 1622 2776 
Q 1288 2469 1184 1941 
L 800 0 
L 225 0 
L 903 3500 
L 1478 3500 
L 1363 2950 
Q 1603 3253 1940 3418 
Q 2278 3584 2650 3584 
Q 3113 3584 3367 3334 
Q 3622 3084 3622 2631 
Q 3622 2519 3608 2391 
Q 3594 2263 3566 2113 
z
" transform="scale(0.015625)"/>
      </defs>
      <use xlink:href="#DejaVuSans-Oblique-6e"/>
     </g>
    </g>
   </g>
   <g id="line2d_39">
    <path d="M 67.789091 312.09322 
L 67.879685 308.372864 
L 68.10617 278.090545 
L 68.69503 196.508673 
L 68.830921 193.157616 
L 69.012109 197.645902 
L 69.419782 207.953418 
L 69.827455 231.953128 
L 70.099236 234.125251 
L 70.416315 241.503874 
L 70.461612 241.048743 
L 70.823988 232.701961 
L 70.914582 233.527437 
L 71.09577 235.669509 
L 71.141067 235.432303 
L 71.276958 232.402473 
L 71.503442 227.127055 
L 71.548739 227.248597 
L 71.68463 229.992687 
L 71.865818 233.203734 
L 71.956412 232.432516 
L 72.228194 227.152419 
L 72.273491 227.283567 
L 72.409382 230.100665 
L 72.635867 234.179308 
L 72.726461 233.043047 
L 72.998242 227.694461 
L 73.043539 227.87209 
L 73.17943 230.624543 
L 73.360618 234.13747 
L 73.405915 234.100741 
L 73.541806 231.686587 
L 73.768291 227.1104 
L 73.813588 227.209999 
L 73.949479 229.785012 
L 74.175964 233.641071 
L 74.266558 232.593519 
L 74.583636 226.553203 
L 74.628933 226.885103 
L 74.946012 233.336721 
L 75.036606 232.875941 
L 75.398982 226.19161 
L 75.444279 226.553042 
L 75.806655 233.09887 
L 75.851952 232.714575 
L 76.214327 225.753352 
L 76.304921 226.56333 
L 76.622 232.859918 
L 76.667297 232.705211 
L 76.803188 230.241461 
L 77.07497 225.337696 
L 77.165564 226.27297 
L 77.482642 232.594776 
L 77.527939 232.45865 
L 77.66383 230.082443 
L 77.935612 224.929834 
L 78.026206 225.625785 
L 78.388582 232.335195 
L 78.433879 232.028689 
L 78.615067 228.18402 
L 78.841552 224.541707 
L 78.932145 225.363957 
L 79.294521 232.111143 
L 79.339818 231.830824 
L 79.521006 228.101154 
L 79.747491 224.173557 
L 79.792788 224.277833 
L 79.928679 226.553 
L 80.200461 231.895847 
L 80.245758 231.831331 
L 80.381648 229.769092 
L 80.698727 223.8095 
L 80.789321 224.437899 
L 81.151697 231.684581 
L 81.242291 231.333064 
L 81.423479 227.602515 
L 81.695261 223.499966 
L 81.785855 224.453179 
L 82.14823 231.547465 
L 82.193527 231.458456 
L 82.329418 229.45131 
L 82.691794 223.165353 
L 82.782388 224.040008 
L 83.190061 231.386406 
L 83.235358 231.104492 
L 83.416545 227.640687 
L 83.688327 222.855998 
L 83.733624 222.90263 
L 83.869515 224.817701 
L 84.231891 231.26779 
L 84.322485 230.458952 
L 84.775455 222.554166 
L 84.820752 222.787381 
L 84.956642 225.100432 
L 85.273721 231.170973 
L 85.319018 231.123493 
L 85.454909 229.372602 
L 85.862582 222.268643 
L 85.953176 222.95786 
L 86.224958 229.14113 
L 86.406145 231.102424 
L 86.496739 230.412227 
L 86.768521 224.592644 
L 86.995006 222.015408 
L 87.0856 222.784468 
L 87.53857 231.054102 
L 87.629164 230.47094 
L 87.855648 225.867505 
L 88.12743 221.741208 
L 88.172727 221.824928 
L 88.308618 223.620225 
L 88.716291 231.017717 
L 88.806885 230.424976 
L 89.03337 225.891346 
L 89.305152 221.526752 
L 89.350448 221.510243 
L 89.441042 222.251834 
L 89.712824 228.366583 
L 89.939309 230.987404 
L 90.029903 230.299412 
L 90.301685 224.702258 
L 90.52817 221.316313 
L 90.573467 221.247479 
L 90.664061 221.856675 
L 90.890545 226.670741 
L 91.162327 231.005189 
L 91.207624 230.939088 
L 91.343515 229.38872 
L 91.841782 221.003941 
L 91.932376 221.543821 
L 92.113564 225.052832 
L 92.430642 230.967537 
L 92.475939 231.030197 
L 92.566533 230.448258 
L 92.793018 226.167559 
L 93.110097 220.859215 
L 93.155394 220.767543 
L 93.200691 220.905551 
L 93.336582 222.651612 
L 93.789552 231.075615 
L 93.834848 231.010755 
L 93.970739 229.552992 
L 94.514303 220.534232 
L 94.5596 220.66514 
L 94.695491 222.34643 
L 95.193758 231.132208 
L 95.284352 230.564442 
L 95.510836 226.465516 
L 95.873212 220.396746 
L 95.918509 220.302107 
L 95.963806 220.418577 
L 96.099697 222.014732 
L 96.597964 231.21588 
L 96.643261 231.155541 
L 96.779152 229.795985 
L 97.368012 220.072294 
L 97.413309 220.155374 
L 97.5492 221.611923 
L 98.092764 231.31342 
L 98.138061 231.184 
L 98.273952 229.698304 
L 98.862812 219.856811 
L 98.908109 219.876981 
L 98.998703 220.505327 
L 99.225188 224.925462 
L 99.587564 231.369404 
L 99.632861 231.415428 
L 99.723455 230.921612 
L 99.949939 227.186425 
L 100.402909 219.693393 
L 100.448206 219.612524 
L 100.493503 219.716654 
L 100.629394 221.140581 
L 101.218255 231.541678 
L 101.263552 231.418081 
L 101.399442 230.032865 
L 102.078897 219.386276 
L 102.124194 219.508398 
L 102.260085 220.937263 
L 102.848945 231.664607 
L 102.939539 231.429325 
L 103.120727 229.129832 
L 103.754885 219.155763 
L 103.845479 219.457967 
L 104.026667 222.023374 
L 104.57023 231.808952 
L 104.615527 231.776702 
L 104.751418 230.711042 
L 105.068497 224.864759 
L 105.430873 219.218902 
L 105.521467 218.926476 
L 105.566764 219.015454 
L 105.702655 220.251876 
L 105.974436 226.001704 
L 106.291515 231.667725 
L 106.382109 231.967509 
L 106.427406 231.864725 
L 106.563297 230.668081 
L 106.880376 224.852293 
L 107.242752 219.12995 
L 107.333345 218.712332 
L 107.378642 218.720892 
L 107.469236 219.198219 
L 107.650424 221.893346 
L 108.239285 232.126163 
L 108.329879 231.871055 
L 108.511067 229.79525 
L 109.281115 218.472258 
L 109.371709 218.832576 
L 109.552897 221.231736 
L 110.187055 232.287539 
L 110.232352 232.266333 
L 110.368242 231.376196 
L 110.640024 227.048912 
L 111.183588 218.506703 
L 111.274182 218.237259 
L 111.319479 218.29884 
L 111.45537 219.299715 
L 111.681855 223.334791 
L 112.180121 232.288112 
L 112.270715 232.464488 
L 112.361309 232.094511 
L 112.542497 230.026822 
L 113.403139 218.021204 
L 113.493733 218.398009 
L 113.674921 220.629262 
L 114.399673 232.65764 
L 114.490267 232.450281 
L 114.671455 230.717842 
L 115.124424 222.771083 
L 115.4868 218.099842 
L 115.577394 217.78826 
L 115.622691 217.800318 
L 115.713285 218.176204 
L 115.894473 220.299867 
L 116.664521 232.842347 
L 116.709818 232.818207 
L 116.845709 232.076461 
L 117.117491 228.385847 
L 117.796945 218.018284 
L 117.932836 217.564714 
L 117.978133 217.619706 
L 118.114024 218.43219 
L 118.340509 221.761491 
L 118.974667 232.73364 
L 119.065261 233.022633 
L 119.110558 232.999571 
L 119.246448 232.315737 
L 119.51823 228.872961 
L 120.288279 217.699298 
L 120.42417 217.38459 
L 120.514764 217.651643 
L 120.695952 219.340444 
L 121.058327 226.033186 
L 121.466 232.539451 
L 121.647188 233.168351 
L 121.737782 232.890404 
L 121.91897 231.345162 
L 122.326642 225.118151 
L 122.824909 218.163731 
L 123.051394 217.24372 
L 123.141988 217.456252 
L 123.323176 218.913735 
L 123.640255 224.109652 
L 124.183818 232.697545 
L 124.365006 233.263887 
L 124.4556 233.02223 
L 124.636788 231.649 
L 124.999164 226.653353 
L 125.633321 218.071856 
L 125.859806 217.184398 
L 125.9504 217.334974 
L 126.131588 218.53873 
L 126.448667 223.081636 
L 127.082824 232.643288 
L 127.264012 233.269804 
L 127.354606 233.126295 
L 127.535794 232.041362 
L 127.852873 228.343676 
L 128.713515 217.747672 
L 128.894703 217.236398 
L 128.985297 217.35357 
L 129.166485 218.35491 
L 129.438267 221.563835 
L 130.253612 232.68587 
L 130.4348 233.134902 
L 130.525394 232.983104 
L 130.706582 232.021672 
L 131.023661 228.809097 
L 132.020194 217.833013 
L 132.201382 217.415359 
L 132.291976 217.515034 
L 132.473164 218.347273 
L 132.744945 221.033252 
L 133.741479 232.643863 
L 133.87737 232.853122 
L 133.922667 232.82297 
L 134.058558 232.455566 
L 134.285042 231.058289 
L 134.738012 226.459943 
L 135.508061 218.768212 
L 135.779842 217.747974 
L 135.915733 217.774067 
L 136.096921 218.402087 
L 136.368703 220.532423 
L 137.048158 228.774351 
L 137.45583 231.974689 
L 137.682315 232.43117 
L 137.818206 232.258962 
L 138.044691 231.344572 
L 138.407067 228.713852 
L 139.675382 218.429089 
L 139.901867 218.084986 
L 140.037758 218.272068 
L 140.264242 219.249818 
L 140.626618 222.285752 
L 141.577855 231.099627 
L 141.849636 231.873348 
L 141.985527 231.888035 
L 142.166715 231.570458 
L 142.438497 230.50908 
L 142.891467 227.686667 
L 144.205079 218.829238 
L 144.431564 218.45678 
L 144.567455 218.540742 
L 144.748642 219.025946 
L 145.020424 220.505313 
L 145.518691 224.765318 
L 146.152848 229.78874 
L 146.515224 231.129626 
L 146.741709 231.333396 
L 146.922897 231.200148 
L 147.194679 230.610411 
L 147.602352 229.08016 
L 148.191212 225.882202 
L 149.368933 219.240045 
L 149.640715 218.774818 
L 149.776606 218.81596 
L 149.957794 219.170119 
L 150.229576 220.312901 
L 150.682545 223.410954 
L 151.497891 229.020272 
L 151.905564 230.388637 
L 152.177345 230.711077 
L 152.40383 230.700787 
L 152.675612 230.441859 
L 153.083285 229.682932 
L 153.581552 228.211023 
L 154.125115 225.857705 
L 155.529321 219.271194 
L 155.755806 219.014372 
L 155.936994 219.109623 
L 156.163479 219.613084 
L 156.480558 220.964254 
L 157.160012 225.201746 
L 157.79417 228.496497 
L 158.201842 229.621346 
L 158.564218 230.057476 
L 158.926594 230.153008 
L 159.334267 230.025452 
L 159.787236 229.665155 
L 160.240206 229.018856 
L 160.693176 227.981715 
L 161.236739 226.132116 
L 162.142679 222.017797 
L 162.731539 219.804677 
L 163.048618 219.261243 
L 163.229806 219.232173 
L 163.410994 219.422727 
L 163.682776 220.107887 
L 164.090448 221.863104 
L 165.358764 227.851595 
L 165.811733 228.866936 
L 166.264703 229.367596 
L 166.853564 229.649501 
L 167.668909 229.776038 
L 168.348364 229.656223 
L 168.937224 229.320865 
L 169.480788 228.75672 
L 170.024352 227.852576 
L 170.567915 226.497824 
L 171.24737 224.125079 
L 172.425091 219.900699 
L 172.74217 219.432283 
L 172.968655 219.412232 
L 173.195139 219.671321 
L 173.512218 220.474238 
L 174.010485 222.479673 
L 175.052315 226.714736 
L 175.550582 227.839098 
L 176.048848 228.44419 
L 176.683006 228.836032 
L 177.634242 229.138247 
L 178.630776 229.227233 
L 179.717903 229.097898 
L 180.533248 228.795985 
L 181.167406 228.336448 
L 181.756267 227.618196 
L 182.29983 226.596655 
L 182.933988 224.874277 
L 184.70057 219.615445 
L 184.972352 219.505605 
L 185.198836 219.674885 
L 185.515915 220.296112 
L 185.968885 221.787857 
L 187.2372 226.279789 
L 187.735467 227.218136 
L 188.233733 227.728401 
L 188.822594 228.016023 
L 189.502048 228.10686 
L 190.136206 227.976105 
L 190.725067 227.618849 
L 191.26863 227.024809 
L 191.812194 226.103906 
L 192.446352 224.549746 
L 194.212933 219.732336 
L 194.484715 219.583997 
L 194.7112 219.688069 
L 194.982982 220.083782 
L 195.390655 221.145372 
L 197.111939 226.290338 
L 197.610206 226.908198 
L 198.108473 227.203127 
L 198.652036 227.281369 
L 199.1956 227.146454 
L 199.739164 226.770443 
L 200.282727 226.096799 
L 200.871588 224.972113 
L 201.596339 223.054478 
L 202.683467 220.174161 
L 203.045842 219.715418 
L 203.317624 219.66154 
L 203.589406 219.876063 
L 203.951782 220.549721 
L 204.540642 222.278035 
L 205.537176 225.157491 
L 206.080739 226.066695 
L 206.579006 226.491098 
L 207.077273 226.629175 
L 207.575539 226.541608 
L 208.073806 226.231185 
L 208.61737 225.602189 
L 209.20623 224.536777 
L 209.976279 222.614417 
L 210.972812 220.202802 
L 211.380485 219.744972 
L 211.652267 219.72374 
L 211.924048 219.945289 
L 212.286424 220.586246 
L 212.875285 222.182621 
L 213.871818 224.815756 
L 214.415382 225.64397 
L 214.913648 226.012064 
L 215.366618 226.090391 
L 215.864885 225.938938 
L 216.363152 225.540219 
L 216.906715 224.798391 
L 217.540873 223.52472 
L 219.171564 219.958125 
L 219.488642 219.753524 
L 219.760424 219.813966 
L 220.077503 220.160401 
L 220.530473 221.083851 
L 222.206461 224.991748 
L 222.704727 225.479225 
L 223.157697 225.636556 
L 223.610667 225.564554 
L 224.108933 225.23877 
L 224.652497 224.581209 
L 225.286655 223.419886 
L 227.007939 219.94583 
L 227.325018 219.786503 
L 227.5968 219.868926 
L 227.913879 220.217071 
L 228.366848 221.098609 
L 229.997539 224.654665 
L 230.495806 225.116943 
L 230.948776 225.252663 
L 231.401745 225.152913 
L 231.900012 224.789314 
L 232.443576 224.091562 
L 233.12303 222.818873 
L 234.481939 220.141237 
L 234.889612 219.832196 
L 235.206691 219.876151 
L 235.52377 220.174094 
L 235.976739 220.967083 
L 237.743321 224.490866 
L 238.241588 224.853681 
L 238.694558 224.910175 
L 239.147527 224.733895 
L 239.645794 224.285888 
L 240.234655 223.429398 
L 241.140594 221.630201 
L 241.910642 220.256932 
L 242.318315 219.891331 
L 242.635394 219.864493 
L 242.952473 220.07726 
L 243.360145 220.664192 
L 244.130194 222.302596 
L 244.945539 223.849398 
L 245.489103 224.431948 
L 245.942073 224.619274 
L 246.395042 224.560555 
L 246.848012 224.275634 
L 247.391576 223.652618 
L 248.07103 222.505959 
L 249.429939 220.141252 
L 249.837612 219.880843 
L 250.154691 219.928155 
L 250.517067 220.251797 
L 251.015333 221.072758 
L 252.55543 223.883494 
L 253.053697 224.27887 
L 253.506667 224.367027 
L 253.959636 224.218515 
L 254.457903 223.802399 
L 255.046764 223.002419 
L 257.03983 219.946039 
L 257.402206 219.913475 
L 257.719285 220.110864 
L 258.126958 220.638847 
L 258.897006 222.099595 
L 259.712352 223.480683 
L 260.255915 223.993927 
L 260.708885 224.139871 
L 261.161855 224.04642 
L 261.660121 223.689358 
L 262.248982 222.960014 
L 263.200218 221.339244 
L 263.970267 220.209854 
L 264.377939 219.935433 
L 264.740315 219.957964 
L 265.102691 220.236962 
L 265.600958 220.959778 
L 267.186352 223.546853 
L 267.684618 223.880382 
L 268.137588 223.925427 
L 268.590558 223.741764 
L 269.134121 223.246666 
L 269.813576 222.281772 
L 271.217782 220.171645 
L 271.625455 219.941422 
L 271.98783 219.992384 
L 272.350206 220.283939 
L 272.89377 221.071305 
L 274.297976 223.296673 
L 274.796242 223.66747 
L 275.249212 223.750712 
L 275.702182 223.605737 
L 276.200448 223.205789 
L 276.834606 222.391118 
L 278.465297 220.10074 
L 278.87297 219.946642 
L 279.235345 220.05671 
L 279.643018 220.443496 
L 280.277176 221.418308 
L 281.364303 223.066738 
L 281.907867 223.491516 
L 282.360836 223.586295 
L 282.813806 223.455916 
L 283.312073 223.075505 
L 283.94623 222.293398 
L 285.576921 220.105036 
L 285.984594 219.961034 
L 286.34697 220.068529 
L 286.754642 220.43952 
L 287.3888 221.371353 
L 288.475927 222.947175 
L 289.019491 223.350644 
L 289.472461 223.434566 
L 289.92543 223.298242 
L 290.468994 222.871968 
L 291.148448 222.019938 
L 292.552655 220.177041 
L 293.005624 219.976589 
L 293.368 220.051894 
L 293.775673 220.379599 
L 294.364533 221.179036 
L 295.587552 222.876626 
L 296.131115 223.237169 
L 296.584085 223.291857 
L 297.037055 223.132629 
L 297.580618 222.689002 
L 298.30537 221.775419 
L 299.528388 220.224251 
L 299.981358 219.995817 
L 300.343733 220.036032 
L 300.751406 220.317781 
L 301.340267 221.056931 
L 302.653879 222.80151 
L 303.197442 223.127463 
L 303.650412 223.15957 
L 304.148679 222.955481 
L 304.737539 222.432185 
L 305.643479 221.250641 
L 306.504121 220.245237 
L 306.957091 220.011053 
L 307.364764 220.053211 
L 307.772436 220.334598 
L 308.361297 221.053353 
L 309.629612 222.681539 
L 310.173176 223.007818 
L 310.626145 223.046247 
L 311.124412 222.853515 
L 311.713273 222.349267 
L 312.619212 221.208692 
L 313.479855 220.242808 
L 313.932824 220.020027 
L 314.340497 220.062792 
L 314.793467 220.377752 
L 315.427624 221.15176 
L 316.560048 222.555351 
L 317.103612 222.891137 
L 317.601879 222.937644 
L 318.100145 222.743237 
L 318.689006 222.245293 
L 319.640242 221.079052 
L 320.455588 220.221856 
L 320.908558 220.024281 
L 321.31623 220.082127 
L 321.7692 220.401226 
L 322.448655 221.218735 
L 323.535782 222.497477 
L 324.079345 222.805405 
L 324.577612 222.832523 
L 325.075879 222.625489 
L 325.664739 222.123511 
L 327.7484 220.048509 
L 328.156073 220.059399 
L 328.609042 220.322768 
L 329.197903 220.962025 
L 330.511515 222.460828 
L 331.055079 222.730446 
L 331.553345 222.72824 
L 332.051612 222.499651 
L 332.68577 221.937744 
L 334.542945 220.087981 
L 334.995915 220.051188 
L 335.448885 220.272558 
L 336.037745 220.863649 
L 337.487248 222.438698 
L 338.030812 222.661056 
L 338.529079 222.621378 
L 339.072642 222.331265 
L 339.570909 221.88097 
L 339.570909 221.88097 
" clip-path="url(#p8a45183429)" style="fill: none; stroke: #1f77b4; stroke-width: 1.5; stroke-linecap: square"/>
   </g>
   <g id="patch_13">
    <path d="M 54.2 318.04 
L 54.2 187.210836 
" style="fill: none; stroke: #000000; stroke-width: 0.8; stroke-linejoin: miter; stroke-linecap: square"/>
   </g>
   <g id="patch_14">
    <path d="M 353.16 318.04 
L 353.16 187.210836 
" style="fill: none; stroke: #000000; stroke-width: 0.8; stroke-linejoin: miter; stroke-linecap: square"/>
   </g>
   <g id="patch_15">
    <path d="M 54.2 318.04 
L 353.16 318.04 
" style="fill: none; stroke: #000000; stroke-width: 0.8; stroke-linejoin: miter; stroke-linecap: square"/>
   </g>
   <g id="patch_16">
    <path d="M 54.2 187.210836 
L 353.16 187.210836 
" style="fill: none; stroke: #000000; stroke-width: 0.8; stroke-linejoin: miter; stroke-linecap: square"/>
   </g>
  </g>
  <g id="axes_4">
   <g id="patch_17">
    <path d="M 410.24 318.04 
L 709.2 318.04 
L 709.2 187.210836 
L 410.24 187.210836 
z
" style="fill: #ffffff"/>
   </g>
   <g id="matplotlib.axis_7">
    <g id="xtick_22">
     <g id="line2d_40">
      <g>
       <use xlink:href="#m3da328c463" x="423.829091" y="318.04" style="stroke: #000000; stroke-width: 0.8"/>
      </g>
     </g>
     <g id="text_43">
      <!-- 0 -->
      <g transform="translate(420.647841 332.638438) scale(0.1 -0.1)">
       <use xlink:href="#DejaVuSans-30"/>
      </g>
     </g>
    </g>
    <g id="xtick_23">
     <g id="line2d_41">
      <g>
       <use xlink:href="#m3da328c463" x="469.126061" y="318.04" style="stroke: #000000; stroke-width: 0.8"/>
      </g>
     </g>
     <g id="text_44">
      <!-- 100 -->
      <g transform="translate(459.582311 332.638438) scale(0.1 -0.1)">
       <use xlink:href="#DejaVuSans-31"/>
       <use xlink:href="#DejaVuSans-30" x="63.623047"/>
       <use xlink:href="#DejaVuSans-30" x="127.246094"/>
      </g>
     </g>
    </g>
    <g id="xtick_24">
     <g id="line2d_42">
      <g>
       <use xlink:href="#m3da328c463" x="514.42303" y="318.04" style="stroke: #000000; stroke-width: 0.8"/>
      </g>
     </g>
     <g id="text_45">
      <!-- 200 -->
      <g transform="translate(504.87928 332.638438) scale(0.1 -0.1)">
       <use xlink:href="#DejaVuSans-32"/>
       <use xlink:href="#DejaVuSans-30" x="63.623047"/>
       <use xlink:href="#DejaVuSans-30" x="127.246094"/>
      </g>
     </g>
    </g>
    <g id="xtick_25">
     <g id="line2d_43">
      <g>
       <use xlink:href="#m3da328c463" x="559.72" y="318.04" style="stroke: #000000; stroke-width: 0.8"/>
      </g>
     </g>
     <g id="text_46">
      <!-- 300 -->
      <g transform="translate(550.17625 332.638438) scale(0.1 -0.1)">
       <use xlink:href="#DejaVuSans-33"/>
       <use xlink:href="#DejaVuSans-30" x="63.623047"/>
       <use xlink:href="#DejaVuSans-30" x="127.246094"/>
      </g>
     </g>
    </g>
    <g id="xtick_26">
     <g id="line2d_44">
      <g>
       <use xlink:href="#m3da328c463" x="605.01697" y="318.04" style="stroke: #000000; stroke-width: 0.8"/>
      </g>
     </g>
     <g id="text_47">
      <!-- 400 -->
      <g transform="translate(595.47322 332.638438) scale(0.1 -0.1)">
       <use xlink:href="#DejaVuSans-34"/>
       <use xlink:href="#DejaVuSans-30" x="63.623047"/>
       <use xlink:href="#DejaVuSans-30" x="127.246094"/>
      </g>
     </g>
    </g>
    <g id="xtick_27">
     <g id="line2d_45">
      <g>
       <use xlink:href="#m3da328c463" x="650.313939" y="318.04" style="stroke: #000000; stroke-width: 0.8"/>
      </g>
     </g>
     <g id="text_48">
      <!-- 500 -->
      <g transform="translate(640.770189 332.638438) scale(0.1 -0.1)">
       <use xlink:href="#DejaVuSans-35"/>
       <use xlink:href="#DejaVuSans-30" x="63.623047"/>
       <use xlink:href="#DejaVuSans-30" x="127.246094"/>
      </g>
     </g>
    </g>
    <g id="xtick_28">
     <g id="line2d_46">
      <g>
       <use xlink:href="#m3da328c463" x="695.610909" y="318.04" style="stroke: #000000; stroke-width: 0.8"/>
      </g>
     </g>
     <g id="text_49">
      <!-- 600 -->
      <g transform="translate(686.067159 332.638438) scale(0.1 -0.1)">
       <use xlink:href="#DejaVuSans-36"/>
       <use xlink:href="#DejaVuSans-30" x="63.623047"/>
       <use xlink:href="#DejaVuSans-30" x="127.246094"/>
      </g>
     </g>
    </g>
    <g id="text_50">
     <!-- $t$ -->
     <g transform="translate(557.72 346.316563) scale(0.1 -0.1)">
      <use xlink:href="#DejaVuSans-Oblique-74" transform="translate(0 0.78125)"/>
     </g>
    </g>
   </g>
   <g id="matplotlib.axis_8">
    <g id="ytick_16">
     <g id="line2d_47">
      <g>
       <use xlink:href="#m04244e83c5" x="410.24" y="312.09322" style="stroke: #000000; stroke-width: 0.8"/>
      </g>
     </g>
     <g id="text_51">
      <!-- 0.00 -->
      <g transform="translate(380.974375 315.892439) scale(0.1 -0.1)">
       <use xlink:href="#DejaVuSans-30"/>
       <use xlink:href="#DejaVuSans-2e" x="63.623047"/>
       <use xlink:href="#DejaVuSans-30" x="95.410156"/>
       <use xlink:href="#DejaVuSans-30" x="159.033203"/>
      </g>
     </g>
    </g>
    <g id="ytick_17">
     <g id="line2d_48">
      <g>
       <use xlink:href="#m04244e83c5" x="410.24" y="281.102834" style="stroke: #000000; stroke-width: 0.8"/>
      </g>
     </g>
     <g id="text_52">
      <!-- 0.02 -->
      <g transform="translate(380.974375 284.902052) scale(0.1 -0.1)">
       <use xlink:href="#DejaVuSans-30"/>
       <use xlink:href="#DejaVuSans-2e" x="63.623047"/>
       <use xlink:href="#DejaVuSans-30" x="95.410156"/>
       <use xlink:href="#DejaVuSans-32" x="159.033203"/>
      </g>
     </g>
    </g>
    <g id="ytick_18">
     <g id="line2d_49">
      <g>
       <use xlink:href="#m04244e83c5" x="410.24" y="250.112448" style="stroke: #000000; stroke-width: 0.8"/>
      </g>
     </g>
     <g id="text_53">
      <!-- 0.04 -->
      <g transform="translate(380.974375 253.911666) scale(0.1 -0.1)">
       <use xlink:href="#DejaVuSans-30"/>
       <use xlink:href="#DejaVuSans-2e" x="63.623047"/>
       <use xlink:href="#DejaVuSans-30" x="95.410156"/>
       <use xlink:href="#DejaVuSans-34" x="159.033203"/>
      </g>
     </g>
    </g>
    <g id="ytick_19">
     <g id="line2d_50">
      <g>
       <use xlink:href="#m04244e83c5" x="410.24" y="219.122061" style="stroke: #000000; stroke-width: 0.8"/>
      </g>
     </g>
     <g id="text_54">
      <!-- 0.06 -->
      <g transform="translate(380.974375 222.92128) scale(0.1 -0.1)">
       <use xlink:href="#DejaVuSans-30"/>
       <use xlink:href="#DejaVuSans-2e" x="63.623047"/>
       <use xlink:href="#DejaVuSans-30" x="95.410156"/>
       <use xlink:href="#DejaVuSans-36" x="159.033203"/>
      </g>
     </g>
    </g>
    <g id="ytick_20">
     <g id="line2d_51">
      <g>
       <use xlink:href="#m04244e83c5" x="410.24" y="188.131675" style="stroke: #000000; stroke-width: 0.8"/>
      </g>
     </g>
     <g id="text_55">
      <!-- 0.08 -->
      <g transform="translate(380.974375 191.930894) scale(0.1 -0.1)">
       <defs>
        <path id="DejaVuSans-38" d="M 2034 2216 
Q 1584 2216 1326 1975 
Q 1069 1734 1069 1313 
Q 1069 891 1326 650 
Q 1584 409 2034 409 
Q 2484 409 2743 651 
Q 3003 894 3003 1313 
Q 3003 1734 2745 1975 
Q 2488 2216 2034 2216 
z
M 1403 2484 
Q 997 2584 770 2862 
Q 544 3141 544 3541 
Q 544 4100 942 4425 
Q 1341 4750 2034 4750 
Q 2731 4750 3128 4425 
Q 3525 4100 3525 3541 
Q 3525 3141 3298 2862 
Q 3072 2584 2669 2484 
Q 3125 2378 3379 2068 
Q 3634 1759 3634 1313 
Q 3634 634 3220 271 
Q 2806 -91 2034 -91 
Q 1263 -91 848 271 
Q 434 634 434 1313 
Q 434 1759 690 2068 
Q 947 2378 1403 2484 
z
M 1172 3481 
Q 1172 3119 1398 2916 
Q 1625 2713 2034 2713 
Q 2441 2713 2670 2916 
Q 2900 3119 2900 3481 
Q 2900 3844 2670 4047 
Q 2441 4250 2034 4250 
Q 1625 4250 1398 4047 
Q 1172 3844 1172 3481 
z
" transform="scale(0.015625)"/>
       </defs>
       <use xlink:href="#DejaVuSans-30"/>
       <use xlink:href="#DejaVuSans-2e" x="63.623047"/>
       <use xlink:href="#DejaVuSans-30" x="95.410156"/>
       <use xlink:href="#DejaVuSans-38" x="159.033203"/>
      </g>
     </g>
    </g>
    <g id="text_56">
     <!-- $sigma$ -->
     <g transform="translate(374.874375 267.775418) rotate(-90) scale(0.1 -0.1)">
      <defs>
       <path id="DejaVuSans-Oblique-73" d="M 3200 3397 
L 3091 2853 
Q 2863 2978 2609 3040 
Q 2356 3103 2088 3103 
Q 1634 3103 1373 2948 
Q 1113 2794 1113 2528 
Q 1113 2219 1719 2053 
Q 1766 2041 1788 2034 
L 1972 1978 
Q 2547 1819 2739 1644 
Q 2931 1469 2931 1166 
Q 2931 609 2489 259 
Q 2047 -91 1331 -91 
Q 1053 -91 747 -37 
Q 441 16 72 128 
L 184 722 
Q 500 559 806 475 
Q 1113 391 1394 391 
Q 1816 391 2080 572 
Q 2344 753 2344 1031 
Q 2344 1331 1650 1516 
L 1591 1531 
L 1394 1581 
Q 956 1697 753 1886 
Q 550 2075 550 2369 
Q 550 2928 970 3256 
Q 1391 3584 2113 3584 
Q 2397 3584 2667 3537 
Q 2938 3491 3200 3397 
z
" transform="scale(0.015625)"/>
       <path id="DejaVuSans-Oblique-69" d="M 1172 4863 
L 1747 4863 
L 1606 4134 
L 1031 4134 
L 1172 4863 
z
M 909 3500 
L 1484 3500 
L 800 0 
L 225 0 
L 909 3500 
z
" transform="scale(0.015625)"/>
       <path id="DejaVuSans-Oblique-67" d="M 3816 3500 
L 3219 434 
Q 3047 -456 2561 -893 
Q 2075 -1331 1253 -1331 
Q 950 -1331 690 -1286 
Q 431 -1241 206 -1147 
L 313 -588 
Q 525 -725 762 -790 
Q 1000 -856 1269 -856 
Q 1816 -856 2167 -557 
Q 2519 -259 2631 300 
L 2681 563 
Q 2441 288 2122 144 
Q 1803 0 1434 0 
Q 903 0 598 351 
Q 294 703 294 1319 
Q 294 1803 478 2267 
Q 663 2731 997 3091 
Q 1219 3328 1514 3456 
Q 1809 3584 2131 3584 
Q 2484 3584 2746 3420 
Q 3009 3256 3138 2956 
L 3238 3500 
L 3816 3500 
z
M 2950 2216 
Q 2950 2641 2750 2872 
Q 2550 3103 2181 3103 
Q 1953 3103 1747 3012 
Q 1541 2922 1394 2759 
Q 1156 2491 1023 2127 
Q 891 1763 891 1375 
Q 891 944 1092 712 
Q 1294 481 1672 481 
Q 2219 481 2584 976 
Q 2950 1472 2950 2216 
z
" transform="scale(0.015625)"/>
       <path id="DejaVuSans-Oblique-6d" d="M 5747 2113 
L 5338 0 
L 4763 0 
L 5166 2094 
Q 5191 2228 5203 2325 
Q 5216 2422 5216 2491 
Q 5216 2772 5059 2928 
Q 4903 3084 4622 3084 
Q 4203 3084 3875 2770 
Q 3547 2456 3450 1953 
L 3066 0 
L 2491 0 
L 2900 2094 
Q 2925 2209 2937 2307 
Q 2950 2406 2950 2484 
Q 2950 2769 2794 2926 
Q 2638 3084 2363 3084 
Q 1938 3084 1609 2770 
Q 1281 2456 1184 1953 
L 800 0 
L 225 0 
L 909 3500 
L 1484 3500 
L 1375 2956 
Q 1609 3263 1923 3423 
Q 2238 3584 2597 3584 
Q 2978 3584 3223 3384 
Q 3469 3184 3519 2828 
Q 3781 3197 4126 3390 
Q 4472 3584 4856 3584 
Q 5306 3584 5551 3325 
Q 5797 3066 5797 2591 
Q 5797 2488 5784 2364 
Q 5772 2241 5747 2113 
z
" transform="scale(0.015625)"/>
       <path id="DejaVuSans-Oblique-61" d="M 3438 1997 
L 3047 0 
L 2472 0 
L 2578 531 
Q 2325 219 2001 64 
Q 1678 -91 1281 -91 
Q 834 -91 548 182 
Q 263 456 263 884 
Q 263 1497 752 1853 
Q 1241 2209 2100 2209 
L 2900 2209 
L 2931 2363 
Q 2938 2388 2941 2417 
Q 2944 2447 2944 2509 
Q 2944 2788 2717 2942 
Q 2491 3097 2081 3097 
Q 1800 3097 1504 3025 
Q 1209 2953 897 2809 
L 997 3341 
Q 1322 3463 1633 3523 
Q 1944 3584 2234 3584 
Q 2853 3584 3176 3315 
Q 3500 3047 3500 2534 
Q 3500 2431 3484 2292 
Q 3469 2153 3438 1997 
z
M 2816 1759 
L 2241 1759 
Q 1534 1759 1195 1570 
Q 856 1381 856 984 
Q 856 709 1029 553 
Q 1203 397 1509 397 
Q 1978 397 2328 733 
Q 2678 1069 2791 1631 
L 2816 1759 
z
" transform="scale(0.015625)"/>
      </defs>
      <use xlink:href="#DejaVuSans-Oblique-73" transform="translate(0 0.015625)"/>
      <use xlink:href="#DejaVuSans-Oblique-69" transform="translate(52.099609 0.015625)"/>
      <use xlink:href="#DejaVuSans-Oblique-67" transform="translate(79.882812 0.015625)"/>
      <use xlink:href="#DejaVuSans-Oblique-6d" transform="translate(143.359375 0.015625)"/>
      <use xlink:href="#DejaVuSans-Oblique-61" transform="translate(240.771484 0.015625)"/>
     </g>
    </g>
   </g>
   <g id="line2d_52">
    <path d="M 423.829091 312.09322 
L 423.964982 312.052529 
L 424.055576 311.117257 
L 424.14617 306.360654 
L 424.417952 272.486286 
L 424.508545 276.294739 
L 424.689733 296.35036 
L 424.73503 292.98167 
L 424.870921 249.420038 
L 425.052109 193.584229 
L 425.097406 195.376105 
L 425.278594 248.784999 
L 425.369188 267.645929 
L 425.414485 267.522253 
L 425.550376 232.37168 
L 425.731564 193.157616 
L 425.822158 207.11824 
L 426.093939 268.930831 
L 426.184533 256.760624 
L 426.411018 211.68755 
L 426.456315 213.392331 
L 426.637503 253.175686 
L 426.773394 275.254718 
L 426.818691 274.065814 
L 426.954582 246.068391 
L 427.13577 210.872977 
L 427.181067 212.292755 
L 427.316958 239.48399 
L 427.498145 274.885377 
L 427.543442 274.073945 
L 427.679333 245.862844 
L 427.860521 206.676008 
L 427.905818 207.035903 
L 428.041709 232.894994 
L 428.268194 274.196773 
L 428.358788 262.512106 
L 428.63057 206.39417 
L 428.675867 209.151899 
L 428.857055 250.885128 
L 428.992945 274.673012 
L 429.038242 274.550615 
L 429.174133 249.339652 
L 429.400618 207.333912 
L 429.491212 217.613651 
L 429.808291 275.805601 
L 429.898885 263.381311 
L 430.170667 207.471567 
L 430.215964 209.285471 
L 430.351855 235.65161 
L 430.578339 277.132667 
L 430.668933 269.059158 
L 430.986012 208.031384 
L 431.031309 211.135333 
L 431.257794 261.803311 
L 431.393685 278.21444 
L 431.438982 275.942405 
L 431.62017 236.204386 
L 431.801358 208.773427 
L 431.891952 217.637362 
L 432.20903 279.289626 
L 432.254327 278.466215 
L 432.390218 254.800223 
L 432.616703 210.058324 
L 432.662 210.418196 
L 432.797891 231.709945 
L 433.069673 280.777 
L 433.160267 273.988284 
L 433.477345 211.229075 
L 433.567939 215.422194 
L 433.930315 281.946337 
L 434.020909 277.47918 
L 434.383285 212.212064 
L 434.473879 219.479415 
L 434.836255 283.623497 
L 434.881552 282.490533 
L 435.017442 260.68219 
L 435.289224 213.658793 
L 435.379818 220.378552 
L 435.742194 284.778352 
L 435.832788 281.521578 
L 436.013976 245.077246 
L 436.240461 215.54472 
L 436.331055 224.35337 
L 436.69343 286.467709 
L 436.738727 286.108252 
L 436.874618 267.881493 
L 437.191697 216.984394 
L 437.282291 224.553857 
L 437.689964 288.170177 
L 437.735261 286.30726 
L 437.871152 265.359359 
L 438.142933 218.807457 
L 438.18823 218.978668 
L 438.324121 234.820188 
L 438.686497 289.679119 
L 438.777091 283.969756 
L 439.184764 220.282679 
L 439.275358 226.491636 
L 439.728327 290.992355 
L 439.773624 288.87489 
L 439.954812 259.331832 
L 440.226594 221.992297 
L 440.317188 227.737375 
L 440.770158 292.517658 
L 440.860752 288.090624 
L 441.087236 247.157135 
L 441.313721 223.936222 
L 441.404315 230.600308 
L 441.857285 293.82484 
L 441.947879 290.149279 
L 442.129067 260.642213 
L 442.400848 225.388631 
L 442.491442 229.925144 
L 442.763224 273.059541 
L 442.989709 295.135081 
L 443.080303 291.043478 
L 443.306788 253.255244 
L 443.533273 227.097526 
L 443.57857 227.875088 
L 443.714461 241.123546 
L 444.16743 296.220861 
L 444.258024 290.902116 
L 444.529806 245.207303 
L 444.710994 228.75528 
L 444.801588 232.248261 
L 445.028073 263.342801 
L 445.345152 297.467166 
L 445.435745 294.079536 
L 445.616933 268.313241 
L 445.888715 231.125258 
L 445.934012 230.407909 
L 446.024606 234.413041 
L 446.251091 264.463538 
L 446.56817 298.414865 
L 446.613467 298.195021 
L 446.704061 292.580216 
L 446.975842 249.554577 
L 447.202327 232.217955 
L 447.292921 237.024609 
L 447.564703 273.031242 
L 447.836485 299.268417 
L 447.881782 299.362751 
L 447.972376 294.710874 
L 448.198861 261.563964 
L 448.470642 233.637223 
L 448.561236 236.469462 
L 448.787721 262.084238 
L 449.150097 300.06688 
L 449.195394 300.356967 
L 449.285988 296.421757 
L 449.512473 265.435916 
L 449.784255 235.517346 
L 449.829552 235.35284 
L 449.920145 239.247427 
L 450.14663 264.520998 
L 450.509006 300.777047 
L 450.554303 301.238381 
L 450.644897 297.958414 
L 450.826085 276.356355 
L 451.143164 237.776955 
L 451.188461 236.860066 
L 451.233758 237.340301 
L 451.369648 245.784323 
L 451.958509 302.011277 
L 452.003806 301.413888 
L 452.139697 291.768261 
L 452.637964 238.503667 
L 452.728558 241.416583 
L 452.955042 262.459123 
L 453.408012 302.611457 
L 453.453309 302.45746 
L 453.543903 298.432734 
L 453.770388 270.935742 
L 454.087467 240.285925 
L 454.132764 240.245032 
L 454.223358 243.343415 
L 454.449842 263.072708 
L 454.902812 302.855319 
L 454.948109 303.30238 
L 455.038703 300.775826 
L 455.219891 282.967696 
L 455.627564 241.959245 
L 455.672861 241.927774 
L 455.763455 244.714849 
L 455.989939 262.522359 
L 456.488206 303.585262 
L 456.533503 303.812147 
L 456.624097 301.046006 
L 456.805285 283.720806 
L 457.212958 243.891616 
L 457.258255 243.569995 
L 457.348848 245.544131 
L 457.575333 260.751708 
L 458.164194 304.33724 
L 458.254788 302.135416 
L 458.435976 286.516976 
L 458.843648 246.415944 
L 458.934242 245.43195 
L 459.024836 247.511348 
L 459.251321 261.354907 
L 459.885479 304.69797 
L 459.976073 302.013061 
L 460.157261 286.480935 
L 460.564933 248.509597 
L 460.655527 247.225791 
L 460.700824 247.640227 
L 460.836715 252.159501 
L 461.153794 273.990682 
L 461.606764 304.893757 
L 461.652061 305.177606 
L 461.742655 303.143654 
L 461.923842 289.441234 
L 462.376812 250.206883 
L 462.467406 249.118918 
L 462.512703 249.460136 
L 462.648594 253.220111 
L 462.920376 268.9247 
L 463.509236 305.568537 
L 463.59983 303.681963 
L 463.781018 291.039164 
L 464.279285 251.809995 
L 464.369879 251.009212 
L 464.415176 251.317355 
L 464.551067 254.444297 
L 464.822848 268.086673 
L 465.457006 305.943382 
L 465.5476 304.048911 
L 465.728788 292.227564 
L 466.227055 254.479982 
L 466.362945 252.791295 
L 466.453539 253.515541 
L 466.634727 258.277058 
L 466.906509 272.982992 
L 467.450073 306.212878 
L 467.49537 306.34976 
L 467.585964 304.592021 
L 467.767152 293.819999 
L 468.310715 256.220028 
L 468.491903 254.357298 
L 468.582497 255.089687 
L 468.763685 259.436787 
L 469.035467 273.768754 
L 469.57903 306.516261 
L 469.624327 306.816447 
L 469.669624 306.50479 
L 469.805515 302.000802 
L 470.122594 278.514092 
L 470.48497 258.378347 
L 470.711455 255.385806 
L 470.802048 255.771752 
L 470.937939 258.078918 
L 471.164424 267.31901 
L 471.889176 307.282621 
L 471.934473 306.935123 
L 472.070364 302.74643 
L 472.387442 281.515156 
L 472.795115 260.035149 
L 473.066897 255.779108 
L 473.112194 255.752635 
L 473.202788 256.373527 
L 473.383976 260.771738 
L 473.655758 275.62625 
L 474.199321 307.120528 
L 474.289915 307.763148 
L 474.380509 306.485269 
L 474.561697 298.922093 
L 475.331745 259.006305 
L 475.55823 255.529052 
L 475.603527 255.410199 
L 475.648824 255.524885 
L 475.784715 257.444844 
L 476.0112 266.343212 
L 476.826545 308.309977 
L 476.917139 307.320744 
L 477.098327 300.986099 
L 478.094861 256.113072 
L 478.276048 254.606335 
L 478.366642 255.307536 
L 478.54783 260.05923 
L 478.864909 277.684547 
L 479.408473 307.428472 
L 479.544364 308.853292 
L 479.634958 308.026371 
L 479.816145 302.691396 
L 481.039164 253.662781 
L 481.084461 253.491082 
L 481.129758 253.567891 
L 481.265648 255.374432 
L 481.492133 263.57685 
L 482.44337 309.379112 
L 482.488667 309.345993 
L 482.579261 308.422385 
L 482.760448 303.63509 
L 483.213418 283.246427 
L 483.892873 255.597384 
L 484.119358 252.315501 
L 484.164655 252.319016 
L 484.255248 253.053192 
L 484.436436 257.432219 
L 484.753515 272.831428 
L 485.43297 307.561112 
L 485.614158 309.911535 
L 485.659455 309.886188 
L 485.750048 309.14783 
L 485.931236 305.291537 
L 486.338909 289.679153 
L 487.244848 253.358087 
L 487.471333 251.197932 
L 487.561927 251.805422 
L 487.743115 255.58839 
L 488.060194 269.180573 
L 488.875539 308.028611 
L 489.102024 310.425741 
L 489.192618 310.057715 
L 489.373806 307.376497 
L 489.690885 298.127082 
L 490.370339 269.436145 
L 490.868606 252.487192 
L 491.095091 250.31477 
L 491.185685 250.718408 
L 491.366873 253.73442 
L 491.638655 263.18773 
L 492.771079 309.90745 
L 492.952267 310.857325 
L 493.042861 310.493941 
L 493.224048 308.309874 
L 493.541127 300.764559 
L 494.039394 282.438931 
L 494.854739 252.678427 
L 495.081224 249.874903 
L 495.126521 249.76143 
L 495.171818 249.803164 
L 495.307709 250.864218 
L 495.534194 255.64273 
L 495.89657 269.549402 
L 496.802509 306.483923 
L 497.119588 310.943131 
L 497.210182 311.225665 
L 497.255479 311.214482 
L 497.39137 310.609944 
L 497.617855 307.887538 
L 497.98023 299.767691 
L 498.523794 281.009417 
L 499.339139 253.320096 
L 499.610921 249.709095 
L 499.701515 249.479632 
L 499.746812 249.557395 
L 499.882703 250.565126 
L 500.109188 254.738859 
L 500.471564 266.727922 
L 501.558691 306.229777 
L 501.87577 310.669426 
L 502.102255 311.523737 
L 502.192848 311.38131 
L 502.374036 310.337697 
L 502.645818 307.012945 
L 503.008194 299.545853 
L 503.551758 283.002726 
L 504.502994 253.583063 
L 504.820073 249.608201 
L 504.910667 249.364456 
L 504.955964 249.400622 
L 505.091855 250.14669 
L 505.318339 253.462062 
L 505.680715 263.342578 
L 507.039624 306.207565 
L 507.402 310.560668 
L 507.673782 311.708602 
L 507.809673 311.68455 
L 507.990861 311.076132 
L 508.262642 308.97346 
L 508.625018 303.985623 
L 509.077988 294.375144 
L 509.802739 273.408705 
L 510.527491 254.153273 
L 510.84457 249.924176 
L 511.025758 249.265429 
L 511.116352 249.455649 
L 511.297539 250.88107 
L 511.569321 255.475756 
L 512.022291 268.042242 
L 513.109418 299.817711 
L 513.607685 307.639157 
L 514.015358 310.873166 
L 514.332436 311.84593 
L 514.513624 311.87641 
L 514.694812 311.545036 
L 514.966594 310.376476 
L 515.32897 307.535365 
L 515.781939 301.798912 
L 516.325503 291.558573 
L 517.095552 272.041481 
L 517.8656 253.94475 
L 518.227976 249.692426 
L 518.409164 249.149755 
L 518.499758 249.307256 
L 518.680945 250.482714 
L 518.952727 254.277114 
L 519.405697 264.785734 
L 520.719309 297.756366 
L 521.262873 305.131738 
L 521.761139 309.035196 
L 522.214109 310.999272 
L 522.576485 311.793285 
L 522.893564 312.028202 
L 523.120048 311.957019 
L 523.39183 311.614594 
L 523.754206 310.703246 
L 524.161879 308.975779 
L 524.614848 305.986545 
L 525.113115 301.037878 
L 525.656679 293.1781 
L 526.336133 279.547633 
L 527.649745 252.094018 
L 527.966824 249.39143 
L 528.102715 249.076397 
L 528.148012 249.090183 
L 528.283903 249.49086 
L 528.510388 251.3323 
L 528.827467 256.124174 
L 529.416327 269.427277 
L 530.367564 290.585312 
L 530.956424 298.885363 
L 531.499988 303.550855 
L 531.998255 306.143342 
L 532.496521 307.712067 
L 532.994788 308.611915 
L 533.447758 309.024031 
L 533.85543 309.135048 
L 534.263103 309.02182 
L 534.670776 308.672903 
L 535.123745 307.955395 
L 535.576715 306.784344 
L 536.029685 304.991938 
L 536.527952 302.024392 
L 537.026218 297.640555 
L 537.569782 290.789823 
L 538.203939 279.803758 
L 539.744036 251.234152 
L 540.061115 249.17553 
L 540.197006 249.037431 
L 540.332897 249.364823 
L 540.559382 250.927537 
L 540.876461 255.048628 
L 541.420024 265.695348 
L 542.552448 288.070441 
L 543.141309 295.148327 
L 543.639576 298.752649 
L 544.092545 300.610126 
L 544.454921 301.336163 
L 544.726703 301.497493 
L 544.953188 301.394616 
L 545.22497 300.986431 
L 545.587345 299.93458 
L 545.995018 297.978231 
L 546.447988 294.678368 
L 546.991552 288.863857 
L 547.625709 279.300837 
L 549.392291 250.253718 
L 549.664073 249.046848 
L 549.754667 249.00251 
L 549.799964 249.049197 
L 549.935855 249.464429 
L 550.162339 251.049235 
L 550.524715 255.6362 
L 551.158873 267.388011 
L 552.110109 284.309867 
L 552.69897 290.927765 
L 553.197236 294.161031 
L 553.604909 295.469155 
L 553.876691 295.76 
L 554.057879 295.711713 
L 554.284364 295.384055 
L 554.601442 294.421524 
L 555.009115 292.278535 
L 555.462085 288.599005 
L 556.005648 282.239743 
L 556.7304 270.769336 
L 557.862824 252.637653 
L 558.2252 249.636799 
L 558.451685 248.983085 
L 558.542279 249.007377 
L 558.67817 249.353734 
L 558.904655 250.737196 
L 559.26703 254.817719 
L 559.855891 264.624833 
L 560.897721 281.720404 
L 561.441285 287.324611 
L 561.894255 290.035002 
L 562.25663 291.055963 
L 562.483115 291.218967 
L 562.664303 291.097191 
L 562.890788 290.634672 
L 563.207867 289.406949 
L 563.615539 286.810896 
L 564.113806 282.034564 
L 564.747964 273.5305 
L 566.333358 250.792424 
L 566.650436 249.128116 
L 566.831624 248.971934 
L 566.967515 249.249428 
L 567.194 250.448839 
L 567.511079 253.533108 
L 568.054642 261.508041 
L 569.277661 280.005435 
L 569.821224 284.84765 
L 570.228897 286.829901 
L 570.545976 287.460245 
L 570.727164 287.480565 
L 570.908352 287.260462 
L 571.180133 286.485774 
L 571.542509 284.627367 
L 571.995479 280.98011 
L 572.584339 274.151224 
L 574.486812 249.751615 
L 574.758594 248.954589 
L 574.894485 249.016199 
L 575.075673 249.580277 
L 575.347455 251.410693 
L 575.755127 256.00774 
L 577.748194 281.693199 
L 578.155867 283.717066 
L 578.472945 284.358103 
L 578.654133 284.372052 
L 578.835321 284.136162 
L 579.107103 283.321953 
L 579.469479 281.391252 
L 579.922448 277.658618 
L 580.556606 270.248316 
L 582.096703 250.844488 
L 582.413782 249.201261 
L 582.59497 248.92901 
L 582.730861 249.059401 
L 582.912048 249.677287 
L 583.18383 251.502947 
L 583.6368 256.493611 
L 585.403382 278.474232 
L 585.856352 280.953208 
L 586.17343 281.69069 
L 586.354618 281.753584 
L 586.535806 281.561751 
L 586.807588 280.805982 
L 587.169964 278.947011 
L 587.622933 275.320756 
L 588.257091 268.174886 
L 589.706594 250.939272 
L 590.06897 249.14154 
L 590.250158 248.919117 
L 590.386048 249.064008 
L 590.567236 249.669686 
L 590.839018 251.411053 
L 591.291988 256.11393 
L 593.05857 276.674058 
L 593.466242 278.753139 
L 593.783321 279.442834 
L 593.964509 279.479328 
L 594.145697 279.261117 
L 594.417479 278.466602 
L 594.779855 276.564026 
L 595.278121 272.487249 
L 595.957576 264.798714 
L 597.135297 251.457634 
L 597.497673 249.384342 
L 597.724158 248.921001 
L 597.860048 248.97408 
L 598.041236 249.432826 
L 598.313018 250.914145 
L 598.720691 254.640355 
L 599.62663 265.866939 
L 600.351382 273.389318 
L 600.849648 276.435542 
L 601.166727 277.353662 
L 601.393212 277.524143 
L 601.5744 277.374405 
L 601.800885 276.837247 
L 602.117964 275.452567 
L 602.570933 272.276417 
L 603.205091 265.880901 
L 604.609297 250.905925 
L 604.971673 249.181708 
L 605.198158 248.905217 
L 605.334048 249.05216 
L 605.560533 249.812109 
L 605.877612 251.873323 
L 606.375879 256.886935 
L 607.825382 272.420147 
L 608.278352 274.898782 
L 608.59543 275.691246 
L 608.821915 275.780922 
L 609.003103 275.571556 
L 609.274885 274.800885 
L 609.637261 272.958708 
L 610.135527 269.05927 
L 610.905576 260.888391 
L 611.811515 251.712425 
L 612.219188 249.42049 
L 612.49097 248.900967 
L 612.626861 248.971123 
L 612.808048 249.407901 
L 613.07983 250.762741 
L 613.487503 254.119124 
L 614.393442 264.171094 
L 615.118194 270.872614 
L 615.571164 273.336318 
L 615.888242 274.145198 
L 616.114727 274.255726 
L 616.295915 274.067604 
L 616.567697 273.336283 
L 616.930073 271.562825 
L 617.428339 267.799552 
L 618.243685 259.480916 
L 619.104327 251.359639 
L 619.512 249.298219 
L 619.738485 248.901843 
L 619.874376 248.941819 
L 620.055564 249.320495 
L 620.327345 250.554842 
L 620.735018 253.678936 
L 621.550364 262.243523 
L 622.320412 269.326166 
L 622.818679 272.018643 
L 623.135758 272.792488 
L 623.362242 272.8884 
L 623.54343 272.694315 
L 623.815212 271.963804 
L 624.177588 270.212347 
L 624.675855 266.530957 
L 625.536497 258.061311 
L 626.306545 251.248152 
L 626.714218 249.280009 
L 626.940703 248.897694 
L 627.076594 248.93198 
L 627.257782 249.286593 
L 627.529564 250.451633 
L 627.937236 253.411395 
L 628.752582 261.560549 
L 629.52263 268.32276 
L 629.9756 270.718073 
L 630.292679 271.535037 
L 630.519164 271.67255 
L 630.700352 271.517097 
L 630.972133 270.852633 
L 631.334509 269.204194 
L 631.832776 265.694364 
L 632.693418 257.595524 
L 633.463467 251.106792 
L 633.871139 249.24605 
L 634.097624 248.891165 
L 634.233515 248.92937 
L 634.414703 249.274179 
L 634.686485 250.393234 
L 635.094158 253.223706 
L 635.909503 261.005235 
L 636.679552 267.453718 
L 637.132521 269.716102 
L 637.4496 270.463095 
L 637.676085 270.561638 
L 637.857273 270.381593 
L 638.129055 269.691782 
L 638.49143 268.033933 
L 638.989697 264.568275 
L 639.98623 255.50974 
L 640.620388 250.715985 
L 640.982764 249.215594 
L 641.209248 248.88548 
L 641.345139 248.927168 
L 641.526327 249.262995 
L 641.798109 250.340227 
L 642.205782 253.053208 
L 643.021127 260.499618 
L 643.791176 266.66077 
L 644.244145 268.802158 
L 644.561224 269.486735 
L 644.787709 269.551584 
L 644.968897 269.351165 
L 645.240679 268.642324 
L 645.603055 266.983154 
L 646.101321 263.570224 
L 647.958497 249.458461 
L 648.230279 248.908121 
L 648.411467 248.92026 
L 648.592655 249.238856 
L 648.864436 250.265434 
L 649.272109 252.85675 
L 650.087455 259.989263 
L 650.857503 265.902809 
L 651.310473 267.948793 
L 651.627552 268.588829 
L 651.854036 268.632565 
L 652.080521 268.335339 
L 652.352303 267.54438 
L 652.759976 265.541469 
L 653.348836 261.274101 
L 654.798339 250.176569 
L 655.160715 249.026194 
L 655.3872 248.879954 
L 655.568388 249.09393 
L 655.84017 249.949728 
L 656.202545 251.971134 
L 656.836703 257.062181 
L 657.833236 264.88578 
L 658.331503 267.135923 
L 658.648582 267.756729 
L 658.875067 267.797227 
L 659.101552 267.505128 
L 659.41863 266.559391 
L 659.826303 264.507784 
L 660.460461 259.90416 
L 661.683479 250.68014 
L 662.091152 249.149264 
L 662.317636 248.87326 
L 662.498824 248.969231 
L 662.725309 249.481729 
L 663.042388 250.87651 
L 663.540655 254.296941 
L 664.990158 265.09359 
L 665.39783 266.592044 
L 665.714909 267.041549 
L 665.896097 267.010136 
L 666.122582 266.680207 
L 666.439661 265.698749 
L 666.89263 263.357808 
L 667.572085 258.385938 
L 668.613915 250.823472 
L 669.021588 249.229929 
L 669.29337 248.869762 
L 669.474558 248.967415 
L 669.701042 249.466624 
L 670.018121 250.815737 
L 670.516388 254.114627 
L 671.965891 264.503575 
L 672.373564 265.929078 
L 672.645345 266.319468 
L 672.826533 266.324065 
L 673.053018 266.045241 
L 673.370097 265.144731 
L 673.77777 263.197795 
L 674.411927 258.863097 
L 675.589648 250.602406 
L 675.997321 249.148995 
L 676.269103 248.864781 
L 676.450291 249.001275 
L 676.676776 249.533044 
L 677.039152 251.141258 
L 677.582715 254.818556 
L 678.805733 263.4317 
L 679.258703 265.162787 
L 679.575782 265.662562 
L 679.75697 265.674107 
L 679.983455 265.41067 
L 680.300533 264.543619 
L 680.708206 262.659253 
L 681.342364 258.461483 
L 682.520085 250.503002 
L 682.927758 249.121506 
L 683.154242 248.867012 
L 683.33543 248.946152 
L 683.561915 249.39568 
L 683.878994 250.631307 
L 684.377261 253.680073 
L 685.872061 263.572383 
L 686.279733 264.799792 
L 686.551515 265.082614 
L 686.732703 265.027912 
L 686.959188 264.690241 
L 687.276267 263.738774 
L 687.729236 261.527614 
L 688.453988 256.620533 
L 689.359927 250.734848 
L 689.7676 249.241313 
L 690.039382 248.869966 
L 690.22057 248.924534 
L 690.447055 249.332063 
L 690.764133 250.492317 
L 691.2624 253.403084 
L 692.802497 263.191618 
L 693.21017 264.305378 
L 693.481952 264.52327 
L 693.663139 264.431296 
L 693.889624 264.054794 
L 694.206703 263.065492 
L 694.659673 260.839727 
L 695.475018 255.387462 
L 695.610909 254.443577 
L 695.610909 254.443577 
" clip-path="url(#pef68f4b59b)" style="fill: none; stroke: #1f77b4; stroke-width: 1.5; stroke-linecap: square"/>
   </g>
   <g id="patch_18">
    <path d="M 410.24 318.04 
L 410.24 187.210836 
" style="fill: none; stroke: #000000; stroke-width: 0.8; stroke-linejoin: miter; stroke-linecap: square"/>
   </g>
   <g id="patch_19">
    <path d="M 709.2 318.04 
L 709.2 187.210836 
" style="fill: none; stroke: #000000; stroke-width: 0.8; stroke-linejoin: miter; stroke-linecap: square"/>
   </g>
   <g id="patch_20">
    <path d="M 410.24 318.04 
L 709.2 318.04 
" style="fill: none; stroke: #000000; stroke-width: 0.8; stroke-linejoin: miter; stroke-linecap: square"/>
   </g>
   <g id="patch_21">
    <path d="M 410.24 187.210836 
L 709.2 187.210836 
" style="fill: none; stroke: #000000; stroke-width: 0.8; stroke-linejoin: miter; stroke-linecap: square"/>
   </g>
  </g>
 </g>
 <defs>
  <clipPath id="p956752426f">
   <rect x="54.2" y="11.348521" width="298.96" height="130.829164"/>
  </clipPath>
  <clipPath id="p306d4339e1">
   <rect x="410.24" y="11.348521" width="298.96" height="130.829164"/>
  </clipPath>
  <clipPath id="p8a45183429">
   <rect x="54.2" y="187.210836" width="298.96" height="130.829164"/>
  </clipPath>
  <clipPath id="pef68f4b59b">
   <rect x="410.24" y="187.210836" width="298.96" height="130.829164"/>
  </clipPath>
 </defs>
</svg>
