<?xml version="1.0" encoding="utf-8" standalone="no"?>
<!DOCTYPE svg PUBLIC "-//W3C//DTD SVG 1.1//EN"
  "http://www.w3.org/Graphics/SVG/1.1/DTD/svg11.dtd">
<svg xmlns:xlink="http://www.w3.org/1999/xlink" width="460.8pt" height="345.6pt" viewBox="0 0 460.8 345.6" xmlns="http://www.w3.org/2000/svg" version="1.1">
 <metadata>
  <rdf:RDF xmlns:dc="http://purl.org/dc/elements/1.1/" xmlns:cc="http://creativecommons.org/ns#" xmlns:rdf="http://www.w3.org/1999/02/22-rdf-syntax-ns#">
   <cc:Work>
    <dc:type rdf:resource="http://purl.org/dc/dcmitype/StillImage"/>
    <dc:date>2023-08-10T10:46:21.149194</dc:date>
    <dc:format>image/svg+xml</dc:format>
    <dc:creator>
     <cc:Agent>
      <dc:title>Matplotlib v3.7.2, https://matplotlib.org/</dc:title>
     </cc:Agent>
    </dc:creator>
   </cc:Work>
  </rdf:RDF>
 </metadata>
 <defs>
  <style type="text/css">*{stroke-linejoin: round; stroke-linecap: butt}</style>
 </defs>
 <g id="figure_1">
  <g id="patch_1">
   <path d="M 0 345.6 
L 460.8 345.6 
L 460.8 0 
L 0 0 
z
" style="fill: #ffffff"/>
  </g>
  <g id="axes_1">
   <g id="patch_2">
    <path d="M 38.27 303.64 
L 450 303.64 
L 450 10.8 
L 38.27 10.8 
z
" style="fill: #ffffff"/>
   </g>
   <g id="PolyCollection_1">
    <path d="M 56.985 24.110909 
L 56.985 290.329091 
L 58.865905 290.329091 
L 60.746809 290.329091 
L 62.627714 290.329091 
L 64.508618 290.329091 
L 66.389523 290.329091 
L 68.270427 290.329091 
L 70.151332 290.329091 
L 72.032236 290.329091 
L 73.913141 290.329091 
L 75.794045 290.329091 
L 77.67495 290.329091 
L 79.555854 290.329091 
L 81.436759 290.329091 
L 83.317663 290.329091 
L 85.198568 290.329091 
L 87.079472 290.329091 
L 88.960377 290.329091 
L 90.841281 290.329091 
L 92.722186 290.329091 
L 94.60309 290.329091 
L 96.483995 290.329091 
L 98.364899 290.329091 
L 100.245804 290.329091 
L 102.126709 290.329091 
L 104.007613 290.329091 
L 105.888518 290.329091 
L 107.769422 290.329091 
L 109.650327 290.329091 
L 111.531231 290.329091 
L 113.412136 290.329091 
L 115.29304 290.329091 
L 117.173945 290.329091 
L 119.054849 290.329091 
L 120.935754 290.329091 
L 122.816658 290.329091 
L 124.697563 290.329091 
L 126.578467 290.329091 
L 128.459372 290.329091 
L 130.340276 290.329091 
L 132.221181 290.329091 
L 134.102085 290.329091 
L 135.98299 290.329091 
L 137.863894 290.329091 
L 139.744799 290.329091 
L 141.625704 290.329091 
L 143.506608 290.329091 
L 145.387513 290.329091 
L 147.268417 290.329091 
L 149.149322 290.329091 
L 151.030226 290.329091 
L 152.911131 290.329091 
L 154.792035 290.329091 
L 156.67294 290.329091 
L 158.553844 290.329091 
L 160.434749 290.329091 
L 162.315653 290.329091 
L 164.196558 290.329091 
L 166.077462 290.329091 
L 167.958367 290.329091 
L 169.839271 290.329091 
L 171.720176 290.329091 
L 173.60108 290.329091 
L 175.481985 290.329091 
L 177.362889 290.329091 
L 179.243794 290.329091 
L 181.124698 290.329091 
L 183.005603 290.329091 
L 184.886508 290.329091 
L 186.767412 290.329091 
L 188.648317 290.329091 
L 190.529221 290.329091 
L 192.410126 290.329091 
L 194.29103 290.329091 
L 196.171935 290.329091 
L 198.052839 290.329091 
L 199.933744 290.329091 
L 201.814648 290.329091 
L 203.695553 290.329091 
L 205.576457 290.329091 
L 207.457362 290.329091 
L 209.338266 290.329091 
L 211.219171 290.329091 
L 213.100075 290.329091 
L 214.98098 290.329091 
L 216.861884 290.329091 
L 218.742789 290.329091 
L 220.623693 290.329091 
L 222.504598 290.329091 
L 224.385503 290.329091 
L 226.266407 290.329091 
L 228.147312 290.329091 
L 230.028216 290.329091 
L 231.909121 290.329091 
L 233.790025 290.329091 
L 235.67093 290.329091 
L 237.551834 290.329091 
L 239.432739 290.329091 
L 241.313643 290.329091 
L 243.194548 290.329091 
L 245.075452 290.329091 
L 246.956357 290.329091 
L 248.837261 290.329091 
L 250.718166 290.329091 
L 252.59907 290.329091 
L 254.479975 290.329091 
L 256.360879 290.329091 
L 258.241784 290.329091 
L 260.122688 290.329091 
L 262.003593 290.329091 
L 263.884497 290.329091 
L 265.765402 290.329091 
L 267.646307 290.329091 
L 269.527211 290.329091 
L 271.408116 290.329091 
L 273.28902 290.329091 
L 275.169925 290.329091 
L 277.050829 290.329091 
L 278.931734 290.329091 
L 280.812638 290.329091 
L 282.693543 290.329091 
L 284.574447 290.329091 
L 286.455352 290.329091 
L 288.336256 290.329091 
L 290.217161 290.329091 
L 292.098065 290.329091 
L 293.97897 290.329091 
L 295.859874 290.329091 
L 297.740779 290.329091 
L 299.621683 290.329091 
L 301.502588 290.329091 
L 303.383492 290.329091 
L 305.264397 290.329091 
L 307.145302 290.329091 
L 309.026206 290.329091 
L 310.907111 290.329091 
L 312.788015 290.329091 
L 314.66892 290.329091 
L 316.549824 290.329091 
L 318.430729 290.329091 
L 320.311633 290.329091 
L 322.192538 290.329091 
L 324.073442 290.329091 
L 325.954347 290.329091 
L 327.835251 290.329091 
L 329.716156 290.329091 
L 331.59706 290.329091 
L 333.477965 290.329091 
L 335.358869 290.329091 
L 337.239774 290.329091 
L 339.120678 290.329091 
L 341.001583 290.329091 
L 342.882487 290.329091 
L 344.763392 290.329091 
L 346.644296 290.329091 
L 348.525201 290.329091 
L 350.406106 290.329091 
L 352.28701 290.329091 
L 354.167915 290.329091 
L 356.048819 290.329091 
L 357.929724 290.329091 
L 359.810628 290.329091 
L 361.691533 290.329091 
L 363.572437 290.329091 
L 365.453342 290.329091 
L 367.334246 290.329091 
L 369.215151 290.329091 
L 371.096055 290.329091 
L 372.97696 290.329091 
L 374.857864 290.329091 
L 376.738769 290.329091 
L 378.619673 290.329091 
L 380.500578 290.329091 
L 382.381482 290.329091 
L 384.262387 290.329091 
L 386.143291 290.329091 
L 388.024196 290.329091 
L 389.905101 290.329091 
L 391.786005 290.329091 
L 393.66691 290.329091 
L 395.547814 290.329091 
L 397.428719 290.329091 
L 399.309623 290.329091 
L 401.190528 290.329091 
L 403.071432 290.329091 
L 404.952337 290.329091 
L 406.833241 290.329091 
L 408.714146 290.329091 
L 410.59505 290.329091 
L 412.475955 290.329091 
L 414.356859 290.329091 
L 416.237764 290.329091 
L 418.118668 290.329091 
L 419.999573 290.329091 
L 421.880477 290.329091 
L 423.761382 290.329091 
L 425.642286 290.329091 
L 427.523191 290.329091 
L 429.404095 290.329091 
L 431.285 290.329091 
L 431.285 29.408651 
L 431.285 29.408651 
L 429.404095 34.653149 
L 427.523191 39.844404 
L 425.642286 44.982415 
L 423.761382 50.067182 
L 421.880477 55.098705 
L 419.999573 60.076985 
L 418.118668 65.002022 
L 416.237764 69.873815 
L 414.356859 74.692364 
L 412.475955 79.457669 
L 410.59505 84.169731 
L 408.714146 88.828549 
L 406.833241 93.434124 
L 404.952337 97.986455 
L 403.071432 102.485542 
L 401.190528 106.931385 
L 399.309623 111.323985 
L 397.428719 115.663342 
L 395.547814 119.949455 
L 393.66691 124.182324 
L 391.786005 128.361949 
L 389.905101 132.488331 
L 388.024196 136.561469 
L 386.143291 140.581364 
L 384.262387 144.548015 
L 382.381482 148.461422 
L 380.500578 152.321585 
L 378.619673 156.128505 
L 376.738769 159.882182 
L 374.857864 163.582615 
L 372.97696 167.229804 
L 371.096055 170.823749 
L 369.215151 174.364451 
L 367.334246 177.851909 
L 365.453342 181.286124 
L 363.572437 184.667095 
L 361.691533 187.994822 
L 359.810628 191.269305 
L 357.929724 194.490545 
L 356.048819 197.658542 
L 354.167915 200.773295 
L 352.28701 203.834804 
L 350.406106 206.843069 
L 348.525201 209.798091 
L 346.644296 212.699869 
L 344.763392 215.548404 
L 342.882487 218.343695 
L 341.001583 221.085742 
L 339.120678 223.774545 
L 337.239774 226.410105 
L 335.358869 228.992422 
L 333.477965 231.521495 
L 331.59706 233.997324 
L 329.716156 236.419909 
L 327.835251 238.789251 
L 325.954347 241.105349 
L 324.073442 243.368204 
L 322.192538 245.577815 
L 320.311633 247.734182 
L 318.430729 249.837305 
L 316.549824 251.887185 
L 314.66892 253.883822 
L 312.788015 255.827215 
L 310.907111 257.717364 
L 309.026206 259.554269 
L 307.145302 261.337931 
L 305.264397 263.068349 
L 303.383492 264.745524 
L 301.502588 266.369455 
L 299.621683 267.940142 
L 297.740779 269.457585 
L 295.859874 270.921785 
L 293.97897 272.332742 
L 292.098065 273.690455 
L 290.217161 274.994924 
L 288.336256 276.246149 
L 286.455352 277.444131 
L 284.574447 278.588869 
L 282.693543 279.680364 
L 280.812638 280.718615 
L 278.931734 281.703622 
L 277.050829 282.635385 
L 275.169925 283.513905 
L 273.28902 284.339182 
L 271.408116 285.111215 
L 269.527211 285.830004 
L 267.646307 286.495549 
L 265.765402 287.107851 
L 263.884497 287.666909 
L 262.003593 288.172724 
L 260.122688 288.625295 
L 258.241784 289.024622 
L 256.360879 289.370705 
L 254.479975 289.663545 
L 252.59907 289.903142 
L 250.718166 290.089495 
L 248.837261 290.222604 
L 246.956357 290.302469 
L 245.075452 290.329091 
L 243.194548 290.302469 
L 241.313643 290.222604 
L 239.432739 290.089495 
L 237.551834 289.903142 
L 235.67093 289.663545 
L 233.790025 289.370705 
L 231.909121 289.024622 
L 230.028216 288.625295 
L 228.147312 288.172724 
L 226.266407 287.666909 
L 224.385503 287.107851 
L 222.504598 286.495549 
L 220.623693 285.830004 
L 218.742789 285.111215 
L 216.861884 284.339182 
L 214.98098 283.513905 
L 213.100075 282.635385 
L 211.219171 281.703622 
L 209.338266 280.718615 
L 207.457362 279.680364 
L 205.576457 278.588869 
L 203.695553 277.444131 
L 201.814648 276.246149 
L 199.933744 274.994924 
L 198.052839 273.690455 
L 196.171935 272.332742 
L 194.29103 270.921785 
L 192.410126 269.457585 
L 190.529221 267.940142 
L 188.648317 266.369455 
L 186.767412 264.745524 
L 184.886508 263.068349 
L 183.005603 261.337931 
L 181.124698 259.554269 
L 179.243794 257.717364 
L 177.362889 255.827215 
L 175.481985 253.883822 
L 173.60108 251.887185 
L 171.720176 249.837305 
L 169.839271 247.734182 
L 167.958367 245.577815 
L 166.077462 243.368204 
L 164.196558 241.105349 
L 162.315653 238.789251 
L 160.434749 236.419909 
L 158.553844 233.997324 
L 156.67294 231.521495 
L 154.792035 228.992422 
L 152.911131 226.410105 
L 151.030226 223.774545 
L 149.149322 221.085742 
L 147.268417 218.343695 
L 145.387513 215.548404 
L 143.506608 212.699869 
L 141.625704 209.798091 
L 139.744799 206.843069 
L 137.863894 203.834804 
L 135.98299 200.773295 
L 134.102085 197.658542 
L 132.221181 194.490545 
L 130.340276 191.269305 
L 128.459372 187.994822 
L 126.578467 184.667095 
L 124.697563 181.286124 
L 122.816658 177.851909 
L 120.935754 174.364451 
L 119.054849 170.823749 
L 117.173945 167.229804 
L 115.29304 163.582615 
L 113.412136 159.882182 
L 111.531231 156.128505 
L 109.650327 152.321585 
L 107.769422 148.461422 
L 105.888518 144.548015 
L 104.007613 140.581364 
L 102.126709 136.561469 
L 100.245804 132.488331 
L 98.364899 128.361949 
L 96.483995 124.182324 
L 94.60309 119.949455 
L 92.722186 115.663342 
L 90.841281 111.323985 
L 88.960377 106.931385 
L 87.079472 102.485542 
L 85.198568 97.986455 
L 83.317663 93.434124 
L 81.436759 88.828549 
L 79.555854 84.169731 
L 77.67495 79.457669 
L 75.794045 74.692364 
L 73.913141 69.873815 
L 72.032236 65.002022 
L 70.151332 60.076985 
L 68.270427 55.098705 
L 66.389523 50.067182 
L 64.508618 44.982415 
L 62.627714 39.844404 
L 60.746809 34.653149 
L 58.865905 29.408651 
L 56.985 24.110909 
z
" clip-path="url(#pe1e11c8768)" style="fill: #1f77b4; fill-opacity: 0.5"/>
   </g>
   <g id="matplotlib.axis_1">
    <g id="xtick_1">
     <g id="line2d_1">
      <defs>
       <path id="m726559f96a" d="M 0 0 
L 0 3.5 
" style="stroke: #000000; stroke-width: 0.8"/>
      </defs>
      <g>
       <use xlink:href="#m726559f96a" x="56.985" y="303.64" style="stroke: #000000; stroke-width: 0.8"/>
      </g>
     </g>
     <g id="text_1">
      <!-- −2.0 -->
      <g transform="translate(44.843594 318.238437) scale(0.1 -0.1)">
       <defs>
        <path id="DejaVuSans-2212" d="M 678 2272 
L 4684 2272 
L 4684 1741 
L 678 1741 
L 678 2272 
z
" transform="scale(0.015625)"/>
        <path id="DejaVuSans-32" d="M 1228 531 
L 3431 531 
L 3431 0 
L 469 0 
L 469 531 
Q 828 903 1448 1529 
Q 2069 2156 2228 2338 
Q 2531 2678 2651 2914 
Q 2772 3150 2772 3378 
Q 2772 3750 2511 3984 
Q 2250 4219 1831 4219 
Q 1534 4219 1204 4116 
Q 875 4013 500 3803 
L 500 4441 
Q 881 4594 1212 4672 
Q 1544 4750 1819 4750 
Q 2544 4750 2975 4387 
Q 3406 4025 3406 3419 
Q 3406 3131 3298 2873 
Q 3191 2616 2906 2266 
Q 2828 2175 2409 1742 
Q 1991 1309 1228 531 
z
" transform="scale(0.015625)"/>
        <path id="DejaVuSans-2e" d="M 684 794 
L 1344 794 
L 1344 0 
L 684 0 
L 684 794 
z
" transform="scale(0.015625)"/>
        <path id="DejaVuSans-30" d="M 2034 4250 
Q 1547 4250 1301 3770 
Q 1056 3291 1056 2328 
Q 1056 1369 1301 889 
Q 1547 409 2034 409 
Q 2525 409 2770 889 
Q 3016 1369 3016 2328 
Q 3016 3291 2770 3770 
Q 2525 4250 2034 4250 
z
M 2034 4750 
Q 2819 4750 3233 4129 
Q 3647 3509 3647 2328 
Q 3647 1150 3233 529 
Q 2819 -91 2034 -91 
Q 1250 -91 836 529 
Q 422 1150 422 2328 
Q 422 3509 836 4129 
Q 1250 4750 2034 4750 
z
" transform="scale(0.015625)"/>
       </defs>
       <use xlink:href="#DejaVuSans-2212"/>
       <use xlink:href="#DejaVuSans-32" x="83.789062"/>
       <use xlink:href="#DejaVuSans-2e" x="147.412109"/>
       <use xlink:href="#DejaVuSans-30" x="179.199219"/>
      </g>
     </g>
    </g>
    <g id="xtick_2">
     <g id="line2d_2">
      <g>
       <use xlink:href="#m726559f96a" x="104.007613" y="303.64" style="stroke: #000000; stroke-width: 0.8"/>
      </g>
     </g>
     <g id="text_2">
      <!-- −1.5 -->
      <g transform="translate(91.866207 318.238437) scale(0.1 -0.1)">
       <defs>
        <path id="DejaVuSans-31" d="M 794 531 
L 1825 531 
L 1825 4091 
L 703 3866 
L 703 4441 
L 1819 4666 
L 2450 4666 
L 2450 531 
L 3481 531 
L 3481 0 
L 794 0 
L 794 531 
z
" transform="scale(0.015625)"/>
        <path id="DejaVuSans-35" d="M 691 4666 
L 3169 4666 
L 3169 4134 
L 1269 4134 
L 1269 2991 
Q 1406 3038 1543 3061 
Q 1681 3084 1819 3084 
Q 2600 3084 3056 2656 
Q 3513 2228 3513 1497 
Q 3513 744 3044 326 
Q 2575 -91 1722 -91 
Q 1428 -91 1123 -41 
Q 819 9 494 109 
L 494 744 
Q 775 591 1075 516 
Q 1375 441 1709 441 
Q 2250 441 2565 725 
Q 2881 1009 2881 1497 
Q 2881 1984 2565 2268 
Q 2250 2553 1709 2553 
Q 1456 2553 1204 2497 
Q 953 2441 691 2322 
L 691 4666 
z
" transform="scale(0.015625)"/>
       </defs>
       <use xlink:href="#DejaVuSans-2212"/>
       <use xlink:href="#DejaVuSans-31" x="83.789062"/>
       <use xlink:href="#DejaVuSans-2e" x="147.412109"/>
       <use xlink:href="#DejaVuSans-35" x="179.199219"/>
      </g>
     </g>
    </g>
    <g id="xtick_3">
     <g id="line2d_3">
      <g>
       <use xlink:href="#m726559f96a" x="151.030226" y="303.64" style="stroke: #000000; stroke-width: 0.8"/>
      </g>
     </g>
     <g id="text_3">
      <!-- −1.0 -->
      <g transform="translate(138.88882 318.238437) scale(0.1 -0.1)">
       <use xlink:href="#DejaVuSans-2212"/>
       <use xlink:href="#DejaVuSans-31" x="83.789062"/>
       <use xlink:href="#DejaVuSans-2e" x="147.412109"/>
       <use xlink:href="#DejaVuSans-30" x="179.199219"/>
      </g>
     </g>
    </g>
    <g id="xtick_4">
     <g id="line2d_4">
      <g>
       <use xlink:href="#m726559f96a" x="198.052839" y="303.64" style="stroke: #000000; stroke-width: 0.8"/>
      </g>
     </g>
     <g id="text_4">
      <!-- −0.5 -->
      <g transform="translate(185.911433 318.238437) scale(0.1 -0.1)">
       <use xlink:href="#DejaVuSans-2212"/>
       <use xlink:href="#DejaVuSans-30" x="83.789062"/>
       <use xlink:href="#DejaVuSans-2e" x="147.412109"/>
       <use xlink:href="#DejaVuSans-35" x="179.199219"/>
      </g>
     </g>
    </g>
    <g id="xtick_5">
     <g id="line2d_5">
      <g>
       <use xlink:href="#m726559f96a" x="245.075452" y="303.64" style="stroke: #000000; stroke-width: 0.8"/>
      </g>
     </g>
     <g id="text_5">
      <!-- 0.0 -->
      <g transform="translate(237.12389 318.238437) scale(0.1 -0.1)">
       <use xlink:href="#DejaVuSans-30"/>
       <use xlink:href="#DejaVuSans-2e" x="63.623047"/>
       <use xlink:href="#DejaVuSans-30" x="95.410156"/>
      </g>
     </g>
    </g>
    <g id="xtick_6">
     <g id="line2d_6">
      <g>
       <use xlink:href="#m726559f96a" x="292.098065" y="303.64" style="stroke: #000000; stroke-width: 0.8"/>
      </g>
     </g>
     <g id="text_6">
      <!-- 0.5 -->
      <g transform="translate(284.146503 318.238437) scale(0.1 -0.1)">
       <use xlink:href="#DejaVuSans-30"/>
       <use xlink:href="#DejaVuSans-2e" x="63.623047"/>
       <use xlink:href="#DejaVuSans-35" x="95.410156"/>
      </g>
     </g>
    </g>
    <g id="xtick_7">
     <g id="line2d_7">
      <g>
       <use xlink:href="#m726559f96a" x="339.120678" y="303.64" style="stroke: #000000; stroke-width: 0.8"/>
      </g>
     </g>
     <g id="text_7">
      <!-- 1.0 -->
      <g transform="translate(331.169116 318.238437) scale(0.1 -0.1)">
       <use xlink:href="#DejaVuSans-31"/>
       <use xlink:href="#DejaVuSans-2e" x="63.623047"/>
       <use xlink:href="#DejaVuSans-30" x="95.410156"/>
      </g>
     </g>
    </g>
    <g id="xtick_8">
     <g id="line2d_8">
      <g>
       <use xlink:href="#m726559f96a" x="386.143291" y="303.64" style="stroke: #000000; stroke-width: 0.8"/>
      </g>
     </g>
     <g id="text_8">
      <!-- 1.5 -->
      <g transform="translate(378.191729 318.238437) scale(0.1 -0.1)">
       <use xlink:href="#DejaVuSans-31"/>
       <use xlink:href="#DejaVuSans-2e" x="63.623047"/>
       <use xlink:href="#DejaVuSans-35" x="95.410156"/>
      </g>
     </g>
    </g>
    <g id="xtick_9">
     <g id="line2d_9">
      <g>
       <use xlink:href="#m726559f96a" x="433.165905" y="303.64" style="stroke: #000000; stroke-width: 0.8"/>
      </g>
     </g>
     <g id="text_9">
      <!-- 2.0 -->
      <g transform="translate(425.214342 318.238437) scale(0.1 -0.1)">
       <use xlink:href="#DejaVuSans-32"/>
       <use xlink:href="#DejaVuSans-2e" x="63.623047"/>
       <use xlink:href="#DejaVuSans-30" x="95.410156"/>
      </g>
     </g>
    </g>
    <g id="text_10">
     <!-- Position -->
     <g transform="translate(224.670938 331.916562) scale(0.1 -0.1)">
      <defs>
       <path id="DejaVuSans-50" d="M 1259 4147 
L 1259 2394 
L 2053 2394 
Q 2494 2394 2734 2622 
Q 2975 2850 2975 3272 
Q 2975 3691 2734 3919 
Q 2494 4147 2053 4147 
L 1259 4147 
z
M 628 4666 
L 2053 4666 
Q 2838 4666 3239 4311 
Q 3641 3956 3641 3272 
Q 3641 2581 3239 2228 
Q 2838 1875 2053 1875 
L 1259 1875 
L 1259 0 
L 628 0 
L 628 4666 
z
" transform="scale(0.015625)"/>
       <path id="DejaVuSans-6f" d="M 1959 3097 
Q 1497 3097 1228 2736 
Q 959 2375 959 1747 
Q 959 1119 1226 758 
Q 1494 397 1959 397 
Q 2419 397 2687 759 
Q 2956 1122 2956 1747 
Q 2956 2369 2687 2733 
Q 2419 3097 1959 3097 
z
M 1959 3584 
Q 2709 3584 3137 3096 
Q 3566 2609 3566 1747 
Q 3566 888 3137 398 
Q 2709 -91 1959 -91 
Q 1206 -91 779 398 
Q 353 888 353 1747 
Q 353 2609 779 3096 
Q 1206 3584 1959 3584 
z
" transform="scale(0.015625)"/>
       <path id="DejaVuSans-73" d="M 2834 3397 
L 2834 2853 
Q 2591 2978 2328 3040 
Q 2066 3103 1784 3103 
Q 1356 3103 1142 2972 
Q 928 2841 928 2578 
Q 928 2378 1081 2264 
Q 1234 2150 1697 2047 
L 1894 2003 
Q 2506 1872 2764 1633 
Q 3022 1394 3022 966 
Q 3022 478 2636 193 
Q 2250 -91 1575 -91 
Q 1294 -91 989 -36 
Q 684 19 347 128 
L 347 722 
Q 666 556 975 473 
Q 1284 391 1588 391 
Q 1994 391 2212 530 
Q 2431 669 2431 922 
Q 2431 1156 2273 1281 
Q 2116 1406 1581 1522 
L 1381 1569 
Q 847 1681 609 1914 
Q 372 2147 372 2553 
Q 372 3047 722 3315 
Q 1072 3584 1716 3584 
Q 2034 3584 2315 3537 
Q 2597 3491 2834 3397 
z
" transform="scale(0.015625)"/>
       <path id="DejaVuSans-69" d="M 603 3500 
L 1178 3500 
L 1178 0 
L 603 0 
L 603 3500 
z
M 603 4863 
L 1178 4863 
L 1178 4134 
L 603 4134 
L 603 4863 
z
" transform="scale(0.015625)"/>
       <path id="DejaVuSans-74" d="M 1172 4494 
L 1172 3500 
L 2356 3500 
L 2356 3053 
L 1172 3053 
L 1172 1153 
Q 1172 725 1289 603 
Q 1406 481 1766 481 
L 2356 481 
L 2356 0 
L 1766 0 
Q 1100 0 847 248 
Q 594 497 594 1153 
L 594 3053 
L 172 3053 
L 172 3500 
L 594 3500 
L 594 4494 
L 1172 4494 
z
" transform="scale(0.015625)"/>
       <path id="DejaVuSans-6e" d="M 3513 2113 
L 3513 0 
L 2938 0 
L 2938 2094 
Q 2938 2591 2744 2837 
Q 2550 3084 2163 3084 
Q 1697 3084 1428 2787 
Q 1159 2491 1159 1978 
L 1159 0 
L 581 0 
L 581 3500 
L 1159 3500 
L 1159 2956 
Q 1366 3272 1645 3428 
Q 1925 3584 2291 3584 
Q 2894 3584 3203 3211 
Q 3513 2838 3513 2113 
z
" transform="scale(0.015625)"/>
      </defs>
      <use xlink:href="#DejaVuSans-50"/>
      <use xlink:href="#DejaVuSans-6f" x="56.677734"/>
      <use xlink:href="#DejaVuSans-73" x="117.859375"/>
      <use xlink:href="#DejaVuSans-69" x="169.958984"/>
      <use xlink:href="#DejaVuSans-74" x="197.742188"/>
      <use xlink:href="#DejaVuSans-69" x="236.951172"/>
      <use xlink:href="#DejaVuSans-6f" x="264.734375"/>
      <use xlink:href="#DejaVuSans-6e" x="325.916016"/>
     </g>
    </g>
   </g>
   <g id="matplotlib.axis_2">
    <g id="ytick_1">
     <g id="line2d_10">
      <defs>
       <path id="m9938bb6a88" d="M 0 0 
L -3.5 0 
" style="stroke: #000000; stroke-width: 0.8"/>
      </defs>
      <g>
       <use xlink:href="#m9938bb6a88" x="38.27" y="290.329091" style="stroke: #000000; stroke-width: 0.8"/>
      </g>
     </g>
     <g id="text_11">
      <!-- 0 -->
      <g transform="translate(24.9075 294.12831) scale(0.1 -0.1)">
       <use xlink:href="#DejaVuSans-30"/>
      </g>
     </g>
    </g>
    <g id="ytick_2">
     <g id="line2d_11">
      <g>
       <use xlink:href="#m9938bb6a88" x="38.27" y="257.051818" style="stroke: #000000; stroke-width: 0.8"/>
      </g>
     </g>
     <g id="text_12">
      <!-- 1 -->
      <g transform="translate(24.9075 260.851037) scale(0.1 -0.1)">
       <use xlink:href="#DejaVuSans-31"/>
      </g>
     </g>
    </g>
    <g id="ytick_3">
     <g id="line2d_12">
      <g>
       <use xlink:href="#m9938bb6a88" x="38.27" y="223.774545" style="stroke: #000000; stroke-width: 0.8"/>
      </g>
     </g>
     <g id="text_13">
      <!-- 2 -->
      <g transform="translate(24.9075 227.573764) scale(0.1 -0.1)">
       <use xlink:href="#DejaVuSans-32"/>
      </g>
     </g>
    </g>
    <g id="ytick_4">
     <g id="line2d_13">
      <g>
       <use xlink:href="#m9938bb6a88" x="38.27" y="190.497273" style="stroke: #000000; stroke-width: 0.8"/>
      </g>
     </g>
     <g id="text_14">
      <!-- 3 -->
      <g transform="translate(24.9075 194.296491) scale(0.1 -0.1)">
       <defs>
        <path id="DejaVuSans-33" d="M 2597 2516 
Q 3050 2419 3304 2112 
Q 3559 1806 3559 1356 
Q 3559 666 3084 287 
Q 2609 -91 1734 -91 
Q 1441 -91 1130 -33 
Q 819 25 488 141 
L 488 750 
Q 750 597 1062 519 
Q 1375 441 1716 441 
Q 2309 441 2620 675 
Q 2931 909 2931 1356 
Q 2931 1769 2642 2001 
Q 2353 2234 1838 2234 
L 1294 2234 
L 1294 2753 
L 1863 2753 
Q 2328 2753 2575 2939 
Q 2822 3125 2822 3475 
Q 2822 3834 2567 4026 
Q 2313 4219 1838 4219 
Q 1578 4219 1281 4162 
Q 984 4106 628 3988 
L 628 4550 
Q 988 4650 1302 4700 
Q 1616 4750 1894 4750 
Q 2613 4750 3031 4423 
Q 3450 4097 3450 3541 
Q 3450 3153 3228 2886 
Q 3006 2619 2597 2516 
z
" transform="scale(0.015625)"/>
       </defs>
       <use xlink:href="#DejaVuSans-33"/>
      </g>
     </g>
    </g>
    <g id="ytick_5">
     <g id="line2d_14">
      <g>
       <use xlink:href="#m9938bb6a88" x="38.27" y="157.22" style="stroke: #000000; stroke-width: 0.8"/>
      </g>
     </g>
     <g id="text_15">
      <!-- 4 -->
      <g transform="translate(24.9075 161.019219) scale(0.1 -0.1)">
       <defs>
        <path id="DejaVuSans-34" d="M 2419 4116 
L 825 1625 
L 2419 1625 
L 2419 4116 
z
M 2253 4666 
L 3047 4666 
L 3047 1625 
L 3713 1625 
L 3713 1100 
L 3047 1100 
L 3047 0 
L 2419 0 
L 2419 1100 
L 313 1100 
L 313 1709 
L 2253 4666 
z
" transform="scale(0.015625)"/>
       </defs>
       <use xlink:href="#DejaVuSans-34"/>
      </g>
     </g>
    </g>
    <g id="ytick_6">
     <g id="line2d_15">
      <g>
       <use xlink:href="#m9938bb6a88" x="38.27" y="123.942727" style="stroke: #000000; stroke-width: 0.8"/>
      </g>
     </g>
     <g id="text_16">
      <!-- 5 -->
      <g transform="translate(24.9075 127.741946) scale(0.1 -0.1)">
       <use xlink:href="#DejaVuSans-35"/>
      </g>
     </g>
    </g>
    <g id="ytick_7">
     <g id="line2d_16">
      <g>
       <use xlink:href="#m9938bb6a88" x="38.27" y="90.665455" style="stroke: #000000; stroke-width: 0.8"/>
      </g>
     </g>
     <g id="text_17">
      <!-- 6 -->
      <g transform="translate(24.9075 94.464673) scale(0.1 -0.1)">
       <defs>
        <path id="DejaVuSans-36" d="M 2113 2584 
Q 1688 2584 1439 2293 
Q 1191 2003 1191 1497 
Q 1191 994 1439 701 
Q 1688 409 2113 409 
Q 2538 409 2786 701 
Q 3034 994 3034 1497 
Q 3034 2003 2786 2293 
Q 2538 2584 2113 2584 
z
M 3366 4563 
L 3366 3988 
Q 3128 4100 2886 4159 
Q 2644 4219 2406 4219 
Q 1781 4219 1451 3797 
Q 1122 3375 1075 2522 
Q 1259 2794 1537 2939 
Q 1816 3084 2150 3084 
Q 2853 3084 3261 2657 
Q 3669 2231 3669 1497 
Q 3669 778 3244 343 
Q 2819 -91 2113 -91 
Q 1303 -91 875 529 
Q 447 1150 447 2328 
Q 447 3434 972 4092 
Q 1497 4750 2381 4750 
Q 2619 4750 2861 4703 
Q 3103 4656 3366 4563 
z
" transform="scale(0.015625)"/>
       </defs>
       <use xlink:href="#DejaVuSans-36"/>
      </g>
     </g>
    </g>
    <g id="ytick_8">
     <g id="line2d_17">
      <g>
       <use xlink:href="#m9938bb6a88" x="38.27" y="57.388182" style="stroke: #000000; stroke-width: 0.8"/>
      </g>
     </g>
     <g id="text_18">
      <!-- 7 -->
      <g transform="translate(24.9075 61.187401) scale(0.1 -0.1)">
       <defs>
        <path id="DejaVuSans-37" d="M 525 4666 
L 3525 4666 
L 3525 4397 
L 1831 0 
L 1172 0 
L 2766 4134 
L 525 4134 
L 525 4666 
z
" transform="scale(0.015625)"/>
       </defs>
       <use xlink:href="#DejaVuSans-37"/>
      </g>
     </g>
    </g>
    <g id="ytick_9">
     <g id="line2d_18">
      <g>
       <use xlink:href="#m9938bb6a88" x="38.27" y="24.110909" style="stroke: #000000; stroke-width: 0.8"/>
      </g>
     </g>
     <g id="text_19">
      <!-- 8 -->
      <g transform="translate(24.9075 27.910128) scale(0.1 -0.1)">
       <defs>
        <path id="DejaVuSans-38" d="M 2034 2216 
Q 1584 2216 1326 1975 
Q 1069 1734 1069 1313 
Q 1069 891 1326 650 
Q 1584 409 2034 409 
Q 2484 409 2743 651 
Q 3003 894 3003 1313 
Q 3003 1734 2745 1975 
Q 2488 2216 2034 2216 
z
M 1403 2484 
Q 997 2584 770 2862 
Q 544 3141 544 3541 
Q 544 4100 942 4425 
Q 1341 4750 2034 4750 
Q 2731 4750 3128 4425 
Q 3525 4100 3525 3541 
Q 3525 3141 3298 2862 
Q 3072 2584 2669 2484 
Q 3125 2378 3379 2068 
Q 3634 1759 3634 1313 
Q 3634 634 3220 271 
Q 2806 -91 2034 -91 
Q 1263 -91 848 271 
Q 434 634 434 1313 
Q 434 1759 690 2068 
Q 947 2378 1403 2484 
z
M 1172 3481 
Q 1172 3119 1398 2916 
Q 1625 2713 2034 2713 
Q 2441 2713 2670 2916 
Q 2900 3119 2900 3481 
Q 2900 3844 2670 4047 
Q 2441 4250 2034 4250 
Q 1625 4250 1398 4047 
Q 1172 3844 1172 3481 
z
" transform="scale(0.015625)"/>
       </defs>
       <use xlink:href="#DejaVuSans-38"/>
      </g>
     </g>
    </g>
    <g id="text_20">
     <!-- Energy -->
     <g transform="translate(18.827813 174.72625) rotate(-90) scale(0.1 -0.1)">
      <defs>
       <path id="DejaVuSans-45" d="M 628 4666 
L 3578 4666 
L 3578 4134 
L 1259 4134 
L 1259 2753 
L 3481 2753 
L 3481 2222 
L 1259 2222 
L 1259 531 
L 3634 531 
L 3634 0 
L 628 0 
L 628 4666 
z
" transform="scale(0.015625)"/>
       <path id="DejaVuSans-65" d="M 3597 1894 
L 3597 1613 
L 953 1613 
Q 991 1019 1311 708 
Q 1631 397 2203 397 
Q 2534 397 2845 478 
Q 3156 559 3463 722 
L 3463 178 
Q 3153 47 2828 -22 
Q 2503 -91 2169 -91 
Q 1331 -91 842 396 
Q 353 884 353 1716 
Q 353 2575 817 3079 
Q 1281 3584 2069 3584 
Q 2775 3584 3186 3129 
Q 3597 2675 3597 1894 
z
M 3022 2063 
Q 3016 2534 2758 2815 
Q 2500 3097 2075 3097 
Q 1594 3097 1305 2825 
Q 1016 2553 972 2059 
L 3022 2063 
z
" transform="scale(0.015625)"/>
       <path id="DejaVuSans-72" d="M 2631 2963 
Q 2534 3019 2420 3045 
Q 2306 3072 2169 3072 
Q 1681 3072 1420 2755 
Q 1159 2438 1159 1844 
L 1159 0 
L 581 0 
L 581 3500 
L 1159 3500 
L 1159 2956 
Q 1341 3275 1631 3429 
Q 1922 3584 2338 3584 
Q 2397 3584 2469 3576 
Q 2541 3569 2628 3553 
L 2631 2963 
z
" transform="scale(0.015625)"/>
       <path id="DejaVuSans-67" d="M 2906 1791 
Q 2906 2416 2648 2759 
Q 2391 3103 1925 3103 
Q 1463 3103 1205 2759 
Q 947 2416 947 1791 
Q 947 1169 1205 825 
Q 1463 481 1925 481 
Q 2391 481 2648 825 
Q 2906 1169 2906 1791 
z
M 3481 434 
Q 3481 -459 3084 -895 
Q 2688 -1331 1869 -1331 
Q 1566 -1331 1297 -1286 
Q 1028 -1241 775 -1147 
L 775 -588 
Q 1028 -725 1275 -790 
Q 1522 -856 1778 -856 
Q 2344 -856 2625 -561 
Q 2906 -266 2906 331 
L 2906 616 
Q 2728 306 2450 153 
Q 2172 0 1784 0 
Q 1141 0 747 490 
Q 353 981 353 1791 
Q 353 2603 747 3093 
Q 1141 3584 1784 3584 
Q 2172 3584 2450 3431 
Q 2728 3278 2906 2969 
L 2906 3500 
L 3481 3500 
L 3481 434 
z
" transform="scale(0.015625)"/>
       <path id="DejaVuSans-79" d="M 2059 -325 
Q 1816 -950 1584 -1140 
Q 1353 -1331 966 -1331 
L 506 -1331 
L 506 -850 
L 844 -850 
Q 1081 -850 1212 -737 
Q 1344 -625 1503 -206 
L 1606 56 
L 191 3500 
L 800 3500 
L 1894 763 
L 2988 3500 
L 3597 3500 
L 2059 -325 
z
" transform="scale(0.015625)"/>
      </defs>
      <use xlink:href="#DejaVuSans-45"/>
      <use xlink:href="#DejaVuSans-6e" x="63.183594"/>
      <use xlink:href="#DejaVuSans-65" x="126.5625"/>
      <use xlink:href="#DejaVuSans-72" x="188.085938"/>
      <use xlink:href="#DejaVuSans-67" x="227.449219"/>
      <use xlink:href="#DejaVuSans-79" x="290.925781"/>
     </g>
    </g>
   </g>
   <g id="line2d_19">
    <path d="M 56.985 24.110909 
L 64.508618 44.982415 
L 72.032236 65.002022 
L 77.67495 79.457669 
L 83.317663 93.434124 
L 88.960377 106.931385 
L 94.60309 119.949455 
L 100.245804 132.488331 
L 105.888518 144.548015 
L 111.531231 156.128505 
L 117.173945 167.229804 
L 122.816658 177.851909 
L 128.459372 187.994822 
L 134.102085 197.658542 
L 139.744799 206.843069 
L 145.387513 215.548404 
L 151.030226 223.774545 
L 156.67294 231.521495 
L 162.315653 238.789251 
L 167.958367 245.577815 
L 173.60108 251.887185 
L 179.243794 257.717364 
L 183.005603 261.337931 
L 186.767412 264.745524 
L 190.529221 267.940142 
L 194.29103 270.921785 
L 198.052839 273.690455 
L 201.814648 276.246149 
L 205.576457 278.588869 
L 209.338266 280.718615 
L 213.100075 282.635385 
L 216.861884 284.339182 
L 220.623693 285.830004 
L 224.385503 287.107851 
L 228.147312 288.172724 
L 231.909121 289.024622 
L 235.67093 289.663545 
L 239.432739 290.089495 
L 243.194548 290.302469 
L 246.956357 290.302469 
L 250.718166 290.089495 
L 254.479975 289.663545 
L 258.241784 289.024622 
L 262.003593 288.172724 
L 265.765402 287.107851 
L 269.527211 285.830004 
L 273.28902 284.339182 
L 277.050829 282.635385 
L 280.812638 280.718615 
L 284.574447 278.588869 
L 288.336256 276.246149 
L 292.098065 273.690455 
L 295.859874 270.921785 
L 299.621683 267.940142 
L 303.383492 264.745524 
L 307.145302 261.337931 
L 310.907111 257.717364 
L 314.66892 253.883822 
L 320.311633 247.734182 
L 325.954347 241.105349 
L 331.59706 233.997324 
L 337.239774 226.410105 
L 342.882487 218.343695 
L 348.525201 209.798091 
L 354.167915 200.773295 
L 359.810628 191.269305 
L 365.453342 181.286124 
L 371.096055 170.823749 
L 376.738769 159.882182 
L 382.381482 148.461422 
L 388.024196 136.561469 
L 393.66691 124.182324 
L 399.309623 111.323985 
L 404.952337 97.986455 
L 410.59505 84.169731 
L 416.237764 69.873815 
L 421.880477 55.098705 
L 427.523191 39.844404 
L 431.285 29.408651 
L 431.285 29.408651 
" clip-path="url(#pe1e11c8768)" style="fill: none; stroke: #1f77b4; stroke-width: 1.5; stroke-linecap: square"/>
   </g>
   <g id="line2d_20">
    <path d="M 56.985 266.799433 
L 113.412136 266.700962 
L 128.459372 266.473305 
L 139.744799 266.072544 
L 147.268417 265.614285 
L 154.792035 264.935953 
L 160.434749 264.244311 
L 166.077462 263.366615 
L 171.720176 262.280416 
L 177.362889 260.970457 
L 183.005603 259.432337 
L 188.648317 257.676039 
L 196.171935 255.044697 
L 205.576457 251.464779 
L 214.98098 247.894764 
L 220.623693 245.939428 
L 226.266407 244.245831 
L 230.028216 243.308317 
L 233.790025 242.552278 
L 237.551834 241.997398 
L 241.313643 241.658393 
L 245.075452 241.544364 
L 248.837261 241.658393 
L 252.59907 241.997398 
L 256.360879 242.552278 
L 260.122688 243.308317 
L 263.884497 244.245831 
L 269.527211 245.939428 
L 275.169925 247.894764 
L 284.574447 251.464779 
L 295.859874 255.728793 
L 303.383492 258.284412 
L 309.026206 259.97011 
L 314.66892 261.432508 
L 320.311633 262.666779 
L 325.954347 263.681352 
L 331.59706 264.494283 
L 339.120678 265.306582 
L 346.644296 265.867057 
L 356.048819 266.307527 
L 367.334246 266.587629 
L 384.262387 266.748335 
L 421.880477 266.798804 
L 431.285 266.799417 
L 431.285 266.799417 
" clip-path="url(#pe1e11c8768)" style="fill: none; stroke: #ff7f0e; stroke-width: 1.5; stroke-linecap: square"/>
   </g>
   <g id="line2d_21">
    <path d="M 56.985 219.695407 
L 85.198568 219.595926 
L 98.364899 219.358367 
L 107.769422 218.982744 
L 115.29304 218.470932 
L 120.935754 217.914432 
L 126.578467 217.171872 
L 132.221181 216.211436 
L 137.863894 215.009372 
L 143.506608 213.556843 
L 149.149322 211.867457 
L 156.67294 209.325961 
L 169.839271 204.718883 
L 175.481985 203.048178 
L 179.243794 202.160223 
L 183.005603 201.511103 
L 186.767412 201.145273 
L 190.529221 201.098699 
L 194.29103 201.395599 
L 198.052839 202.045544 
L 201.814648 203.041224 
L 205.576457 204.357107 
L 209.338266 205.949232 
L 213.100075 207.75624 
L 220.623693 211.697735 
L 226.266407 214.578573 
L 230.028216 216.284415 
L 233.790025 217.714932 
L 237.551834 218.79504 
L 241.313643 219.467237 
L 243.194548 219.638171 
L 245.075452 219.695407 
L 246.956357 219.638171 
L 250.718166 219.184921 
L 254.479975 218.302844 
L 258.241784 217.039141 
L 262.003593 215.460657 
L 265.765402 213.649493 
L 280.812638 205.949232 
L 284.574447 204.357107 
L 288.336256 203.041224 
L 292.098065 202.045544 
L 295.859874 201.395599 
L 299.621683 201.098699 
L 303.383492 201.145273 
L 307.145302 201.511103 
L 310.907111 202.160223 
L 314.66892 203.048178 
L 318.430729 204.125395 
L 324.073442 205.983688 
L 341.001583 211.867457 
L 346.644296 213.556843 
L 352.28701 215.009372 
L 357.929724 216.211436 
L 363.572437 217.171872 
L 369.215151 217.914432 
L 376.738769 218.621034 
L 384.262387 219.077741 
L 393.66691 219.408345 
L 406.833241 219.613748 
L 429.404095 219.694362 
L 431.285 219.695148 
L 431.285 219.695148 
" clip-path="url(#pe1e11c8768)" style="fill: none; stroke: #2ca02c; stroke-width: 1.5; stroke-linecap: square"/>
   </g>
   <g id="line2d_22">
    <path d="M 56.985 172.781983 
L 70.151332 172.654203 
L 79.555854 172.361648 
L 87.079472 171.933814 
L 94.60309 171.252839 
L 100.245804 170.524214 
L 105.888518 169.570785 
L 111.531231 168.368701 
L 117.173945 166.913428 
L 122.816658 165.229979 
L 132.221181 162.111264 
L 139.744799 159.675079 
L 143.506608 158.619292 
L 147.268417 157.751877 
L 151.030226 157.13316 
L 154.792035 156.818264 
L 158.553844 156.852039 
L 162.315653 157.263894 
L 166.077462 158.063041 
L 169.839271 159.234712 
L 173.60108 160.737887 
L 177.362889 162.505035 
L 184.886508 166.443734 
L 190.529221 169.282502 
L 194.29103 170.882893 
L 198.052839 172.114514 
L 199.933744 172.562319 
L 201.814648 172.885984 
L 203.695553 173.079199 
L 205.576457 173.138141 
L 207.457362 173.061636 
L 209.338266 172.851251 
L 211.219171 172.511334 
L 214.98098 171.473972 
L 218.742789 170.037226 
L 222.504598 168.32463 
L 231.909121 163.845859 
L 235.67093 162.394726 
L 239.432739 161.347209 
L 241.313643 161.006223 
L 243.194548 160.798452 
L 245.075452 160.728662 
L 246.956357 160.798452 
L 248.837261 161.006223 
L 250.718166 161.347209 
L 252.59907 161.813599 
L 256.360879 163.077326 
L 260.122688 164.682884 
L 273.28902 170.798542 
L 277.050829 172.048988 
L 278.931734 172.511334 
L 280.812638 172.851251 
L 282.693543 173.061636 
L 284.574447 173.138141 
L 286.455352 173.079199 
L 288.336256 172.885984 
L 290.217161 172.562319 
L 292.098065 172.114514 
L 295.859874 170.882893 
L 299.621683 169.282502 
L 303.383492 167.427471 
L 314.66892 161.59368 
L 318.430729 159.948473 
L 322.192538 158.604246 
L 325.954347 157.615382 
L 329.716156 157.009607 
L 333.477965 156.789309 
L 337.239774 156.934629 
L 341.001583 157.407806 
L 344.763392 158.158203 
L 348.525201 159.127482 
L 354.167915 160.858308 
L 371.096055 166.375352 
L 376.738769 167.911213 
L 382.381482 169.198437 
L 388.024196 170.232849 
L 393.66691 171.032965 
L 399.309623 171.630276 
L 406.833241 172.174244 
L 416.237764 172.562723 
L 427.523191 172.759305 
L 431.285 172.779441 
L 431.285 172.779441 
" clip-path="url(#pe1e11c8768)" style="fill: none; stroke: #d62728; stroke-width: 1.5; stroke-linecap: square"/>
   </g>
   <g id="line2d_23">
    <path d="M 56.985 123.62547 
L 64.508618 123.478807 
L 70.151332 123.157681 
L 75.794045 122.618522 
L 81.436759 121.819281 
L 87.079472 120.72064 
L 92.722186 119.298893 
L 98.364899 117.561174 
L 104.007613 115.561181 
L 119.054849 110.005842 
L 122.816658 108.915464 
L 126.578467 108.099758 
L 130.340276 107.633815 
L 134.102085 107.579964 
L 135.98299 107.72159 
L 137.863894 107.979783 
L 139.744799 108.355262 
L 143.506608 109.450004 
L 147.268417 110.966173 
L 151.030226 112.825782 
L 156.67294 116.000294 
L 162.315653 119.180134 
L 166.077462 121.022793 
L 167.958367 121.799783 
L 169.839271 122.456554 
L 171.720176 122.97792 
L 173.60108 123.351554 
L 175.481985 123.568438 
L 177.362889 123.623239 
L 179.243794 123.514598 
L 181.124698 123.245315 
L 183.005603 122.822424 
L 184.886508 122.257142 
L 188.648317 120.764 
L 192.410126 118.929398 
L 199.933744 115.082027 
L 203.695553 113.518731 
L 205.576457 112.916348 
L 207.457362 112.459969 
L 209.338266 112.164347 
L 211.219171 112.039478 
L 213.100075 112.090219 
L 214.98098 112.316052 
L 216.861884 112.711023 
L 218.742789 113.263862 
L 220.623693 113.958267 
L 224.385503 115.684333 
L 235.67093 121.48633 
L 237.551834 122.222794 
L 239.432739 122.821487 
L 241.313643 123.263325 
L 243.194548 123.534205 
L 245.075452 123.62547 
L 246.956357 123.534205 
L 248.837261 123.263325 
L 250.718166 122.821487 
L 252.59907 122.222794 
L 256.360879 120.635525 
L 260.122688 118.70156 
L 265.765402 115.684333 
L 269.527211 113.958267 
L 271.408116 113.263862 
L 273.28902 112.711023 
L 275.169925 112.316052 
L 277.050829 112.090219 
L 278.931734 112.039478 
L 280.812638 112.164347 
L 282.693543 112.459969 
L 284.574447 112.916348 
L 286.455352 113.518731 
L 290.217161 115.082027 
L 293.97897 116.959655 
L 299.621683 119.877261 
L 303.383492 121.564693 
L 305.264397 122.257142 
L 307.145302 122.822424 
L 309.026206 123.245315 
L 310.907111 123.514598 
L 312.788015 123.623239 
L 314.66892 123.568438 
L 316.549824 123.351554 
L 318.430729 122.97792 
L 320.311633 122.456554 
L 322.192538 121.799783 
L 325.954347 120.143124 
L 329.716156 118.154435 
L 341.001583 111.859396 
L 344.763392 110.159387 
L 348.525201 108.846583 
L 350.406106 108.355262 
L 352.28701 107.979783 
L 354.167915 107.72159 
L 356.048819 107.579964 
L 359.810628 107.633815 
L 363.572437 108.099758 
L 367.334246 108.915464 
L 371.096055 110.005842 
L 376.738769 111.981167 
L 391.786005 117.561174 
L 397.428719 119.298893 
L 403.071432 120.72064 
L 408.714146 121.819281 
L 414.356859 122.618522 
L 419.999573 123.157681 
L 425.642286 123.478807 
L 431.285 123.616496 
L 431.285 123.616496 
" clip-path="url(#pe1e11c8768)" style="fill: none; stroke: #9467bd; stroke-width: 1.5; stroke-linecap: square"/>
   </g>
   <g id="line2d_24">
    <path d="M 56.985 78.682186 
L 60.746809 78.589556 
L 64.508618 78.331064 
L 70.151332 77.684336 
L 75.794045 76.796071 
L 94.60309 73.486485 
L 98.364899 73.098161 
L 102.126709 72.924778 
L 105.888518 73.01522 
L 109.650327 73.407492 
L 113.412136 74.122896 
L 117.173945 75.160553 
L 120.935754 76.493068 
L 124.697563 78.064202 
L 137.863894 84.020202 
L 141.625704 85.340212 
L 145.387513 86.266201 
L 147.268417 86.552899 
L 149.149322 86.711756 
L 151.030226 86.738764 
L 152.911131 86.633242 
L 154.792035 86.398024 
L 156.67294 86.039543 
L 160.434749 84.996285 
L 164.196558 83.623156 
L 173.60108 79.880761 
L 177.362889 78.760084 
L 179.243794 78.365592 
L 181.124698 78.101969 
L 183.005603 77.979393 
L 184.886508 78.003425 
L 186.767412 78.174695 
L 188.648317 78.488764 
L 190.529221 78.936164 
L 194.29103 80.169441 
L 198.052839 81.711174 
L 203.695553 84.133515 
L 207.457362 85.489197 
L 209.338266 86.011844 
L 211.219171 86.404013 
L 213.100075 86.651139 
L 214.98098 86.743989 
L 216.861884 86.67908 
L 218.742789 86.458874 
L 220.623693 86.091747 
L 224.385503 84.977979 
L 228.147312 83.507397 
L 235.67093 80.418822 
L 239.432739 79.277668 
L 241.313643 78.894869 
L 243.194548 78.659008 
L 245.075452 78.579344 
L 246.956357 78.659008 
L 248.837261 78.894869 
L 250.718166 79.277668 
L 254.479975 80.418822 
L 258.241784 81.905398 
L 263.884497 84.274141 
L 267.646307 85.591723 
L 269.527211 86.091747 
L 271.408116 86.458874 
L 273.28902 86.67908 
L 275.169925 86.743989 
L 277.050829 86.651139 
L 278.931734 86.404013 
L 280.812638 86.011844 
L 284.574447 84.855351 
L 288.336256 83.349912 
L 295.859874 80.169441 
L 299.621683 78.936164 
L 301.502588 78.488764 
L 303.383492 78.174695 
L 305.264397 78.003425 
L 307.145302 77.979393 
L 309.026206 78.101969 
L 310.907111 78.365592 
L 312.788015 78.760084 
L 316.549824 79.880761 
L 320.311633 81.310647 
L 327.835251 84.34159 
L 331.59706 85.567813 
L 335.358869 86.398024 
L 337.239774 86.633242 
L 339.120678 86.738764 
L 341.001583 86.711756 
L 342.882487 86.552899 
L 344.763392 86.266201 
L 348.525201 85.340212 
L 352.28701 84.020202 
L 356.048819 82.422056 
L 369.215151 76.493068 
L 372.97696 75.160553 
L 376.738769 74.122896 
L 380.500578 73.407492 
L 384.262387 73.01522 
L 388.024196 72.924778 
L 391.786005 73.098161 
L 395.547814 73.486485 
L 401.190528 74.352989 
L 419.999573 77.684336 
L 425.642286 78.331064 
L 429.404095 78.589556 
L 431.285 78.6583 
L 431.285 78.6583 
" clip-path="url(#pe1e11c8768)" style="fill: none; stroke: #8c564b; stroke-width: 1.5; stroke-linecap: square"/>
   </g>
   <g id="patch_3">
    <path d="M 38.27 303.64 
L 38.27 10.8 
" style="fill: none; stroke: #000000; stroke-width: 0.8; stroke-linejoin: miter; stroke-linecap: square"/>
   </g>
   <g id="patch_4">
    <path d="M 450 303.64 
L 450 10.8 
" style="fill: none; stroke: #000000; stroke-width: 0.8; stroke-linejoin: miter; stroke-linecap: square"/>
   </g>
   <g id="patch_5">
    <path d="M 38.27 303.64 
L 450 303.64 
" style="fill: none; stroke: #000000; stroke-width: 0.8; stroke-linejoin: miter; stroke-linecap: square"/>
   </g>
   <g id="patch_6">
    <path d="M 38.27 10.8 
L 450 10.8 
" style="fill: none; stroke: #000000; stroke-width: 0.8; stroke-linejoin: miter; stroke-linecap: square"/>
   </g>
  </g>
 </g>
 <defs>
  <clipPath id="pe1e11c8768">
   <rect x="38.27" y="10.8" width="411.73" height="292.84"/>
  </clipPath>
 </defs>
</svg>
